{"glyphs":{"0":{"ha":813,"x_min":75,"x_max":738,"o":"m 407 33 q 553 93 489 33 q 652 259 617 153 q 688 501 688 365 q 652 742 688 636 q 553 908 617 849 q 407 967 489 967 q 261 908 325 967 q 161 742 197 849 q 125 501 125 636 q 161 259 125 365 q 261 93 197 153 q 407 33 325 33 m 407 -11 q 235 54 311 -11 q 117 236 160 119 q 75 501 75 353 q 117 765 75 649 q 235 946 160 881 q 407 1011 311 1011 q 578 946 503 1011 q 695 765 653 881 q 738 501 738 649 q 695 236 738 353 q 578 54 653 119 q 407 -11 503 -11 z "},"1":{"ha":394,"x_min":64,"x_max":250,"o":"m 250 0 l 200 0 l 200 947 l 92 872 l 64 908 l 200 1003 l 250 1003 l 250 0 z "},"2":{"ha":738,"x_min":75,"x_max":663,"o":"m 75 44 q 144 114 108 79 q 219 185 181 149 q 419 383 344 304 q 547 549 493 463 q 600 711 600 636 q 572 844 600 786 q 492 935 543 903 q 375 968 440 968 q 238 918 304 968 q 140 790 172 868 l 93 810 q 209 956 131 900 q 375 1013 288 1013 q 517 974 454 1013 q 615 867 579 936 q 650 711 650 799 q 594 534 650 626 q 461 359 539 442 q 256 156 383 276 q 111 15 153 58 l 75 44 m 75 44 l 663 44 l 663 0 l 82 0 l 75 44 z "},"3":{"ha":772,"x_min":75,"x_max":697,"o":"m 506 519 q 642 433 586 499 q 697 285 697 367 q 658 133 697 200 q 547 28 618 65 q 386 -10 476 -10 q 225 28 296 -10 q 115 133 154 65 q 75 285 75 200 l 125 285 q 158 156 125 213 q 251 67 192 99 q 386 35 311 35 q 521 65 461 35 q 614 147 581 94 q 647 268 647 200 q 615 385 647 333 q 523 467 582 438 q 389 496 464 496 l 365 496 l 365 542 l 388 542 q 515 569 458 542 q 602 645 571 596 q 633 756 633 694 q 566 910 633 850 q 393 971 499 971 q 268 942 324 971 q 182 860 213 913 q 151 740 151 807 l 101 740 q 139 882 101 819 q 242 980 176 944 q 393 1015 308 1015 q 544 980 478 1015 q 647 882 610 944 q 683 740 683 819 q 633 610 683 672 q 506 519 583 549 z "},"4":{"ha":843,"x_min":75,"x_max":768,"o":"m 597 346 l 768 346 l 768 301 l 597 301 l 597 0 l 547 0 l 547 301 l 82 301 l 75 349 l 547 1003 l 597 1003 l 597 346 m 547 346 l 547 917 l 135 346 l 547 346 z "},"5":{"ha":775,"x_min":75,"x_max":699,"o":"m 146 511 q 256 589 189 558 q 385 619 322 619 q 548 580 476 619 q 659 470 619 540 q 699 310 699 400 q 659 144 699 217 q 548 31 619 72 q 385 -10 476 -10 q 247 21 311 -10 q 137 106 182 51 q 75 231 92 161 l 125 242 q 217 94 144 151 q 385 38 290 38 q 522 72 461 38 q 615 169 582 107 q 649 310 649 231 q 615 446 649 386 q 522 539 582 506 q 385 572 461 572 q 275 546 332 572 q 181 478 218 519 l 146 511 m 131 488 l 158 1003 l 649 1003 l 649 958 l 208 958 l 181 478 l 131 488 z "},"6":{"ha":775,"x_min":75,"x_max":699,"o":"m 383 35 q 520 69 460 35 q 615 163 581 103 q 649 300 649 224 q 615 440 649 378 q 520 535 581 501 q 383 569 460 569 q 249 535 308 569 q 158 440 190 501 q 125 300 125 378 q 158 163 125 224 q 249 69 190 103 q 383 35 308 35 m 75 300 q 115 465 75 393 l 425 1003 l 482 1003 l 240 582 q 383 614 304 614 q 547 574 475 614 q 658 463 618 535 q 699 300 699 392 q 658 140 699 210 q 547 30 618 69 q 383 -10 475 -10 q 224 30 294 -10 q 115 140 154 69 q 75 300 75 210 z "},"7":{"ha":721,"x_min":96,"x_max":646,"o":"m 160 0 l 590 958 l 646 958 l 215 0 l 160 0 m 646 958 l 96 958 l 96 1003 l 639 1003 l 646 958 z "},"8":{"ha":779,"x_min":75,"x_max":704,"o":"m 390 31 q 527 62 467 31 q 621 149 588 93 q 654 278 654 206 q 621 394 654 343 q 527 473 588 444 q 390 501 467 501 q 253 473 314 501 q 159 394 193 444 q 125 278 125 343 q 159 149 125 206 q 253 62 193 93 q 390 31 314 31 m 151 750 q 218 604 151 661 q 390 547 285 547 q 563 604 496 547 q 629 750 629 661 q 563 910 629 847 q 390 972 496 972 q 218 910 285 972 q 151 750 151 847 m 521 528 q 658 421 613 489 q 704 278 704 353 q 665 127 704 193 q 553 24 625 61 q 390 -14 482 -14 q 227 24 299 -14 q 115 127 156 61 q 75 278 75 193 q 121 422 75 354 q 260 528 167 490 q 140 623 179 563 q 101 750 101 683 q 138 888 101 828 q 241 983 175 949 q 390 1017 307 1017 q 540 983 474 1017 q 642 888 606 949 q 679 750 679 828 q 640 624 679 685 q 521 528 601 564 z "},"9":{"ha":775,"x_min":75,"x_max":699,"o":"m 390 968 q 253 934 314 968 q 159 840 193 900 q 125 703 125 779 q 159 563 125 625 q 253 467 193 501 q 390 433 314 433 q 524 467 465 433 q 616 563 583 501 q 649 703 649 625 q 616 840 649 779 q 524 934 583 900 q 390 968 465 968 m 699 703 q 658 538 699 610 l 349 0 l 292 0 l 533 421 q 390 389 469 389 q 227 428 299 389 q 115 540 156 468 q 75 703 75 611 q 115 863 75 793 q 227 973 156 933 q 390 1013 299 1013 q 549 973 479 1013 q 659 863 619 933 q 699 703 699 793 z "}," ":{"ha":319,"x_min":0,"x_max":0,"o":""}," ":{"ha":319,"x_min":0,"x_max":0,"o":""},"A":{"ha":1021,"x_min":99,"x_max":922,"o":"m 922 0 l 868 0 l 749 311 l 274 311 l 153 0 l 99 0 l 488 1003 l 535 1003 l 922 0 m 731 356 l 511 926 l 290 356 l 731 356 z "},"B":{"ha":814,"x_min":122,"x_max":746,"o":"m 122 1003 l 172 1003 l 172 542 l 465 542 q 515 538 493 542 q 563 525 536 535 l 565 524 q 695 425 644 496 q 746 271 746 354 q 711 131 746 193 q 615 35 676 69 q 475 0 553 0 l 122 0 l 122 1003 m 475 44 q 634 108 572 44 q 696 271 696 171 q 634 434 696 371 q 475 497 572 497 l 172 497 l 172 44 l 475 44 m 417 542 q 561 601 506 547 q 617 738 617 656 q 556 897 617 835 q 399 958 494 958 l 122 958 l 122 1003 l 399 1003 q 538 969 476 1003 q 633 874 599 935 q 667 738 667 814 q 622 610 667 675 q 511 524 578 546 l 417 542 z "},"C":{"ha":1025,"x_min":110,"x_max":954,"o":"m 603 -11 q 348 54 460 -11 q 173 236 236 119 q 110 501 110 353 q 173 767 110 650 q 348 949 236 883 q 603 1014 460 1014 q 795 975 704 1014 q 954 867 886 936 l 918 839 q 775 936 857 903 q 603 969 693 969 q 373 910 474 969 q 216 744 272 850 q 160 501 160 638 q 216 259 160 365 q 373 93 272 153 q 603 33 474 33 q 772 67 692 33 q 918 164 851 100 l 954 136 q 795 28 886 67 q 603 -11 704 -11 z "},"D":{"ha":964,"x_min":124,"x_max":853,"o":"m 357 43 q 588 101 486 43 q 746 264 689 160 q 803 500 803 368 q 746 738 803 633 q 588 901 689 843 q 357 960 486 960 l 174 958 l 174 44 l 357 43 m 354 1003 q 613 939 499 1003 q 790 760 726 875 q 853 500 853 646 q 790 242 853 356 q 613 64 726 128 q 354 0 499 0 l 124 0 l 124 1003 l 354 1003 z "},"E":{"ha":792,"x_min":107,"x_max":697,"o":"m 697 958 l 157 958 l 157 539 l 628 539 l 628 494 l 157 494 l 157 44 l 697 44 l 697 0 l 107 0 l 107 1003 l 697 1003 l 697 958 z "},"F":{"ha":764,"x_min":121,"x_max":697,"o":"m 697 958 l 171 958 l 171 525 l 626 525 l 626 481 l 171 481 l 171 0 l 121 0 l 121 1003 l 697 1003 l 697 958 z "},"G":{"ha":1183,"x_min":108,"x_max":1058,"o":"m 1058 442 q 997 204 1058 306 q 829 48 935 103 q 593 -11 724 -7 q 342 54 453 -11 q 170 236 232 119 q 108 501 108 353 q 170 766 108 650 q 342 947 232 882 q 593 1013 453 1013 q 843 942 738 1013 q 1004 771 949 872 l 963 743 q 818 903 913 838 q 594 968 724 968 q 369 908 468 968 q 214 742 269 849 q 158 501 158 636 q 214 259 158 365 q 369 93 269 153 q 594 33 468 33 q 810 92 715 40 q 958 236 906 143 q 1010 457 1011 329 l 613 457 l 613 501 l 1058 501 l 1058 442 z "},"H":{"ha":931,"x_min":124,"x_max":807,"o":"m 807 0 l 757 0 l 757 493 l 174 493 l 174 0 l 124 0 l 124 1003 l 174 1003 l 174 538 l 757 538 l 757 1003 l 807 1003 l 807 0 z "},"I":{"ha":296,"x_min":124,"x_max":174,"o":"m 174 1003 l 174 0 l 124 0 l 124 1003 l 174 1003 z "},"J":{"ha":767,"x_min":93,"x_max":647,"o":"m 647 292 q 612 135 647 204 q 513 28 576 67 q 369 -10 450 -10 q 208 41 285 -10 q 93 171 131 92 l 138 192 q 238 79 172 124 q 368 35 304 35 q 487 67 435 35 q 568 158 539 100 q 597 292 597 217 l 597 1003 l 647 1003 l 647 292 z "},"K":{"ha":840,"x_min":122,"x_max":744,"o":"m 332 556 l 744 0 l 682 0 l 299 518 l 172 379 l 172 0 l 122 0 l 122 1003 l 172 1003 l 172 453 l 664 1003 l 731 1003 l 332 556 z "},"L":{"ha":772,"x_min":121,"x_max":678,"o":"m 171 44 l 678 44 l 678 0 l 121 0 l 121 1003 l 171 1003 l 171 44 z "},"M":{"ha":1101,"x_min":122,"x_max":979,"o":"m 172 893 l 172 0 l 122 0 l 122 1003 l 172 1003 l 550 263 l 929 1003 l 979 1003 l 979 0 l 929 0 l 929 893 l 581 213 l 519 213 l 172 893 z "},"N":{"ha":939,"x_min":119,"x_max":819,"o":"m 819 0 l 769 0 l 169 913 l 169 0 l 119 0 l 119 1003 l 169 1003 l 769 92 l 769 1003 l 819 1003 l 819 0 z "},"O":{"ha":1197,"x_min":114,"x_max":1083,"o":"m 599 33 q 824 93 725 33 q 978 259 922 153 q 1033 501 1033 365 q 978 744 1033 638 q 824 910 922 850 q 599 969 725 969 q 374 910 472 969 q 219 744 275 850 q 164 501 164 638 q 219 259 164 365 q 374 93 275 153 q 599 33 472 33 m 599 1014 q 849 949 739 1014 q 1022 767 960 883 q 1083 501 1083 650 q 1022 236 1083 353 q 849 54 960 119 q 599 -11 739 -11 q 348 54 458 -11 q 176 236 238 119 q 114 501 114 353 q 176 767 114 650 q 348 949 238 883 q 599 1014 458 1014 z "},"P":{"ha":831,"x_min":122,"x_max":718,"o":"m 425 503 q 600 567 532 503 q 668 732 668 631 q 600 895 668 832 q 425 958 532 958 l 172 958 l 172 503 l 425 503 m 435 1003 q 581 968 517 1003 q 682 872 646 933 q 718 732 718 810 q 682 590 718 653 q 581 493 646 528 q 435 458 517 458 l 172 458 l 172 0 l 122 0 l 122 1003 l 435 1003 z "},"Q":{"ha":1218,"x_min":114,"x_max":1104,"o":"m 939 197 q 1010 340 983 256 q 1033 500 1036 425 q 978 742 1033 636 q 824 908 922 849 q 599 968 725 968 q 374 908 472 968 q 219 742 275 849 q 164 500 164 636 q 219 259 164 365 q 374 93 275 153 q 599 33 472 33 q 757 67 671 32 q 907 158 843 103 l 767 300 l 800 338 l 939 197 m 1071 -8 l 942 124 q 781 26 878 64 q 599 -11 685 -11 q 348 54 458 -11 q 176 235 238 119 q 114 500 114 351 q 176 765 114 649 q 348 947 238 882 q 599 1013 458 1013 q 849 947 739 1013 q 1022 765 960 882 q 1083 500 1083 649 q 1056 322 1086 415 q 974 163 1025 228 l 1104 29 l 1071 -8 z "},"R":{"ha":893,"x_min":124,"x_max":769,"o":"m 428 493 q 555 523 499 493 q 642 606 611 553 q 674 728 674 660 q 642 847 674 794 q 555 929 611 900 q 428 958 499 958 l 174 958 l 174 493 l 428 493 m 708 0 l 401 449 l 174 449 l 174 0 l 124 0 l 124 1003 l 428 1003 q 581 967 514 1003 q 686 869 649 932 q 724 725 724 806 q 685 585 724 647 q 586 486 647 522 q 461 450 525 450 l 769 0 l 708 0 z "},"S":{"ha":813,"x_min":107,"x_max":715,"o":"m 150 217 q 263 84 196 135 q 408 33 329 33 q 593 94 521 33 q 665 253 665 154 q 634 357 665 315 q 556 423 603 399 q 429 478 508 447 q 283 542 339 513 q 190 627 228 572 q 151 768 151 682 q 188 896 151 840 q 290 983 225 951 q 432 1014 354 1014 q 542 990 488 1014 q 638 922 597 965 q 699 822 679 879 l 651 806 q 566 924 628 878 q 432 969 504 969 q 315 944 367 969 q 232 872 263 918 q 201 768 201 826 q 235 648 201 694 q 319 574 269 601 q 456 515 369 547 q 593 456 542 483 q 680 378 644 428 q 715 253 715 329 q 676 115 715 175 q 566 22 636 56 q 408 -11 496 -11 q 240 44 319 -11 q 107 192 160 100 l 150 217 z "},"T":{"ha":874,"x_min":94,"x_max":779,"o":"m 779 958 l 460 958 l 460 0 l 410 0 l 410 958 l 94 958 l 94 1003 l 779 1003 l 779 958 z "},"U":{"ha":979,"x_min":125,"x_max":858,"o":"m 492 -10 q 295 40 378 -10 q 169 179 213 90 q 125 385 125 268 l 125 1003 l 175 1003 l 175 385 q 259 131 175 228 q 492 35 343 35 q 724 131 640 35 q 808 385 808 228 l 808 1003 l 858 1003 l 858 385 q 815 179 858 268 q 688 40 771 90 q 492 -10 606 -10 z "},"V":{"ha":990,"x_min":99,"x_max":892,"o":"m 529 0 l 479 0 l 99 1003 l 153 1003 l 504 76 l 839 1003 l 892 1003 l 529 0 z "},"W":{"ha":1426,"x_min":108,"x_max":1318,"o":"m 1026 0 l 974 0 l 701 913 l 457 0 l 401 0 l 108 1003 l 161 1003 l 428 86 l 674 1003 l 726 1003 l 1000 86 l 1265 1003 l 1318 1003 l 1026 0 z "},"X":{"ha":935,"x_min":99,"x_max":836,"o":"m 493 503 l 836 0 l 775 0 l 468 453 l 160 0 l 99 0 l 442 503 l 99 1003 l 160 1003 l 468 553 l 778 1006 l 836 1003 l 493 503 z "},"Y":{"ha":964,"x_min":99,"x_max":865,"o":"m 507 392 l 507 0 l 457 0 l 457 392 l 99 1003 l 157 1003 l 482 447 l 807 1003 l 865 1003 l 507 392 z "},"Z":{"ha":760,"x_min":68,"x_max":692,"o":"m 692 947 l 122 44 l 692 44 l 692 0 l 68 0 l 68 51 l 639 958 l 68 958 l 68 1003 l 692 1003 l 692 947 z "},"a":{"ha":772,"x_min":81,"x_max":664,"o":"m 372 -6 q 222 35 288 -6 q 118 150 156 76 q 81 317 81 224 q 118 483 81 410 q 222 598 156 557 q 372 639 288 639 q 524 591 458 639 q 619 467 590 543 l 614 465 l 614 640 l 664 640 l 664 0 l 614 0 l 614 168 l 619 167 q 571 88 606 128 q 484 21 536 47 q 372 -6 432 -6 m 372 40 q 492 76 436 40 q 581 175 547 111 q 614 317 614 239 q 581 458 614 394 q 492 558 547 522 q 372 593 436 593 q 248 558 303 593 q 163 460 193 522 q 132 317 132 397 q 163 173 132 236 q 248 75 193 110 q 372 40 303 40 z "},"b":{"ha":794,"x_min":108,"x_max":714,"o":"m 414 -8 q 257 44 335 -8 q 153 168 179 96 l 158 169 l 158 0 l 108 0 l 108 976 l 158 976 l 158 472 l 153 474 q 263 602 189 557 q 414 647 336 647 q 569 606 501 647 q 676 489 638 564 q 714 319 714 414 q 676 150 714 225 q 569 33 638 75 q 414 -8 500 -8 m 414 38 q 543 74 486 38 q 632 174 600 110 q 664 319 664 238 q 632 465 664 401 q 543 565 600 529 q 414 601 486 601 q 288 564 346 601 q 194 462 229 526 q 158 319 158 397 q 192 177 158 242 q 283 75 225 113 q 414 38 342 38 z "},"c":{"ha":640,"x_min":51,"x_max":608,"o":"m 376 42 q 483 66 428 42 q 576 129 539 90 l 608 96 q 500 25 565 53 q 376 -3 435 -3 q 208 38 282 -3 q 93 153 135 79 q 51 321 51 226 q 93 487 51 414 q 208 601 135 560 q 376 642 282 642 q 500 614 435 642 q 608 542 565 586 l 574 511 q 482 573 538 549 q 376 597 426 597 q 235 562 297 597 q 137 464 172 526 q 101 321 101 401 q 137 176 101 240 q 235 77 172 113 q 376 42 297 42 z "},"d":{"ha":797,"x_min":81,"x_max":689,"o":"m 388 -10 q 228 32 299 -10 q 119 149 158 74 q 81 319 81 224 q 119 490 81 415 q 228 608 158 565 q 388 650 299 650 q 551 595 481 650 q 644 463 622 540 l 639 461 l 639 975 l 689 975 l 689 0 l 639 0 l 639 181 l 644 179 q 551 44 621 97 q 388 -10 481 -10 m 388 35 q 513 74 454 35 q 605 178 571 113 q 639 319 639 243 q 605 462 639 396 q 513 566 571 528 q 388 604 454 604 q 254 568 313 604 q 164 467 196 532 q 132 319 132 403 q 165 172 132 238 q 255 71 197 107 q 388 35 313 35 z "},"e":{"ha":735,"x_min":81,"x_max":650,"o":"m 374 -1 q 222 40 289 -1 q 118 153 156 81 q 81 319 81 226 q 118 486 81 413 q 222 601 156 560 q 374 642 289 642 q 544 585 489 642 q 621 474 600 528 l 622 469 q 644 388 639 431 q 650 310 650 344 l 650 303 l 131 303 q 162 169 131 228 q 248 76 193 110 q 374 43 303 43 q 514 82 472 43 q 572 161 556 121 l 574 164 l 617 143 q 531 40 590 82 q 374 -1 471 -1 m 600 349 q 572 469 599 410 q 494 564 544 528 q 374 597 443 600 q 199 528 267 597 q 131 349 132 460 l 600 349 z "},"f":{"ha":542,"x_min":61,"x_max":481,"o":"m 199 0 l 199 832 q 246 952 199 906 q 367 999 293 999 q 428 987 399 999 q 481 954 457 975 l 450 919 q 411 945 432 936 q 367 954 390 954 q 283 920 315 954 q 250 832 250 886 l 250 0 l 199 0 m 61 640 l 456 640 l 456 594 l 61 594 l 61 640 z "},"g":{"ha":772,"x_min":81,"x_max":664,"o":"m 367 39 q 492 76 435 39 q 582 178 549 114 q 615 317 615 242 q 582 453 615 390 q 492 554 549 517 q 367 592 435 592 q 245 557 299 592 q 162 459 192 522 q 132 317 132 396 q 162 173 132 236 q 245 74 192 110 q 367 39 299 39 m 664 40 q 629 -131 664 -56 q 530 -247 594 -206 q 379 -289 465 -289 q 243 -263 300 -289 q 138 -171 186 -237 l 176 -139 q 265 -219 218 -196 q 379 -243 313 -243 q 550 -162 486 -243 q 614 47 614 -82 l 614 182 l 619 182 q 531 47 601 100 q 367 -7 460 -7 q 218 35 283 -7 q 117 150 153 76 q 81 317 81 224 q 117 482 81 410 q 218 595 153 554 q 367 636 283 636 q 519 585 444 636 q 619 461 593 533 l 614 460 l 614 640 l 664 640 l 664 40 z "},"h":{"ha":713,"x_min":115,"x_max":597,"o":"m 547 375 q 498 529 547 469 q 372 589 449 589 q 267 557 314 589 q 192 467 219 525 q 165 338 165 410 l 165 0 l 115 0 l 115 975 l 165 975 l 165 485 l 160 486 q 235 591 181 547 q 372 635 289 635 q 489 601 438 635 q 569 506 540 567 q 597 368 597 446 l 597 0 l 547 0 l 547 375 z "},"i":{"ha":261,"x_min":93,"x_max":176,"o":"m 158 640 l 158 0 l 108 0 l 108 640 l 158 640 m 135 908 q 165 897 154 908 q 176 867 176 886 q 165 837 176 849 q 135 825 154 825 q 105 837 117 825 q 93 867 93 849 q 105 897 93 886 q 135 908 117 908 z "},"j":{"ha":282,"x_min":-78,"x_max":199,"o":"m -51 -235 q 19 -246 -10 -246 q 102 -208 69 -246 q 135 -112 135 -169 l 135 640 l 185 640 l 185 -112 q 164 -204 185 -164 q 106 -267 143 -244 q 19 -290 68 -290 q -78 -276 -19 -290 l -67 -231 l -51 -235 m 157 908 q 188 897 176 908 q 199 867 199 886 q 188 837 199 849 q 157 825 176 825 q 127 837 139 825 q 115 867 115 849 q 127 897 115 886 q 157 908 139 908 z "},"k":{"ha":650,"x_min":114,"x_max":585,"o":"m 164 246 l 492 640 l 558 640 l 325 361 l 585 0 l 522 0 l 292 319 l 164 167 l 164 0 l 114 0 l 114 975 l 164 975 l 164 246 z "},"l":{"ha":242,"x_min":96,"x_max":146,"o":"m 146 975 l 146 0 l 96 0 l 96 975 l 146 975 z "},"m":{"ha":1081,"x_min":117,"x_max":976,"o":"m 925 417 q 880 546 925 496 q 764 596 835 596 q 665 569 710 596 q 595 500 621 542 q 569 417 569 458 l 569 0 l 519 0 l 519 417 q 474 546 519 496 q 358 596 429 596 q 260 571 304 596 q 192 505 217 546 q 168 417 168 464 l 168 0 l 117 0 l 117 640 l 168 640 l 168 528 l 163 529 q 241 610 186 578 q 358 642 296 642 q 469 609 417 642 q 551 515 522 576 q 647 606 588 571 q 764 642 706 642 q 874 615 825 642 q 949 543 922 589 q 976 438 976 497 l 976 0 l 925 0 l 925 417 z "},"n":{"ha":689,"x_min":107,"x_max":596,"o":"m 544 400 q 494 540 544 486 q 365 594 444 594 q 258 569 306 594 q 185 504 211 544 q 158 417 158 464 l 158 0 l 107 0 l 107 640 l 158 640 l 158 528 l 153 529 q 228 609 168 578 q 365 640 288 640 q 485 613 432 640 q 567 535 538 585 q 596 422 596 485 l 596 0 l 544 0 l 544 400 z "},"o":{"ha":769,"x_min":81,"x_max":689,"o":"m 383 42 q 515 77 457 42 q 606 176 574 113 q 639 319 639 239 q 606 463 639 400 q 515 562 574 526 q 383 597 457 597 q 253 562 310 597 q 164 463 196 526 q 132 319 132 400 q 164 176 132 239 q 253 77 196 113 q 383 42 310 42 m 383 642 q 542 601 472 642 q 650 486 611 560 q 689 319 689 413 q 650 153 689 226 q 542 38 611 79 q 383 -3 472 -3 q 227 38 296 -3 q 119 153 158 79 q 81 319 81 226 q 119 486 81 413 q 227 601 158 560 q 383 642 296 642 z "},"p":{"ha":782,"x_min":115,"x_max":701,"o":"m 408 36 q 534 72 479 36 q 619 171 589 107 q 650 315 650 235 q 619 458 650 396 q 534 556 589 521 q 408 592 479 592 q 290 554 346 592 q 201 453 235 517 q 168 315 168 389 q 201 176 168 240 q 290 74 235 111 q 408 36 346 36 m 410 636 q 560 595 494 636 q 664 481 626 554 q 701 315 701 408 q 664 147 701 221 q 560 33 626 74 q 410 -8 494 -8 q 296 19 347 -8 q 210 86 244 46 q 161 167 176 126 l 167 168 l 167 -289 l 115 -289 l 115 640 l 167 640 l 167 461 l 161 463 q 260 585 190 535 q 410 636 329 636 z "},"q":{"ha":775,"x_min":81,"x_max":667,"o":"m 374 36 q 492 74 436 36 q 581 176 547 111 q 615 315 615 240 q 581 453 615 389 q 492 554 547 517 q 374 592 436 592 q 249 556 304 592 q 163 458 193 521 q 132 315 132 396 q 163 171 132 235 q 249 72 193 107 q 374 36 304 36 m 372 636 q 522 585 453 636 q 621 463 592 535 l 615 461 l 615 640 l 667 640 l 667 -289 l 615 -289 l 615 168 l 621 167 q 530 47 596 101 q 372 -8 464 -8 q 222 33 288 -8 q 118 147 156 74 q 81 315 81 221 q 118 481 81 408 q 222 595 156 554 q 372 636 288 636 z "},"r":{"ha":439,"x_min":100,"x_max":379,"o":"m 144 479 q 204 564 167 526 q 288 622 242 601 q 379 643 333 643 l 379 596 q 269 559 322 596 q 183 461 215 522 q 150 332 150 400 l 150 0 l 100 0 l 100 640 l 150 640 l 150 478 l 144 479 z "},"s":{"ha":590,"x_min":79,"x_max":511,"o":"m 124 158 q 202 72 149 103 q 304 40 256 40 q 418 78 375 40 q 461 168 461 115 q 422 243 461 217 q 307 297 383 269 q 294 301 301 300 l 283 306 q 188 345 225 326 q 125 396 151 364 q 99 475 99 428 q 126 559 99 521 q 201 619 154 597 q 306 642 249 642 q 384 627 342 642 q 460 583 426 613 q 506 515 494 554 l 458 499 q 397 572 444 547 q 304 597 350 597 q 194 561 240 597 q 149 474 149 525 q 186 402 149 428 q 297 349 224 376 l 315 342 q 324 339 319 340 q 422 299 385 317 q 485 248 458 281 q 511 167 511 215 q 485 81 511 119 q 412 19 460 42 q 303 -4 364 -4 q 221 12 265 -4 q 138 59 176 28 q 79 133 100 90 l 124 158 z "},"t":{"ha":468,"x_min":54,"x_max":393,"o":"m 181 847 l 231 847 l 231 0 l 181 0 l 181 847 m 54 640 l 393 640 l 393 596 l 54 596 l 54 640 z "},"u":{"ha":683,"x_min":107,"x_max":590,"o":"m 158 231 q 208 92 158 144 q 336 39 257 39 q 440 66 393 39 q 514 135 488 93 q 540 218 540 176 l 540 640 l 590 640 l 590 0 l 540 0 l 540 124 l 546 122 q 469 29 528 65 q 336 -7 410 -7 q 219 23 271 -7 q 137 105 167 53 q 107 221 107 157 l 107 640 l 158 640 l 158 231 z "},"v":{"ha":711,"x_min":67,"x_max":644,"o":"m 386 0 l 336 0 l 67 640 l 121 640 l 361 58 l 590 640 l 644 640 l 386 0 z "},"w":{"ha":961,"x_min":74,"x_max":888,"o":"m 697 0 l 649 0 l 478 569 l 483 569 l 315 0 l 268 0 l 74 640 l 126 640 l 294 72 l 289 72 l 453 640 l 507 640 l 675 72 l 669 72 l 833 640 l 888 640 l 697 0 z "},"x":{"ha":656,"x_min":67,"x_max":589,"o":"m 358 315 l 589 0 l 526 0 l 329 275 l 129 0 l 67 0 l 300 315 l 67 640 l 129 640 l 329 356 l 526 640 l 589 640 l 358 315 z "},"y":{"ha":721,"x_min":89,"x_max":653,"o":"m 236 -278 l 350 13 l 89 640 l 143 640 l 378 67 l 600 640 l 653 640 l 418 46 l 290 -278 l 236 -278 z "},"z":{"ha":601,"x_min":78,"x_max":524,"o":"m 524 590 l 138 46 l 522 46 l 524 0 l 78 0 l 78 50 l 464 594 l 78 594 l 78 640 l 524 640 l 524 590 z "},"가":{"ha":1214,"x_min":94,"x_max":1179,"o":"m 964 1101 l 964 -89 l 919 -89 l 919 1101 l 964 1101 m 1179 589 l 1179 550 l 950 550 l 950 589 l 1179 589 m 667 968 q 528 507 667 721 q 119 158 390 293 l 94 194 q 383 399 264 278 q 563 665 503 521 q 624 964 624 810 l 624 968 l 667 968 m 647 968 l 647 928 l 139 928 l 139 968 l 647 968 z "},"각":{"ha":1214,"x_min":79,"x_max":1171,"o":"m 976 1101 l 976 396 l 932 396 l 932 1101 l 976 1101 m 1171 775 l 1171 735 l 964 735 l 964 775 l 1171 775 m 660 1015 q 510 650 660 806 q 99 421 360 494 l 79 458 q 472 672 328 529 q 615 1006 615 815 l 615 1015 l 660 1015 m 633 1015 l 633 976 l 126 976 l 126 1015 l 633 1015 m 976 336 l 976 -89 l 932 -89 l 932 296 l 226 296 l 226 336 l 976 336 z "},"갂":{"ha":1214,"x_min":0,"x_max":0,"o":""},"갃":{"ha":1214,"x_min":0,"x_max":0,"o":""},"간":{"ha":1214,"x_min":79,"x_max":1171,"o":"m 976 1101 l 976 214 l 932 214 l 932 1101 l 976 1101 m 1171 711 l 1171 671 l 958 671 l 958 711 l 1171 711 m 660 1006 q 589 741 660 864 q 392 524 518 618 q 100 371 265 429 l 79 411 q 467 647 319 493 q 614 996 614 800 l 614 1006 l 660 1006 m 632 1006 l 632 965 l 125 965 l 125 1006 l 632 1006 m 1042 -15 l 1042 -56 l 264 -56 l 264 -15 l 1042 -15 m 307 304 l 307 -25 l 264 -25 l 264 304 l 307 304 z "},"갅":{"ha":1214,"x_min":0,"x_max":0,"o":""},"갆":{"ha":1214,"x_min":0,"x_max":0,"o":""},"갇":{"ha":1214,"x_min":79,"x_max":1171,"o":"m 976 1101 l 976 415 l 932 415 l 932 1101 l 976 1101 m 1171 779 l 1171 740 l 964 740 l 964 779 l 1171 779 m 661 1015 q 510 649 661 806 q 97 418 360 493 l 79 456 q 472 671 328 528 q 615 1006 615 814 l 615 1015 l 661 1015 m 633 1015 l 633 976 l 126 976 l 126 1015 l 633 1015 m 979 339 l 979 299 l 297 299 l 297 -49 l 254 -49 l 254 339 l 979 339 m 1001 -29 l 1001 -69 l 254 -69 l 254 -29 l 1001 -29 z "},"갈":{"ha":1214,"x_min":78,"x_max":1171,"o":"m 976 1101 l 976 485 l 932 485 l 932 1101 l 976 1101 m 1171 804 l 1171 763 l 964 763 l 964 804 l 1171 804 m 657 1029 q 506 676 657 825 q 99 457 354 526 l 78 496 q 467 697 324 561 q 611 1017 611 832 l 611 1029 l 657 1029 m 629 1029 l 629 988 l 122 988 l 122 1029 l 629 1029 m 976 422 l 976 163 l 299 163 l 299 -65 l 257 -65 l 257 203 l 933 203 l 933 383 l 253 383 l 253 422 l 976 422 m 1028 -37 l 1028 -76 l 257 -76 l 257 -37 l 1028 -37 z "},"갉":{"ha":1214,"x_min":78,"x_max":1172,"o":"m 976 1100 l 976 451 l 932 451 l 932 1100 l 976 1100 m 1172 797 l 1172 756 l 953 756 l 953 797 l 1172 797 m 265 -33 q 475 -28 389 -33 q 657 -6 561 -22 l 664 -44 q 478 -68 565 -62 q 265 -74 392 -74 l 203 -74 l 203 -33 l 265 -33 m 576 393 l 576 150 l 246 150 l 246 -53 l 203 -53 l 203 189 l 533 189 l 533 353 l 199 353 l 199 393 l 576 393 m 976 393 l 976 -83 l 932 -83 l 932 353 l 629 353 l 629 393 l 976 393 m 657 1025 q 506 670 657 821 q 99 450 354 519 l 78 488 q 467 691 324 556 q 611 1013 611 826 l 611 1025 l 657 1025 m 635 1025 l 635 983 l 128 983 l 128 1025 l 635 1025 z "},"갊":{"ha":1214,"x_min":78,"x_max":1171,"o":"m 542 393 l 542 154 l 228 154 l 228 -51 l 185 -51 l 185 193 l 499 193 l 499 353 l 181 353 l 181 393 l 542 393 m 976 393 l 976 -81 l 625 -81 l 625 393 l 976 393 m 668 354 l 668 -42 l 933 -42 l 933 354 l 668 354 m 239 -33 q 428 -29 360 -33 q 574 -8 497 -25 l 581 -50 q 427 -69 499 -65 q 239 -74 356 -74 l 185 -74 l 185 -33 l 239 -33 m 976 1100 l 976 451 l 932 451 l 932 1100 l 976 1100 m 1171 794 l 1171 754 l 964 754 l 964 794 l 1171 794 m 657 1025 q 506 672 657 821 q 99 453 354 522 l 78 492 q 467 692 324 557 q 611 1013 611 828 l 611 1025 l 657 1025 m 635 1025 l 635 983 l 128 983 l 128 1025 l 635 1025 z "},"갋":{"ha":1214,"x_min":78,"x_max":1171,"o":"m 976 1101 l 976 458 l 932 458 l 932 1101 l 976 1101 m 1171 807 l 1171 765 l 964 765 l 964 807 l 1171 807 m 661 407 l 661 224 l 932 224 l 932 407 l 976 407 l 976 -69 l 618 -69 l 618 407 l 661 407 m 661 -29 l 932 -29 l 932 185 l 661 185 l 661 -29 m 540 393 l 540 157 l 226 157 l 226 -47 l 183 -47 l 183 194 l 497 194 l 497 354 l 179 354 l 179 393 l 540 393 m 238 -26 q 426 -22 356 -26 q 574 0 497 -17 l 579 -42 q 427 -63 499 -58 q 238 -68 356 -68 l 183 -68 l 183 -26 l 238 -26 m 657 1032 q 506 678 657 828 q 99 460 354 529 l 78 499 q 467 699 324 564 q 611 1019 611 835 l 611 1032 l 657 1032 m 635 1032 l 635 990 l 128 990 l 128 1032 l 635 1032 z "},"갌":{"ha":1214,"x_min":0,"x_max":0,"o":""},"갍":{"ha":1214,"x_min":0,"x_max":0,"o":""},"갎":{"ha":1214,"x_min":0,"x_max":0,"o":""},"갏":{"ha":1214,"x_min":0,"x_max":0,"o":""},"감":{"ha":1214,"x_min":79,"x_max":1171,"o":"m 976 1101 l 976 415 l 932 415 l 932 1101 l 976 1101 m 1171 779 l 1171 740 l 964 740 l 964 779 l 1171 779 m 661 1015 q 510 649 661 806 q 97 418 360 493 l 79 456 q 472 671 328 528 q 615 1006 615 814 l 615 1015 l 661 1015 m 633 1015 l 633 976 l 126 976 l 126 1015 l 633 1015 m 976 351 l 976 -68 l 251 -68 l 251 351 l 976 351 m 296 311 l 296 -28 l 932 -28 l 932 311 l 296 311 z "},"갑":{"ha":1214,"x_min":79,"x_max":1171,"o":"m 976 1101 l 976 458 l 932 458 l 932 1101 l 976 1101 m 1171 794 l 1171 754 l 964 754 l 964 794 l 1171 794 m 660 1021 q 508 665 660 815 q 99 444 357 514 l 79 483 q 469 685 324 549 q 614 1008 614 822 l 614 1021 l 660 1021 m 629 1021 l 629 981 l 122 981 l 122 1021 l 629 1021 m 294 397 l 294 211 l 932 211 l 932 397 l 976 397 l 976 -69 l 250 -69 l 250 397 l 294 397 m 294 -31 l 932 -31 l 932 172 l 294 172 l 294 -31 z "},"값":{"ha":1214,"x_min":79,"x_max":1171,"o":"m 976 1101 l 976 453 l 932 453 l 932 1101 l 976 1101 m 1171 800 l 1171 758 l 964 758 l 964 800 l 1171 800 m 660 1021 q 508 664 660 815 q 99 443 356 513 l 79 483 q 469 685 324 549 q 614 1008 614 822 l 614 1021 l 660 1021 m 635 1021 l 635 981 l 128 981 l 128 1021 l 635 1021 m 256 390 l 256 215 l 553 215 l 553 390 l 596 390 l 596 -71 l 211 -71 l 211 390 l 256 390 m 256 -32 l 553 -32 l 553 174 l 256 174 l 256 -32 m 892 400 l 892 290 q 864 149 892 222 q 783 15 836 76 q 657 -83 729 -47 l 631 -49 q 749 40 699 -17 q 827 163 800 96 q 854 290 854 229 l 854 400 l 892 400 m 897 400 l 897 296 q 924 167 897 235 q 1000 42 950 100 q 1117 -49 1050 -15 l 1090 -83 q 967 16 1019 -47 q 887 153 914 79 q 860 296 860 226 l 860 400 l 897 400 z "},"갓":{"ha":1214,"x_min":82,"x_max":1171,"o":"m 1171 743 l 1171 703 l 964 703 l 964 743 l 1171 743 m 660 1006 q 510 631 660 793 q 103 385 360 468 l 82 421 q 472 651 328 500 q 615 996 615 801 l 615 1006 l 660 1006 m 633 1006 l 633 965 l 126 965 l 126 1006 l 633 1006 m 654 401 l 654 332 q 586 136 654 221 q 417 -2 518 51 q 213 -81 317 -56 l 193 -44 q 385 26 288 -24 q 549 155 482 76 q 615 332 615 233 l 615 401 l 654 401 m 658 401 l 658 332 q 725 157 658 235 q 889 30 792 79 q 1079 -40 986 -19 l 1057 -76 q 854 1 953 -51 q 688 138 756 54 q 621 332 621 222 l 621 401 l 658 401 m 1028 1104 l 1028 308 l 983 308 l 983 1104 l 1028 1104 z "},"갔":{"ha":1214,"x_min":79,"x_max":1171,"o":"m 976 1104 l 976 431 l 932 431 l 932 1104 l 976 1104 m 1171 772 l 1171 732 l 964 732 l 964 772 l 1171 772 m 661 1015 q 510 649 661 806 q 97 418 360 493 l 79 456 q 472 671 328 528 q 615 1006 615 814 l 615 1015 l 661 1015 m 633 1015 l 633 976 l 126 976 l 126 1015 l 633 1015 m 426 385 l 426 268 q 391 137 426 204 q 294 14 356 69 q 156 -74 232 -42 l 133 -37 q 262 40 203 -11 q 356 151 321 90 q 390 268 390 213 l 390 385 l 426 385 m 431 385 l 431 268 q 491 83 431 172 q 654 -47 551 -6 l 632 -83 q 458 62 521 -36 q 394 268 394 160 l 394 385 l 431 385 m 871 385 l 871 268 q 842 141 871 210 q 759 12 814 72 q 632 -83 704 -49 l 610 -47 q 727 39 676 -17 q 805 156 778 94 q 832 268 832 217 l 832 385 l 871 385 m 874 385 l 874 268 q 908 147 874 208 q 1001 37 942 86 q 1132 -37 1060 -12 l 1108 -74 q 913 68 990 -28 q 836 268 836 164 l 836 385 l 874 385 z "},"강":{"ha":1214,"x_min":79,"x_max":1171,"o":"m 976 1101 l 976 365 l 932 365 l 932 1101 l 976 1101 m 1171 763 l 1171 722 l 964 722 l 964 763 l 1171 763 m 661 1003 q 510 629 661 790 q 100 388 358 468 l 79 425 q 470 651 325 503 q 615 992 615 799 l 615 1003 l 661 1003 m 633 1003 l 633 963 l 126 963 l 126 1003 l 633 1003 m 617 353 q 816 326 732 353 q 945 251 900 300 q 990 133 990 201 q 945 17 990 65 q 816 -56 900 -31 q 617 -82 732 -82 q 417 -56 501 -82 q 288 17 333 -31 q 243 133 243 65 q 288 251 243 201 q 417 326 333 300 q 617 353 501 353 m 617 313 q 444 290 519 313 q 328 228 369 268 q 286 133 286 188 q 328 42 286 82 q 444 -21 369 1 q 617 -43 519 -43 q 790 -21 715 -43 q 907 42 865 1 q 949 133 949 82 q 907 228 949 188 q 790 290 865 268 q 617 313 715 313 z "},"갖":{"ha":1214,"x_min":79,"x_max":1171,"o":"m 976 1104 l 976 399 l 932 399 l 932 1104 l 976 1104 m 1171 764 l 1171 724 l 964 724 l 964 764 l 1171 764 m 660 1015 q 510 650 660 806 q 97 418 360 494 l 79 456 q 472 671 328 528 q 615 1006 615 814 l 615 1015 l 660 1015 m 633 1015 l 633 976 l 126 976 l 126 1015 l 633 1015 m 640 321 l 640 278 q 576 113 640 188 q 417 -12 513 39 q 225 -86 321 -62 l 203 -50 q 383 17 290 -31 q 538 131 475 64 q 601 278 601 199 l 601 321 l 640 321 m 646 321 l 646 278 q 709 132 646 200 q 865 17 772 64 q 1043 -50 957 -31 l 1021 -86 q 829 -12 925 -62 q 669 114 733 39 q 606 278 606 189 l 606 321 l 646 321 m 1003 332 l 1003 292 l 243 292 l 243 332 l 1003 332 z "},"갗":{"ha":1214,"x_min":79,"x_max":1171,"o":"m 1171 797 l 1171 756 l 964 756 l 964 797 l 1171 797 m 658 1014 q 510 651 658 806 q 101 424 361 497 l 79 464 q 469 674 328 533 q 611 1003 611 814 l 611 1014 l 658 1014 m 633 1014 l 633 975 l 126 975 l 126 1014 l 633 1014 m 976 1101 l 976 439 l 932 439 l 932 1101 l 976 1101 m 638 285 l 638 275 q 573 113 638 188 q 412 -14 508 38 q 219 -89 315 -65 l 199 -53 q 376 15 283 -33 q 534 131 469 63 q 599 275 599 199 l 599 285 l 638 285 m 643 285 l 643 275 q 707 129 643 197 q 865 14 771 61 q 1044 -53 958 -33 l 1021 -89 q 830 -14 926 -65 q 668 113 733 38 q 603 275 603 188 l 603 285 l 643 285 m 1010 319 l 1010 279 l 232 279 l 232 319 l 1010 319 m 643 483 l 643 303 l 599 303 l 599 483 l 643 483 z "},"갘":{"ha":1214,"x_min":0,"x_max":0,"o":""},"같":{"ha":1214,"x_min":81,"x_max":1171,"o":"m 976 1101 l 976 453 l 932 453 l 932 1101 l 976 1101 m 1171 793 l 1171 753 l 964 753 l 964 793 l 1171 793 m 661 1014 q 509 653 661 807 q 100 428 357 500 l 81 468 q 469 676 325 536 q 614 1003 614 815 l 614 1014 l 661 1014 m 629 1014 l 629 975 l 122 975 l 122 1014 l 629 1014 m 983 392 l 983 353 l 303 353 l 303 -53 l 260 -53 l 260 392 l 983 392 m 1013 -29 l 1013 -69 l 260 -69 l 260 -29 l 1013 -29 m 968 186 l 968 146 l 283 146 l 283 186 l 968 186 z "},"갚":{"ha":1214,"x_min":79,"x_max":1171,"o":"m 976 1100 l 976 421 l 932 421 l 932 1100 l 976 1100 m 1171 785 l 1171 746 l 958 746 l 958 785 l 1171 785 m 661 1014 q 588 760 661 876 q 388 558 515 643 q 99 424 261 472 l 79 464 q 354 588 233 510 q 544 772 475 665 q 614 1003 614 878 l 614 1014 l 661 1014 m 635 1014 l 635 975 l 128 975 l 128 1014 l 635 1014 m 1015 354 l 1015 314 l 239 314 l 239 354 l 1015 354 m 1031 -21 l 1031 -61 l 229 -61 l 229 -21 l 1031 -21 m 469 336 l 469 -42 l 426 -42 l 426 336 l 469 336 m 829 336 l 829 -42 l 786 -42 l 786 336 l 829 336 z "},"갛":{"ha":1214,"x_min":79,"x_max":1171,"o":"m 976 1101 l 976 464 l 932 464 l 932 1101 l 976 1101 m 1171 810 l 1171 769 l 964 769 l 964 810 l 1171 810 m 661 1019 q 509 659 661 813 q 99 433 357 506 l 79 474 q 469 681 325 542 q 614 1008 614 819 l 614 1019 l 661 1019 m 633 1019 l 633 979 l 126 979 l 126 1019 l 633 1019 m 1047 361 l 1047 322 l 226 322 l 226 361 l 1047 361 m 636 247 q 874 204 788 247 q 960 82 960 161 q 874 -41 960 3 q 636 -85 789 -85 q 398 -41 483 -85 q 313 82 313 3 q 398 204 313 161 q 636 247 483 247 m 636 210 q 432 175 508 210 q 356 82 356 140 q 431 -12 356 22 q 636 -47 507 -47 q 841 -12 765 -47 q 917 82 917 22 q 840 175 917 140 q 636 210 764 210 m 657 526 l 657 339 l 614 339 l 614 526 l 657 526 z "},"개":{"ha":1214,"x_min":82,"x_max":1063,"o":"m 1063 1101 l 1063 -89 l 1018 -89 l 1018 1101 l 1063 1101 m 1044 592 l 1044 551 l 782 551 l 782 592 l 1044 592 m 568 939 q 524 653 568 792 q 376 392 479 515 q 108 178 274 268 l 82 214 q 338 414 239 297 q 481 663 436 531 q 525 935 525 794 l 525 939 l 568 939 m 547 939 l 547 899 l 113 899 l 113 939 l 547 939 m 799 1068 l 799 -22 l 754 -22 l 754 1068 l 799 1068 z "},"객":{"ha":1214,"x_min":92,"x_max":1056,"o":"m 1056 1100 l 1056 394 l 1013 394 l 1013 1100 l 1056 1100 m 1039 776 l 1039 736 l 776 736 l 776 776 l 1039 776 m 797 1076 l 797 404 l 753 404 l 753 1076 l 797 1076 m 1056 331 l 1056 -89 l 1013 -89 l 1013 290 l 285 290 l 285 331 l 1056 331 m 586 1007 q 463 643 586 807 q 118 378 339 479 l 92 413 q 421 659 301 506 q 540 999 540 813 l 540 1007 l 586 1007 m 561 1007 l 561 967 l 129 967 l 129 1007 l 561 1007 z "},"갞":{"ha":1214,"x_min":0,"x_max":0,"o":""},"갟":{"ha":1214,"x_min":0,"x_max":0,"o":""},"갠":{"ha":1214,"x_min":90,"x_max":1099,"o":"m 1057 1100 l 1057 213 l 1014 213 l 1014 1100 l 1057 1100 m 1039 711 l 1039 671 l 778 671 l 778 711 l 1039 711 m 797 1078 l 797 257 l 753 257 l 753 1078 l 797 1078 m 585 982 q 461 617 585 783 q 117 350 338 451 l 90 385 q 421 633 301 478 q 540 976 540 789 l 540 982 l 585 982 m 563 982 l 563 943 l 129 943 l 129 982 l 563 982 m 1099 -3 l 1099 -42 l 307 -42 l 307 -3 l 1099 -3 m 351 325 l 351 -17 l 307 -17 l 307 325 l 351 325 z "},"갡":{"ha":1214,"x_min":0,"x_max":0,"o":""},"갢":{"ha":1214,"x_min":0,"x_max":0,"o":""},"갣":{"ha":1214,"x_min":92,"x_max":1079,"o":"m 1079 -29 l 1079 -69 l 301 -69 l 301 -29 l 1079 -29 m 1063 326 l 1063 288 l 346 288 l 346 -50 l 301 -50 l 301 326 l 1063 326 m 1057 1100 l 1057 414 l 1013 414 l 1013 1100 l 1057 1100 m 1039 783 l 1039 744 l 778 744 l 778 783 l 1039 783 m 797 1076 l 797 422 l 753 422 l 753 1076 l 797 1076 m 586 1007 q 529 758 586 875 q 367 548 472 642 q 118 389 263 454 l 92 425 q 330 572 229 485 q 485 767 431 658 q 540 999 540 876 l 540 1007 l 586 1007 m 563 1007 l 563 967 l 129 967 l 129 1007 l 563 1007 z "},"갤":{"ha":1214,"x_min":93,"x_max":1111,"o":"m 1057 1100 l 1057 476 l 1014 476 l 1014 1100 l 1057 1100 m 1039 803 l 1039 763 l 778 763 l 778 803 l 1039 803 m 799 1076 l 799 486 l 754 486 l 754 1076 l 799 1076 m 586 1026 q 462 683 586 833 q 117 447 338 533 l 93 482 q 423 701 304 561 q 542 1018 542 840 l 542 1026 l 586 1026 m 564 1026 l 564 986 l 131 986 l 131 1026 l 564 1026 m 1057 414 l 1057 165 l 344 165 l 344 -43 l 301 -43 l 301 206 l 1015 206 l 1015 374 l 297 374 l 297 414 l 1057 414 m 1111 -29 l 1111 -69 l 301 -69 l 301 -29 l 1111 -29 z "},"갥":{"ha":1214,"x_min":0,"x_max":0,"o":""},"갦":{"ha":1214,"x_min":0,"x_max":0,"o":""},"갧":{"ha":1214,"x_min":0,"x_max":0,"o":""},"갨":{"ha":1214,"x_min":0,"x_max":0,"o":""},"갩":{"ha":1214,"x_min":0,"x_max":0,"o":""},"갪":{"ha":1214,"x_min":0,"x_max":0,"o":""},"갫":{"ha":1214,"x_min":0,"x_max":0,"o":""},"갬":{"ha":1214,"x_min":92,"x_max":1056,"o":"m 1056 1100 l 1056 414 l 1013 414 l 1013 1100 l 1056 1100 m 1039 783 l 1039 744 l 776 744 l 776 783 l 1039 783 m 797 1076 l 797 422 l 753 422 l 753 1076 l 797 1076 m 586 1007 q 529 758 586 875 q 367 548 472 642 q 118 389 263 454 l 92 425 q 330 572 229 485 q 485 767 431 658 q 540 999 540 876 l 540 1007 l 586 1007 m 561 1007 l 561 967 l 129 967 l 129 1007 l 561 1007 m 1056 344 l 1056 -69 l 301 -69 l 301 344 l 1056 344 m 346 304 l 346 -29 l 1013 -29 l 1013 304 l 346 304 z "},"갭":{"ha":1214,"x_min":92,"x_max":1056,"o":"m 1056 1100 l 1056 451 l 1013 451 l 1013 1100 l 1056 1100 m 1039 788 l 1039 747 l 776 747 l 776 788 l 1039 788 m 797 1076 l 797 460 l 753 460 l 753 1076 l 797 1076 m 586 1013 q 464 660 586 815 q 117 414 342 506 l 92 450 q 422 679 304 535 q 540 1006 540 824 l 540 1013 l 586 1013 m 563 1013 l 563 974 l 131 974 l 131 1013 l 563 1013 m 350 393 l 350 217 l 1014 217 l 1014 393 l 1056 393 l 1056 -69 l 306 -69 l 306 393 l 350 393 m 350 -29 l 1014 -29 l 1014 176 l 350 176 l 350 -29 z "},"갮":{"ha":1214,"x_min":0,"x_max":0,"o":""},"갯":{"ha":1214,"x_min":93,"x_max":1126,"o":"m 588 981 q 468 613 588 778 q 118 349 349 449 l 93 385 q 427 631 313 478 q 542 976 542 785 l 542 981 l 588 981 m 569 981 l 569 942 l 136 942 l 136 981 l 569 981 m 1057 1100 l 1057 322 l 1014 322 l 1014 1100 l 1057 1100 m 1039 761 l 1039 721 l 778 721 l 778 761 l 1039 761 m 799 1076 l 799 429 l 754 429 l 754 1076 l 799 1076 m 693 369 l 693 301 q 623 122 693 201 q 451 -9 553 43 q 247 -83 349 -61 l 228 -47 q 417 19 317 -29 q 586 140 517 67 q 656 301 656 214 l 656 369 l 693 369 m 700 369 l 700 301 q 769 140 700 214 q 938 19 839 67 q 1126 -47 1038 -29 l 1108 -83 q 904 -9 1007 -61 q 731 122 801 43 q 661 301 661 201 l 661 369 l 700 369 z "},"갰":{"ha":1214,"x_min":93,"x_max":1153,"o":"m 1057 1100 l 1057 401 l 1014 401 l 1014 1100 l 1057 1100 m 1040 776 l 1040 736 l 779 736 l 779 776 l 1040 776 m 799 1076 l 799 411 l 754 411 l 754 1076 l 799 1076 m 588 1007 q 463 649 588 810 q 119 388 339 488 l 93 425 q 422 665 301 515 q 542 999 542 815 l 542 1007 l 588 1007 m 564 1007 l 564 967 l 132 967 l 132 1007 l 564 1007 m 450 357 l 450 253 q 414 121 450 189 q 316 -3 378 53 q 178 -90 254 -58 l 154 -54 q 283 24 224 -28 q 378 136 343 75 q 413 253 413 197 l 413 357 l 450 357 m 454 357 l 454 253 q 514 67 454 156 q 676 -62 574 -21 l 654 -100 q 480 46 543 -53 q 417 253 417 144 l 417 357 l 454 357 m 892 357 l 892 253 q 863 125 892 194 q 781 -5 835 56 q 654 -100 726 -65 l 632 -62 q 749 23 699 -32 q 827 140 800 78 q 854 253 854 201 l 854 357 l 892 357 m 896 357 l 896 253 q 930 131 896 192 q 1023 20 964 69 q 1153 -54 1082 -29 l 1131 -90 q 991 -6 1053 -60 q 894 117 929 49 q 858 253 858 185 l 858 357 l 896 357 z "},"갱":{"ha":1214,"x_min":92,"x_max":1074,"o":"m 1056 1100 l 1056 353 l 1013 353 l 1013 1100 l 1056 1100 m 1039 756 l 1039 715 l 778 715 l 778 756 l 1039 756 m 797 1076 l 797 397 l 753 397 l 753 1076 l 797 1076 m 586 992 q 462 633 586 794 q 118 374 338 471 l 92 408 q 420 651 300 500 q 540 983 540 801 l 540 992 l 586 992 m 561 992 l 561 951 l 129 951 l 129 992 l 561 992 m 679 336 q 890 311 801 336 q 1026 240 979 286 q 1074 126 1074 193 q 1026 13 1074 60 q 890 -59 979 -35 q 679 -83 801 -83 q 467 -59 556 -83 q 331 13 378 -35 q 285 126 285 60 q 331 240 285 193 q 467 312 378 288 q 679 336 556 336 m 679 297 q 495 276 575 297 q 372 216 415 254 q 328 126 328 178 q 424 2 328 49 q 679 -44 521 -44 q 933 2 838 -44 q 1029 126 1029 49 q 985 216 1029 178 q 863 276 942 254 q 679 297 783 297 z "},"갲":{"ha":1214,"x_min":0,"x_max":0,"o":""},"갳":{"ha":1214,"x_min":0,"x_max":0,"o":""},"갴":{"ha":1214,"x_min":0,"x_max":0,"o":""},"갵":{"ha":1214,"x_min":0,"x_max":0,"o":""},"갶":{"ha":1214,"x_min":0,"x_max":0,"o":""},"갷":{"ha":1214,"x_min":0,"x_max":0,"o":""},"갸":{"ha":1214,"x_min":94,"x_max":1178,"o":"m 1178 756 l 1178 715 l 947 715 l 947 756 l 1178 756 m 1178 397 l 1178 357 l 947 357 l 947 397 l 1178 397 m 964 1101 l 964 -89 l 919 -89 l 919 1101 l 964 1101 m 667 968 q 528 507 667 721 q 119 158 390 293 l 94 194 q 383 399 264 278 q 563 665 503 521 q 624 964 624 810 l 624 968 l 667 968 m 647 968 l 647 928 l 139 928 l 139 968 l 647 968 z "},"갹":{"ha":1214,"x_min":79,"x_max":1171,"o":"m 1171 893 l 1171 853 l 964 853 l 964 893 l 1171 893 m 1171 638 l 1171 597 l 964 597 l 964 638 l 1171 638 m 976 1101 l 976 396 l 932 396 l 932 1101 l 976 1101 m 660 1015 q 510 650 660 806 q 99 421 360 494 l 79 458 q 472 672 328 529 q 615 1006 615 815 l 615 1015 l 660 1015 m 633 1015 l 633 976 l 126 976 l 126 1015 l 633 1015 m 976 336 l 976 -89 l 932 -89 l 932 296 l 226 296 l 226 336 l 976 336 z "},"갺":{"ha":1214,"x_min":0,"x_max":0,"o":""},"갻":{"ha":1214,"x_min":0,"x_max":0,"o":""},"갼":{"ha":1214,"x_min":79,"x_max":1171,"o":"m 1171 851 l 1171 813 l 958 813 l 958 851 l 1171 851 m 1171 554 l 1171 515 l 958 515 l 958 554 l 1171 554 m 976 1101 l 976 214 l 932 214 l 932 1101 l 976 1101 m 660 1006 q 589 741 660 864 q 392 524 518 618 q 100 371 265 429 l 79 411 q 467 647 319 493 q 614 996 614 800 l 614 1006 l 660 1006 m 632 1006 l 632 965 l 125 965 l 125 1006 l 632 1006 m 1042 -15 l 1042 -56 l 264 -56 l 264 -15 l 1042 -15 m 307 304 l 307 -25 l 264 -25 l 264 304 l 307 304 z "},"갽":{"ha":1214,"x_min":0,"x_max":0,"o":""},"갾":{"ha":1214,"x_min":0,"x_max":0,"o":""},"갿":{"ha":1214,"x_min":0,"x_max":0,"o":""},"걀":{"ha":1214,"x_min":78,"x_max":1171,"o":"m 1171 922 l 1171 882 l 964 882 l 964 922 l 1171 922 m 1171 685 l 1171 646 l 964 646 l 964 685 l 1171 685 m 976 1101 l 976 485 l 932 485 l 932 1101 l 976 1101 m 657 1029 q 506 676 657 825 q 99 457 354 526 l 78 496 q 467 697 324 561 q 611 1017 611 832 l 611 1029 l 657 1029 m 629 1029 l 629 988 l 122 988 l 122 1029 l 629 1029 m 976 422 l 976 163 l 299 163 l 299 -65 l 257 -65 l 257 203 l 933 203 l 933 383 l 253 383 l 253 422 l 976 422 m 1028 -37 l 1028 -76 l 257 -76 l 257 -37 l 1028 -37 z "},"걁":{"ha":1214,"x_min":0,"x_max":0,"o":""},"걂":{"ha":1214,"x_min":0,"x_max":0,"o":""},"걃":{"ha":1214,"x_min":0,"x_max":0,"o":""},"걄":{"ha":1214,"x_min":0,"x_max":0,"o":""},"걅":{"ha":1214,"x_min":0,"x_max":0,"o":""},"걆":{"ha":1214,"x_min":0,"x_max":0,"o":""},"걇":{"ha":1214,"x_min":0,"x_max":0,"o":""},"걈":{"ha":1214,"x_min":0,"x_max":0,"o":""},"걉":{"ha":1214,"x_min":0,"x_max":0,"o":""},"걊":{"ha":1214,"x_min":0,"x_max":0,"o":""},"걋":{"ha":1214,"x_min":82,"x_max":1172,"o":"m 1172 871 l 1172 831 l 965 831 l 965 871 l 1172 871 m 1172 579 l 1172 539 l 965 539 l 965 579 l 1172 579 m 976 1101 l 976 306 l 932 306 l 932 1101 l 976 1101 m 660 1006 q 510 631 660 793 q 103 385 360 468 l 82 421 q 472 651 328 500 q 615 996 615 801 l 615 1006 l 660 1006 m 633 1006 l 633 965 l 126 965 l 126 1006 l 633 1006 m 654 399 l 654 329 q 586 134 654 218 q 418 -3 518 50 q 213 -83 318 -57 l 193 -47 q 385 24 288 -26 q 549 152 482 74 q 615 329 615 231 l 615 399 l 654 399 m 658 399 l 658 329 q 725 155 658 232 q 888 28 792 78 q 1079 -43 985 -22 l 1054 -78 q 853 0 951 -53 q 688 136 754 53 q 621 329 621 219 l 621 399 l 658 399 z "},"걌":{"ha":1214,"x_min":0,"x_max":0,"o":""},"걍":{"ha":1214,"x_min":79,"x_max":1171,"o":"m 1171 885 l 1171 846 l 964 846 l 964 885 l 1171 885 m 1171 617 l 1171 578 l 964 578 l 964 617 l 1171 617 m 976 1101 l 976 365 l 932 365 l 932 1101 l 976 1101 m 661 1003 q 510 629 661 790 q 100 388 358 468 l 79 425 q 470 651 325 503 q 615 992 615 799 l 615 1003 l 661 1003 m 633 1003 l 633 963 l 126 963 l 126 1003 l 633 1003 m 617 353 q 816 326 732 353 q 945 251 900 300 q 990 133 990 201 q 945 17 990 65 q 816 -56 900 -31 q 617 -82 732 -82 q 417 -56 501 -82 q 288 17 333 -31 q 243 133 243 65 q 288 251 243 201 q 417 326 333 300 q 617 353 501 353 m 617 313 q 444 290 519 313 q 328 228 369 268 q 286 133 286 188 q 328 42 286 82 q 444 -21 369 1 q 617 -43 519 -43 q 790 -21 715 -43 q 907 42 865 1 q 949 133 949 82 q 907 228 949 188 q 790 290 865 268 q 617 313 715 313 z "},"걎":{"ha":1214,"x_min":0,"x_max":0,"o":""},"걏":{"ha":1214,"x_min":0,"x_max":0,"o":""},"걐":{"ha":1214,"x_min":0,"x_max":0,"o":""},"걑":{"ha":1214,"x_min":0,"x_max":0,"o":""},"걒":{"ha":1214,"x_min":0,"x_max":0,"o":""},"걓":{"ha":1214,"x_min":0,"x_max":0,"o":""},"걔":{"ha":1214,"x_min":82,"x_max":1063,"o":"m 1040 767 l 1040 726 l 778 726 l 778 767 l 1040 767 m 1040 429 l 1040 389 l 778 389 l 778 429 l 1040 429 m 1063 1101 l 1063 -89 l 1018 -89 l 1018 1101 l 1063 1101 m 568 939 q 524 653 568 792 q 376 392 479 515 q 108 178 274 268 l 82 214 q 338 414 239 297 q 481 663 436 531 q 525 935 525 794 l 525 939 l 568 939 m 547 939 l 547 899 l 113 899 l 113 939 l 547 939 m 799 1068 l 799 -22 l 754 -22 l 754 1068 l 799 1068 z "},"걕":{"ha":1214,"x_min":0,"x_max":0,"o":""},"걖":{"ha":1214,"x_min":0,"x_max":0,"o":""},"걗":{"ha":1214,"x_min":0,"x_max":0,"o":""},"걘":{"ha":1214,"x_min":90,"x_max":1099,"o":"m 1039 853 l 1039 814 l 778 814 l 778 853 l 1039 853 m 1039 557 l 1039 518 l 778 518 l 778 557 l 1039 557 m 1057 1100 l 1057 213 l 1014 213 l 1014 1100 l 1057 1100 m 797 1078 l 797 257 l 753 257 l 753 1078 l 797 1078 m 585 982 q 461 617 585 783 q 117 350 338 451 l 90 385 q 421 633 301 478 q 540 976 540 789 l 540 982 l 585 982 m 563 982 l 563 943 l 129 943 l 129 982 l 563 982 m 1099 -3 l 1099 -42 l 307 -42 l 307 -3 l 1099 -3 m 351 325 l 351 -17 l 307 -17 l 307 325 l 351 325 z "},"걙":{"ha":1214,"x_min":0,"x_max":0,"o":""},"걚":{"ha":1214,"x_min":0,"x_max":0,"o":""},"걛":{"ha":1214,"x_min":0,"x_max":0,"o":""},"걜":{"ha":1214,"x_min":93,"x_max":1111,"o":"m 1039 910 l 1039 871 l 778 871 l 778 910 l 1039 910 m 1039 683 l 1039 644 l 778 644 l 778 683 l 1039 683 m 1057 1100 l 1057 476 l 1014 476 l 1014 1100 l 1057 1100 m 799 1076 l 799 486 l 754 486 l 754 1076 l 799 1076 m 586 1028 q 463 683 586 835 q 117 442 339 531 l 93 478 q 423 701 304 560 q 542 1021 542 842 l 542 1028 l 586 1028 m 564 1028 l 564 988 l 131 988 l 131 1028 l 564 1028 m 1057 408 l 1057 151 l 344 151 l 344 -68 l 301 -68 l 301 192 l 1015 192 l 1015 368 l 297 368 l 297 408 l 1057 408 m 1111 -42 l 1111 -82 l 301 -82 l 301 -42 l 1111 -42 z "},"걝":{"ha":1214,"x_min":0,"x_max":0,"o":""},"걞":{"ha":1214,"x_min":0,"x_max":0,"o":""},"걟":{"ha":1214,"x_min":0,"x_max":0,"o":""},"걠":{"ha":1214,"x_min":0,"x_max":0,"o":""},"걡":{"ha":1214,"x_min":0,"x_max":0,"o":""},"걢":{"ha":1214,"x_min":0,"x_max":0,"o":""},"걣":{"ha":1214,"x_min":0,"x_max":0,"o":""},"걤":{"ha":1214,"x_min":0,"x_max":0,"o":""},"걥":{"ha":1214,"x_min":92,"x_max":1056,"o":"m 1039 907 l 1039 867 l 776 867 l 776 907 l 1039 907 m 1039 671 l 1039 629 l 776 629 l 776 671 l 1039 671 m 1056 1100 l 1056 451 l 1013 451 l 1013 1100 l 1056 1100 m 797 1076 l 797 460 l 753 460 l 753 1076 l 797 1076 m 586 1013 q 464 660 586 815 q 117 414 342 506 l 92 450 q 422 679 304 535 q 540 1006 540 824 l 540 1013 l 586 1013 m 563 1013 l 563 974 l 131 974 l 131 1013 l 563 1013 m 350 393 l 350 217 l 1014 217 l 1014 393 l 1056 393 l 1056 -69 l 306 -69 l 306 393 l 350 393 m 350 -29 l 1014 -29 l 1014 176 l 350 176 l 350 -29 z "},"걦":{"ha":1214,"x_min":0,"x_max":0,"o":""},"걧":{"ha":1214,"x_min":0,"x_max":0,"o":""},"걨":{"ha":1214,"x_min":0,"x_max":0,"o":""},"걩":{"ha":1214,"x_min":0,"x_max":0,"o":""},"걪":{"ha":1214,"x_min":0,"x_max":0,"o":""},"걫":{"ha":1214,"x_min":0,"x_max":0,"o":""},"걬":{"ha":1214,"x_min":0,"x_max":0,"o":""},"걭":{"ha":1214,"x_min":0,"x_max":0,"o":""},"걮":{"ha":1214,"x_min":0,"x_max":0,"o":""},"걯":{"ha":1214,"x_min":0,"x_max":0,"o":""},"거":{"ha":1214,"x_min":79,"x_max":1024,"o":"m 1024 1101 l 1024 -89 l 981 -89 l 981 1101 l 1024 1101 m 994 603 l 994 563 l 654 563 l 654 603 l 994 603 m 653 968 q 594 656 653 806 q 413 379 535 507 q 108 160 292 251 l 79 194 q 373 400 254 279 q 551 665 492 521 q 610 964 610 808 l 610 968 l 653 968 m 632 968 l 632 928 l 125 928 l 125 968 l 632 968 z "},"걱":{"ha":1214,"x_min":86,"x_max":1026,"o":"m 671 1015 q 519 651 671 807 q 108 419 367 496 l 86 456 q 478 672 332 529 q 624 1006 624 815 l 624 1015 l 671 1015 m 651 1015 l 651 976 l 143 976 l 143 1015 l 651 1015 m 1026 338 l 1026 -87 l 982 -87 l 982 297 l 250 297 l 250 338 l 1026 338 m 1026 1100 l 1026 394 l 982 394 l 982 1100 l 1026 1100 m 997 765 l 997 725 l 668 725 l 668 765 l 997 765 z "},"걲":{"ha":1214,"x_min":0,"x_max":0,"o":""},"걳":{"ha":1214,"x_min":0,"x_max":0,"o":""},"건":{"ha":1214,"x_min":89,"x_max":1057,"o":"m 1026 1100 l 1026 213 l 982 213 l 982 1100 l 1026 1100 m 1000 713 l 1000 672 l 671 672 l 671 713 l 1000 713 m 669 1006 q 599 740 669 864 q 401 522 528 617 q 110 369 275 428 l 89 408 q 476 646 329 492 q 622 996 622 800 l 622 1006 l 669 1006 m 653 1006 l 653 965 l 146 965 l 146 1006 l 653 1006 m 1057 -15 l 1057 -56 l 304 -56 l 304 -15 l 1057 -15 m 349 304 l 349 -25 l 304 -25 l 304 304 l 349 304 z "},"걵":{"ha":1214,"x_min":0,"x_max":0,"o":""},"걶":{"ha":1214,"x_min":0,"x_max":0,"o":""},"걷":{"ha":1214,"x_min":88,"x_max":1049,"o":"m 671 1015 q 517 651 671 807 q 104 419 364 496 l 88 456 q 479 672 333 529 q 625 1006 625 815 l 625 1015 l 671 1015 m 651 1015 l 651 976 l 143 976 l 143 1015 l 651 1015 m 1026 1100 l 1026 414 l 982 414 l 982 1100 l 1026 1100 m 997 754 l 997 715 l 669 715 l 669 754 l 997 754 m 1029 336 l 1029 296 l 322 296 l 322 -46 l 278 -46 l 278 336 l 1029 336 m 1049 -29 l 1049 -69 l 278 -69 l 278 -29 l 1049 -29 z "},"걸":{"ha":1214,"x_min":89,"x_max":1082,"o":"m 1026 1101 l 1026 478 l 982 478 l 982 1101 l 1026 1101 m 996 781 l 996 742 l 672 742 l 672 781 l 996 781 m 668 1029 q 516 676 668 825 q 107 457 364 526 l 89 496 q 478 697 333 561 q 622 1018 622 832 l 622 1029 l 668 1029 m 653 1029 l 653 988 l 146 988 l 146 1029 l 653 1029 m 1026 418 l 1026 164 l 329 164 l 329 -69 l 288 -69 l 288 203 l 983 203 l 983 378 l 283 378 l 283 418 l 1026 418 m 1082 -37 l 1082 -76 l 288 -76 l 288 -37 l 1082 -37 z "},"걹":{"ha":1214,"x_min":0,"x_max":0,"o":""},"걺":{"ha":1214,"x_min":86,"x_max":1026,"o":"m 1026 1101 l 1026 458 l 982 458 l 982 1101 l 1026 1101 m 990 789 l 990 749 l 668 749 l 668 789 l 990 789 m 667 1029 q 515 675 667 825 q 106 456 363 525 l 86 493 q 476 697 332 561 q 621 1018 621 832 l 621 1029 l 667 1029 m 651 1029 l 651 988 l 143 988 l 143 1029 l 651 1029 m 581 400 l 581 157 l 263 157 l 263 -53 l 219 -53 l 219 196 l 538 196 l 538 358 l 215 358 l 215 400 l 581 400 m 1026 400 l 1026 -69 l 669 -69 l 669 400 l 1026 400 m 714 360 l 714 -31 l 983 -31 l 983 360 l 714 360 m 272 -28 q 464 -24 392 -28 q 617 -4 536 -19 l 622 -44 q 467 -65 540 -60 q 272 -69 394 -69 l 219 -69 l 219 -28 l 272 -28 z "},"걻":{"ha":1214,"x_min":0,"x_max":0,"o":""},"걼":{"ha":1214,"x_min":0,"x_max":0,"o":""},"걽":{"ha":1214,"x_min":0,"x_max":0,"o":""},"걾":{"ha":1214,"x_min":0,"x_max":0,"o":""},"걿":{"ha":1214,"x_min":0,"x_max":0,"o":""},"검":{"ha":1214,"x_min":86,"x_max":1026,"o":"m 671 1015 q 519 651 671 807 q 108 419 367 496 l 86 456 q 478 672 332 529 q 624 1006 624 815 l 624 1015 l 671 1015 m 651 1015 l 651 976 l 143 976 l 143 1015 l 651 1015 m 1026 1100 l 1026 408 l 982 408 l 982 1100 l 1026 1100 m 997 769 l 997 729 l 668 729 l 668 769 l 997 769 m 1026 356 l 1026 -68 l 276 -68 l 276 356 l 1026 356 m 319 317 l 319 -28 l 983 -28 l 983 317 l 319 317 z "},"겁":{"ha":1214,"x_min":86,"x_max":1025,"o":"m 1025 1101 l 1025 464 l 982 464 l 982 1101 l 1025 1101 m 994 776 l 994 736 l 671 736 l 671 776 l 994 776 m 669 1021 q 517 665 669 815 q 106 444 364 514 l 86 483 q 478 685 332 549 q 624 1008 624 822 l 624 1021 l 669 1021 m 653 1021 l 653 981 l 144 981 l 144 1021 l 653 1021 m 324 397 l 324 211 l 982 211 l 982 397 l 1025 397 l 1025 -69 l 279 -69 l 279 397 l 324 397 m 324 -31 l 982 -31 l 982 172 l 324 172 l 324 -31 z "},"겂":{"ha":1214,"x_min":0,"x_max":0,"o":""},"것":{"ha":1214,"x_min":93,"x_max":1103,"o":"m 1026 1100 l 1026 279 l 982 279 l 982 1100 l 1026 1100 m 1003 744 l 1003 704 l 674 704 l 674 744 l 1003 744 m 672 1003 q 601 741 672 863 q 403 528 529 619 q 114 382 278 436 l 93 419 q 479 649 332 499 q 626 993 626 800 l 626 1003 l 672 1003 m 654 1003 l 654 963 l 146 963 l 146 1003 l 654 1003 m 678 396 l 678 328 q 610 132 678 217 q 442 -6 542 47 q 236 -85 342 -58 l 217 -49 q 408 22 311 -28 q 572 151 506 72 q 639 328 639 229 l 639 396 l 678 396 m 683 396 l 683 328 q 749 153 683 231 q 912 26 815 76 q 1103 -44 1008 -24 l 1081 -81 q 878 -3 976 -56 q 712 134 779 50 q 644 328 644 218 l 644 396 l 683 396 z "},"겄":{"ha":1214,"x_min":89,"x_max":1139,"o":"m 674 1015 q 521 651 674 807 q 110 419 368 496 l 89 456 q 481 672 335 529 q 626 1006 626 815 l 626 1015 l 674 1015 m 661 1015 l 661 976 l 154 976 l 154 1015 l 661 1015 m 1028 1100 l 1028 408 l 983 408 l 983 1100 l 1028 1100 m 1003 772 l 1003 732 l 675 732 l 675 772 l 1003 772 m 433 385 l 433 268 q 398 137 433 204 q 301 14 363 69 q 161 -74 239 -42 l 138 -37 q 267 41 208 -10 q 360 152 325 92 q 394 268 394 213 l 394 385 l 433 385 m 436 385 l 436 268 q 497 83 436 172 q 660 -46 558 -6 l 638 -83 q 463 61 526 -37 q 399 268 399 160 l 399 385 l 436 385 m 878 385 l 878 268 q 849 140 878 210 q 765 10 819 71 q 638 -83 710 -50 l 617 -46 q 733 40 682 -15 q 813 156 785 94 q 840 268 840 217 l 840 385 l 878 385 m 882 385 l 882 268 q 916 147 882 208 q 1009 38 950 86 q 1139 -37 1068 -11 l 1115 -74 q 919 68 996 -28 q 843 268 843 164 l 843 385 l 882 385 z "},"겅":{"ha":1214,"x_min":88,"x_max":1031,"o":"m 1026 1100 l 1026 358 l 982 358 l 982 1100 l 1026 1100 m 997 735 l 997 694 l 669 694 l 669 735 l 997 735 m 672 1003 q 600 742 672 863 q 401 531 528 621 q 110 388 274 440 l 88 425 q 366 558 244 475 q 557 752 488 642 q 626 992 626 863 l 626 1003 l 672 1003 m 653 1003 l 653 963 l 144 963 l 144 1003 l 653 1003 m 647 349 q 853 323 767 349 q 985 249 939 297 q 1031 132 1031 200 q 985 15 1031 64 q 853 -58 939 -33 q 647 -83 767 -83 q 441 -58 528 -83 q 308 15 354 -33 q 263 132 263 64 q 308 249 263 200 q 441 323 354 297 q 647 349 528 349 m 647 308 q 469 287 546 308 q 349 225 392 265 q 306 132 306 185 q 349 40 306 79 q 469 -22 392 0 q 647 -44 546 -44 q 826 -22 749 -44 q 945 40 903 0 q 988 132 988 79 q 894 260 988 213 q 647 308 801 308 z "},"겆":{"ha":1214,"x_min":97,"x_max":1090,"o":"m 692 1015 q 536 649 692 806 q 118 418 381 493 l 97 456 q 497 670 347 526 q 646 1004 646 814 l 646 1015 l 692 1015 m 653 1015 l 653 976 l 144 976 l 144 1015 l 653 1015 m 1026 1100 l 1026 401 l 982 401 l 982 1100 l 1026 1100 m 685 321 l 685 278 q 620 113 685 188 q 459 -12 556 39 q 265 -86 363 -62 l 244 -50 q 425 16 332 -31 q 582 131 518 63 q 646 278 646 199 l 646 321 l 685 321 m 689 321 l 689 278 q 753 131 689 200 q 910 16 817 63 q 1090 -50 1003 -31 l 1069 -86 q 876 -12 972 -62 q 716 113 781 39 q 651 278 651 188 l 651 321 l 689 321 m 1047 332 l 1047 292 l 288 292 l 288 332 l 1047 332 m 1001 764 l 1001 724 l 672 724 l 672 764 l 1001 764 z "},"겇":{"ha":1214,"x_min":0,"x_max":0,"o":""},"겈":{"ha":1214,"x_min":0,"x_max":0,"o":""},"겉":{"ha":1214,"x_min":88,"x_max":1056,"o":"m 1031 390 l 1031 351 l 333 351 l 333 -54 l 290 -54 l 290 390 l 1031 390 m 1056 -29 l 1056 -69 l 290 -69 l 290 -29 l 1056 -29 m 1017 185 l 1017 144 l 314 144 l 314 185 l 1017 185 m 1026 1101 l 1026 440 l 982 440 l 982 1101 l 1026 1101 m 1001 771 l 1001 731 l 679 731 l 679 771 l 1001 771 m 671 1014 q 519 653 671 807 q 106 429 367 500 l 88 468 q 479 674 335 535 q 624 1003 624 814 l 624 1014 l 671 1014 m 653 1014 l 653 975 l 144 975 l 144 1014 l 653 1014 z "},"겊":{"ha":1214,"x_min":89,"x_max":1051,"o":"m 672 1014 q 601 759 672 875 q 403 558 531 643 q 107 425 275 472 l 89 464 q 479 674 333 533 q 625 1004 625 815 l 625 1014 l 672 1014 m 651 1014 l 651 975 l 143 975 l 143 1014 l 651 1014 m 1026 1100 l 1026 414 l 982 414 l 982 1100 l 1026 1100 m 997 767 l 997 726 l 669 726 l 669 767 l 997 767 m 1038 351 l 1038 311 l 260 311 l 260 351 l 1038 351 m 1051 -29 l 1051 -69 l 250 -69 l 250 -29 l 1051 -29 m 494 336 l 494 -42 l 451 -42 l 451 336 l 494 336 m 846 336 l 846 -42 l 801 -42 l 801 336 l 846 336 z "},"겋":{"ha":1214,"x_min":89,"x_max":1063,"o":"m 669 1021 q 600 767 669 883 q 404 567 531 651 q 108 436 278 483 l 89 475 q 478 682 333 543 q 622 1008 622 821 l 622 1021 l 669 1021 m 653 1021 l 653 981 l 146 981 l 146 1021 l 653 1021 m 1026 1101 l 1026 464 l 982 464 l 982 1101 l 1026 1101 m 997 789 l 997 749 l 668 749 l 668 789 l 997 789 m 1063 360 l 1063 321 l 242 321 l 242 360 l 1063 360 m 653 249 q 891 205 806 249 q 976 82 976 161 q 890 -40 976 3 q 653 -83 804 -83 q 415 -40 501 -83 q 329 82 329 3 q 415 205 329 161 q 653 249 500 249 m 653 211 q 449 176 525 211 q 372 82 372 140 q 448 -12 372 22 q 653 -46 524 -46 q 857 -11 781 -46 q 933 82 933 24 q 856 176 933 140 q 653 211 779 211 m 676 518 l 676 329 l 632 329 l 632 518 l 676 518 z "},"게":{"ha":1214,"x_min":82,"x_max":1063,"o":"m 1063 1101 l 1063 -89 l 1018 -89 l 1018 1101 l 1063 1101 m 803 583 l 803 544 l 456 544 l 456 583 l 803 583 m 818 1065 l 818 -19 l 775 -19 l 775 1065 l 818 1065 m 568 939 q 517 656 568 796 q 363 393 465 517 q 111 178 261 269 l 82 214 q 323 415 224 299 q 474 665 422 532 q 525 935 525 799 l 525 939 l 568 939 m 551 939 l 551 899 l 118 899 l 118 939 l 551 939 z "},"겍":{"ha":1214,"x_min":0,"x_max":0,"o":""},"겎":{"ha":1214,"x_min":0,"x_max":0,"o":""},"겏":{"ha":1214,"x_min":0,"x_max":0,"o":""},"겐":{"ha":1214,"x_min":90,"x_max":1097,"o":"m 1057 1100 l 1057 199 l 1014 199 l 1014 1100 l 1057 1100 m 818 699 l 818 658 l 483 658 l 483 699 l 818 699 m 826 1075 l 826 235 l 783 235 l 783 1075 l 826 1075 m 590 982 q 465 616 590 782 q 117 350 340 450 l 90 385 q 426 633 304 478 q 547 976 547 789 l 547 982 l 590 982 m 563 982 l 563 943 l 129 943 l 129 982 l 563 982 m 1097 -15 l 1097 -56 l 306 -56 l 306 -15 l 1097 -15 m 350 313 l 350 -31 l 306 -31 l 306 313 l 350 313 z "},"겑":{"ha":1214,"x_min":0,"x_max":0,"o":""},"겒":{"ha":1214,"x_min":0,"x_max":0,"o":""},"겓":{"ha":1214,"x_min":0,"x_max":0,"o":""},"겔":{"ha":1214,"x_min":93,"x_max":1111,"o":"m 1057 1100 l 1057 476 l 1014 476 l 1014 1100 l 1057 1100 m 818 788 l 818 747 l 500 747 l 500 788 l 818 788 m 826 1074 l 826 486 l 783 486 l 783 1074 l 826 1074 m 592 1029 q 467 682 592 833 q 118 444 342 531 l 93 478 q 428 699 308 558 q 549 1021 549 840 l 549 1029 l 592 1029 m 564 1029 l 564 988 l 131 988 l 131 1029 l 564 1029 m 1057 408 l 1057 160 l 344 160 l 344 -56 l 301 -56 l 301 200 l 1015 200 l 1015 368 l 297 368 l 297 408 l 1057 408 m 1111 -29 l 1111 -69 l 301 -69 l 301 -29 l 1111 -29 z "},"겕":{"ha":1214,"x_min":0,"x_max":0,"o":""},"겖":{"ha":1214,"x_min":0,"x_max":0,"o":""},"겗":{"ha":1214,"x_min":0,"x_max":0,"o":""},"겘":{"ha":1214,"x_min":0,"x_max":0,"o":""},"겙":{"ha":1214,"x_min":0,"x_max":0,"o":""},"겚":{"ha":1214,"x_min":0,"x_max":0,"o":""},"겛":{"ha":1214,"x_min":0,"x_max":0,"o":""},"겜":{"ha":1214,"x_min":92,"x_max":1056,"o":"m 590 1007 q 464 649 590 810 q 117 390 338 488 l 92 425 q 425 665 303 514 q 547 1000 547 815 l 547 1007 l 590 1007 m 561 1007 l 561 967 l 129 967 l 129 1007 l 561 1007 m 1056 351 l 1056 -68 l 301 -68 l 301 351 l 1056 351 m 344 313 l 344 -28 l 1014 -28 l 1014 313 l 344 313 m 1056 1100 l 1056 414 l 1013 414 l 1013 1100 l 1056 1100 m 811 754 l 811 715 l 500 715 l 500 754 l 811 754 m 825 1074 l 825 431 l 782 431 l 782 1074 l 825 1074 z "},"겝":{"ha":1214,"x_min":90,"x_max":1056,"o":"m 589 1013 q 533 766 589 881 q 371 560 478 651 q 114 407 264 468 l 90 442 q 335 583 233 499 q 492 776 438 668 q 546 1007 546 883 l 546 1013 l 589 1013 m 563 1013 l 563 974 l 131 974 l 131 1013 l 563 1013 m 350 390 l 350 214 l 1014 214 l 1014 390 l 1056 390 l 1056 -71 l 306 -71 l 306 390 l 350 390 m 350 -32 l 1014 -32 l 1014 174 l 350 174 l 350 -32 m 1056 1100 l 1056 446 l 1013 446 l 1013 1100 l 1056 1100 m 806 758 l 806 717 l 501 717 l 501 758 l 806 758 m 825 1074 l 825 454 l 782 454 l 782 1074 l 825 1074 z "},"겞":{"ha":1214,"x_min":0,"x_max":0,"o":""},"겟":{"ha":1214,"x_min":92,"x_max":1129,"o":"m 1057 1100 l 1057 290 l 1014 290 l 1014 1100 l 1057 1100 m 808 724 l 808 683 l 503 683 l 503 724 l 808 724 m 826 1072 l 826 393 l 783 393 l 783 1072 l 826 1072 m 589 981 q 464 616 589 781 q 117 350 339 451 l 92 385 q 425 633 304 478 q 546 976 546 788 l 546 981 l 589 981 m 563 981 l 563 942 l 131 942 l 131 981 l 563 981 m 693 371 l 693 303 q 622 123 693 203 q 449 -8 551 43 q 244 -82 346 -60 l 226 -46 q 415 20 315 -28 q 585 141 515 68 q 656 303 656 214 l 656 371 l 693 371 m 700 371 l 700 303 q 770 141 700 214 q 940 20 840 68 q 1129 -46 1040 -28 l 1111 -82 q 906 -8 1010 -60 q 732 123 803 43 q 661 303 661 203 l 661 371 l 700 371 z "},"겠":{"ha":1214,"x_min":92,"x_max":1153,"o":"m 590 1007 q 464 649 590 810 q 117 389 338 488 l 92 425 q 425 665 303 514 q 547 1000 547 815 l 547 1007 l 590 1007 m 563 1007 l 563 967 l 131 967 l 131 1007 l 563 1007 m 1057 1100 l 1057 401 l 1014 401 l 1014 1100 l 1057 1100 m 808 733 l 808 693 l 485 693 l 485 733 l 808 733 m 826 1072 l 826 424 l 783 424 l 783 1072 l 826 1072 m 450 357 l 450 253 q 414 121 450 189 q 316 -3 378 53 q 178 -90 254 -58 l 154 -54 q 283 24 224 -28 q 378 136 343 75 q 413 253 413 197 l 413 357 l 450 357 m 454 357 l 454 253 q 514 67 454 156 q 676 -62 574 -21 l 654 -100 q 480 46 543 -53 q 417 253 417 144 l 417 357 l 454 357 m 892 357 l 892 253 q 863 125 892 194 q 781 -5 835 56 q 654 -100 726 -65 l 632 -62 q 749 23 699 -32 q 827 140 800 78 q 854 253 854 201 l 854 357 l 892 357 m 896 357 l 896 253 q 930 131 896 192 q 1023 20 964 69 q 1153 -54 1082 -29 l 1131 -90 q 991 -6 1053 -60 q 894 117 929 49 q 858 253 858 185 l 858 357 l 896 357 z "},"겡":{"ha":1214,"x_min":90,"x_max":1074,"o":"m 589 992 q 463 632 589 793 q 115 374 336 471 l 90 408 q 424 649 301 499 q 546 985 546 800 l 546 992 l 589 992 m 561 992 l 561 951 l 129 951 l 129 992 l 561 992 m 1056 1100 l 1056 353 l 1013 353 l 1013 1100 l 1056 1100 m 817 732 l 817 692 l 492 692 l 492 732 l 817 732 m 826 1072 l 826 399 l 783 399 l 783 1072 l 826 1072 m 679 336 q 890 311 801 336 q 1026 240 979 286 q 1074 126 1074 193 q 1026 13 1074 60 q 890 -59 979 -35 q 679 -83 801 -83 q 467 -59 556 -83 q 331 13 378 -35 q 285 126 285 60 q 331 240 285 193 q 467 312 378 288 q 679 336 556 336 m 679 297 q 495 276 575 297 q 372 216 415 254 q 328 126 328 178 q 424 2 328 49 q 679 -44 521 -44 q 933 2 838 -44 q 1029 126 1029 49 q 985 216 1029 178 q 863 276 942 254 q 679 297 783 297 z "},"겢":{"ha":1214,"x_min":0,"x_max":0,"o":""},"겣":{"ha":1214,"x_min":0,"x_max":0,"o":""},"겤":{"ha":1214,"x_min":0,"x_max":0,"o":""},"겥":{"ha":1214,"x_min":0,"x_max":0,"o":""},"겦":{"ha":1214,"x_min":0,"x_max":0,"o":""},"겧":{"ha":1214,"x_min":0,"x_max":0,"o":""},"겨":{"ha":1214,"x_min":81,"x_max":1024,"o":"m 658 968 q 521 506 658 718 q 106 158 383 293 l 81 194 q 377 399 257 278 q 557 664 497 519 q 617 964 617 808 l 617 968 l 658 968 m 632 968 l 632 928 l 125 928 l 125 968 l 632 968 m 1024 1104 l 1024 -86 l 981 -86 l 981 1104 l 1024 1104 m 1000 754 l 1000 714 l 617 714 l 617 754 l 1000 754 m 986 442 l 986 400 l 603 400 l 603 442 l 986 442 z "},"격":{"ha":1214,"x_min":89,"x_max":1026,"o":"m 678 1015 q 524 650 678 806 q 110 419 369 494 l 89 456 q 483 672 336 528 q 631 1006 631 815 l 631 1015 l 678 1015 m 651 1015 l 651 976 l 143 976 l 143 1015 l 651 1015 m 1026 332 l 1026 -87 l 982 -87 l 982 292 l 250 292 l 250 332 l 1026 332 m 1026 1100 l 1026 389 l 982 389 l 982 1100 l 1026 1100 m 997 867 l 997 826 l 638 826 l 638 867 l 997 867 m 990 617 l 990 575 l 625 575 l 625 617 l 990 617 z "},"겪":{"ha":1214,"x_min":88,"x_max":1026,"o":"m 676 1015 q 522 650 676 806 q 108 419 368 494 l 88 456 q 482 672 335 528 q 629 1006 629 815 l 629 1015 l 676 1015 m 651 1015 l 651 976 l 143 976 l 143 1015 l 651 1015 m 601 338 l 601 -87 l 557 -87 l 557 297 l 229 297 l 229 338 l 601 338 m 1026 1100 l 1026 401 l 982 401 l 982 1100 l 1026 1100 m 1026 338 l 1026 -87 l 982 -87 l 982 297 l 664 297 l 664 338 l 1026 338 m 994 864 l 994 824 l 635 824 l 635 864 l 994 864 m 988 615 l 988 574 l 622 574 l 622 615 l 988 615 z "},"겫":{"ha":1214,"x_min":0,"x_max":0,"o":""},"견":{"ha":1214,"x_min":90,"x_max":1057,"o":"m 1028 1100 l 1028 206 l 982 206 l 982 1100 l 1028 1100 m 675 1004 q 603 738 675 863 q 406 520 532 614 q 113 368 279 426 l 90 407 q 369 548 247 461 q 559 749 490 635 q 628 994 628 864 l 628 1004 l 675 1004 m 653 1004 l 653 964 l 146 964 l 146 1004 l 653 1004 m 990 839 l 990 799 l 631 799 l 631 839 l 990 839 m 992 572 l 992 532 l 619 532 l 619 572 l 992 572 m 1057 -15 l 1057 -56 l 304 -56 l 304 -15 l 1057 -15 m 349 293 l 349 -36 l 304 -36 l 304 293 l 349 293 z "},"겭":{"ha":1214,"x_min":0,"x_max":0,"o":""},"겮":{"ha":1214,"x_min":0,"x_max":0,"o":""},"겯":{"ha":1214,"x_min":90,"x_max":1049,"o":"m 676 1015 q 523 651 676 807 q 110 419 369 494 l 90 456 q 483 672 336 528 q 629 1006 629 815 l 629 1015 l 676 1015 m 651 1015 l 651 976 l 143 976 l 143 1015 l 651 1015 m 996 875 l 996 835 l 636 835 l 636 875 l 996 875 m 989 628 l 989 586 l 622 586 l 622 628 l 989 628 m 1026 1100 l 1026 414 l 982 414 l 982 1100 l 1026 1100 m 1029 336 l 1029 296 l 322 296 l 322 -46 l 278 -46 l 278 336 l 1029 336 m 1049 -29 l 1049 -69 l 278 -69 l 278 -29 l 1049 -29 z "},"결":{"ha":1214,"x_min":92,"x_max":1082,"o":"m 1026 1101 l 1026 485 l 982 485 l 982 1101 l 1026 1101 m 675 1029 q 522 675 675 824 q 111 457 368 526 l 92 496 q 483 696 338 561 q 628 1017 628 831 l 628 1029 l 675 1029 m 654 1029 l 654 988 l 146 988 l 146 1029 l 654 1029 m 996 904 l 996 864 l 636 864 l 636 904 l 996 904 m 989 681 l 989 640 l 622 640 l 622 681 l 989 681 m 1026 418 l 1026 164 l 329 164 l 329 -69 l 288 -69 l 288 203 l 983 203 l 983 378 l 283 378 l 283 418 l 1026 418 m 1082 -37 l 1082 -76 l 288 -76 l 288 -37 l 1082 -37 z "},"겱":{"ha":1214,"x_min":0,"x_max":0,"o":""},"겲":{"ha":1214,"x_min":0,"x_max":0,"o":""},"겳":{"ha":1214,"x_min":0,"x_max":0,"o":""},"겴":{"ha":1214,"x_min":0,"x_max":0,"o":""},"겵":{"ha":1214,"x_min":0,"x_max":0,"o":""},"겶":{"ha":1214,"x_min":0,"x_max":0,"o":""},"겷":{"ha":1214,"x_min":92,"x_max":1101,"o":"m 1026 1101 l 1026 478 l 982 478 l 982 1101 l 1026 1101 m 1101 335 l 1101 294 l 619 294 l 619 335 l 1101 335 m 858 228 q 1004 185 947 228 q 1061 72 1061 143 q 1004 -42 1061 1 q 858 -85 947 -85 q 714 -42 771 -85 q 657 72 657 1 q 714 185 657 143 q 858 228 771 228 m 858 192 q 743 158 788 192 q 699 72 699 124 q 743 -15 699 19 q 858 -49 788 -49 q 975 -15 931 -49 q 1019 72 1019 19 q 974 158 1019 124 q 858 192 929 192 m 882 464 l 882 314 l 838 314 l 838 464 l 882 464 m 569 399 l 569 163 l 250 163 l 250 -42 l 207 -42 l 207 201 l 526 201 l 526 358 l 203 358 l 203 399 l 569 399 m 263 -29 q 465 -25 389 -29 q 622 -6 540 -21 l 628 -44 q 467 -65 543 -60 q 263 -69 390 -69 l 207 -69 l 207 -29 l 263 -29 m 675 1031 q 603 783 675 894 q 405 592 532 671 q 111 471 278 513 l 92 510 q 481 703 335 571 q 628 1019 628 835 l 628 1031 l 675 1031 m 654 1031 l 654 990 l 146 990 l 146 1031 l 654 1031 m 996 907 l 996 867 l 636 867 l 636 907 l 996 907 m 989 682 l 989 643 l 622 643 l 622 682 l 989 682 z "},"겸":{"ha":1214,"x_min":88,"x_max":1026,"o":"m 994 868 l 994 828 l 635 828 l 635 868 l 994 868 m 988 628 l 988 586 l 622 586 l 622 628 l 988 628 m 674 1015 q 520 651 674 807 q 108 419 367 494 l 88 456 q 480 672 333 528 q 626 1006 626 815 l 626 1015 l 674 1015 m 651 1015 l 651 976 l 143 976 l 143 1015 l 651 1015 m 1026 1100 l 1026 408 l 982 408 l 982 1100 l 1026 1100 m 1026 356 l 1026 -68 l 276 -68 l 276 356 l 1026 356 m 319 317 l 319 -28 l 983 -28 l 983 317 l 319 317 z "},"겹":{"ha":1214,"x_min":85,"x_max":1025,"o":"m 994 886 l 994 846 l 635 846 l 635 886 l 994 886 m 988 647 l 988 607 l 622 607 l 622 647 l 988 647 m 671 1021 q 518 664 671 814 q 106 444 365 514 l 85 483 q 478 685 333 549 q 624 1008 624 822 l 624 1021 l 671 1021 m 653 1021 l 653 981 l 144 981 l 144 1021 l 653 1021 m 1025 1101 l 1025 464 l 982 464 l 982 1101 l 1025 1101 m 324 397 l 324 211 l 982 211 l 982 397 l 1025 397 l 1025 -69 l 279 -69 l 279 397 l 324 397 m 324 -31 l 982 -31 l 982 172 l 324 172 l 324 -31 z "},"겺":{"ha":1214,"x_min":0,"x_max":0,"o":""},"겻":{"ha":1214,"x_min":92,"x_max":1103,"o":"m 992 847 l 992 808 l 632 808 l 632 847 l 992 847 m 992 596 l 992 556 l 619 556 l 619 596 l 992 596 m 1026 1100 l 1026 279 l 982 279 l 982 1100 l 1026 1100 m 674 1003 q 602 741 674 863 q 404 528 531 619 q 114 382 278 436 l 92 419 q 369 555 247 471 q 559 751 490 639 q 628 993 628 863 l 628 1003 l 674 1003 m 654 1003 l 654 963 l 146 963 l 146 1003 l 654 1003 m 678 397 l 678 329 q 610 133 678 218 q 442 -4 542 49 q 236 -83 342 -57 l 215 -47 q 408 24 311 -26 q 572 152 506 74 q 639 329 639 231 l 639 397 l 678 397 m 683 397 l 683 329 q 749 155 683 232 q 912 28 815 78 q 1103 -43 1008 -22 l 1081 -79 q 878 -1 976 -54 q 712 135 779 51 q 644 329 644 219 l 644 397 l 683 397 z "},"겼":{"ha":1214,"x_min":89,"x_max":1139,"o":"m 996 869 l 996 829 l 636 829 l 636 869 l 996 869 m 989 624 l 989 583 l 624 583 l 624 624 l 989 624 m 675 1015 q 522 651 675 807 q 108 419 368 494 l 89 456 q 481 672 335 528 q 628 1006 628 815 l 628 1015 l 675 1015 m 661 1015 l 661 976 l 154 976 l 154 1015 l 661 1015 m 1028 1100 l 1028 408 l 983 408 l 983 1100 l 1028 1100 m 433 385 l 433 268 q 398 137 433 204 q 301 14 363 69 q 161 -74 239 -42 l 138 -37 q 267 41 208 -10 q 360 152 325 92 q 394 268 394 213 l 394 385 l 433 385 m 436 385 l 436 268 q 497 83 436 172 q 660 -46 558 -6 l 638 -83 q 463 61 526 -37 q 399 268 399 160 l 399 385 l 436 385 m 878 385 l 878 268 q 849 140 878 210 q 765 10 819 71 q 638 -83 710 -50 l 617 -46 q 733 40 682 -15 q 813 156 785 94 q 840 268 840 217 l 840 385 l 878 385 m 882 385 l 882 268 q 916 147 882 208 q 1009 38 950 86 q 1139 -37 1068 -11 l 1115 -74 q 919 68 996 -28 q 843 268 843 164 l 843 385 l 882 385 z "},"경":{"ha":1214,"x_min":88,"x_max":1031,"o":"m 990 849 l 990 810 l 631 810 l 631 849 l 990 849 m 985 601 l 985 561 l 619 561 l 619 601 l 985 601 m 1026 1100 l 1026 358 l 982 358 l 982 1100 l 1026 1100 m 672 1003 q 600 742 672 863 q 401 531 528 621 q 110 388 274 440 l 88 425 q 366 558 244 475 q 557 752 488 642 q 626 992 626 863 l 626 1003 l 672 1003 m 653 1003 l 653 963 l 144 963 l 144 1003 l 653 1003 m 647 349 q 853 323 767 349 q 985 249 939 297 q 1031 132 1031 200 q 985 15 1031 64 q 853 -58 939 -33 q 647 -83 767 -83 q 441 -58 528 -83 q 308 15 354 -33 q 263 132 263 64 q 308 249 263 200 q 441 323 354 297 q 647 349 528 349 m 647 308 q 469 287 546 308 q 349 225 392 265 q 306 132 306 185 q 349 40 306 79 q 469 -22 392 0 q 647 -44 546 -44 q 826 -22 749 -44 q 945 40 903 0 q 988 132 988 79 q 894 260 988 213 q 647 308 801 308 z "},"겾":{"ha":1214,"x_min":0,"x_max":0,"o":""},"겿":{"ha":1214,"x_min":0,"x_max":0,"o":""},"곀":{"ha":1214,"x_min":0,"x_max":0,"o":""},"곁":{"ha":1214,"x_min":86,"x_max":1056,"o":"m 997 883 l 997 844 l 639 844 l 639 883 l 997 883 m 992 653 l 992 614 l 625 614 l 625 653 l 992 653 m 1031 390 l 1031 351 l 333 351 l 333 -54 l 290 -54 l 290 390 l 1031 390 m 1056 -29 l 1056 -69 l 290 -69 l 290 -29 l 1056 -29 m 1017 185 l 1017 144 l 314 144 l 314 185 l 1017 185 m 1026 1101 l 1026 440 l 982 440 l 982 1101 l 1026 1101 m 672 1014 q 519 653 672 807 q 106 429 367 500 l 86 468 q 480 674 335 535 q 625 1003 625 814 l 625 1014 l 672 1014 m 653 1014 l 653 975 l 144 975 l 144 1014 l 653 1014 z "},"곂":{"ha":1214,"x_min":0,"x_max":0,"o":""},"곃":{"ha":1214,"x_min":0,"x_max":0,"o":""},"계":{"ha":1214,"x_min":82,"x_max":1063,"o":"m 818 753 l 818 714 l 531 714 l 531 753 l 818 753 m 818 453 l 818 414 l 518 414 l 518 453 l 818 453 m 1063 1101 l 1063 -89 l 1018 -89 l 1018 1101 l 1063 1101 m 831 1065 l 831 -19 l 786 -19 l 786 1065 l 831 1065 m 568 939 q 517 656 568 796 q 363 393 465 517 q 111 178 261 269 l 82 214 q 323 415 224 299 q 474 665 422 532 q 525 935 525 799 l 525 939 l 568 939 m 551 939 l 551 899 l 118 899 l 118 939 l 551 939 z "},"곅":{"ha":1214,"x_min":0,"x_max":0,"o":""},"곆":{"ha":1214,"x_min":0,"x_max":0,"o":""},"곇":{"ha":1214,"x_min":0,"x_max":0,"o":""},"곈":{"ha":1214,"x_min":90,"x_max":1099,"o":"m 821 815 l 821 776 l 547 776 l 547 815 l 821 815 m 814 556 l 814 517 l 533 517 l 533 556 l 814 556 m 1057 1100 l 1057 213 l 1014 213 l 1014 1100 l 1057 1100 m 840 1075 l 840 240 l 796 240 l 796 1075 l 840 1075 m 590 982 q 465 613 590 781 q 114 343 339 446 l 90 378 q 426 630 304 472 q 547 976 547 788 l 547 982 l 590 982 m 563 982 l 563 943 l 129 943 l 129 982 l 563 982 m 1099 -15 l 1099 -56 l 307 -56 l 307 -15 l 1099 -15 m 351 319 l 351 -24 l 307 -24 l 307 319 l 351 319 z "},"곉":{"ha":1214,"x_min":0,"x_max":0,"o":""},"곊":{"ha":1214,"x_min":0,"x_max":0,"o":""},"곋":{"ha":1214,"x_min":0,"x_max":0,"o":""},"곌":{"ha":1214,"x_min":93,"x_max":1111,"o":"m 821 894 l 821 854 l 560 854 l 560 894 l 821 894 m 821 678 l 821 638 l 554 638 l 554 678 l 821 678 m 1057 1100 l 1057 469 l 1014 469 l 1014 1100 l 1057 1100 m 840 1074 l 840 481 l 796 481 l 796 1074 l 840 1074 m 592 1028 q 467 681 592 833 q 118 444 342 529 l 93 478 q 428 699 308 558 q 549 1021 549 840 l 549 1028 l 592 1028 m 564 1028 l 564 988 l 131 988 l 131 1028 l 564 1028 m 1057 408 l 1057 160 l 344 160 l 344 -60 l 301 -60 l 301 197 l 1015 197 l 1015 368 l 297 368 l 297 408 l 1057 408 m 1111 -37 l 1111 -76 l 301 -76 l 301 -37 l 1111 -37 z "},"곍":{"ha":1214,"x_min":0,"x_max":0,"o":""},"곎":{"ha":1214,"x_min":0,"x_max":0,"o":""},"곏":{"ha":1214,"x_min":0,"x_max":0,"o":""},"곐":{"ha":1214,"x_min":0,"x_max":0,"o":""},"곑":{"ha":1214,"x_min":0,"x_max":0,"o":""},"곒":{"ha":1214,"x_min":0,"x_max":0,"o":""},"곓":{"ha":1214,"x_min":0,"x_max":0,"o":""},"곔":{"ha":1214,"x_min":0,"x_max":0,"o":""},"곕":{"ha":1214,"x_min":90,"x_max":1056,"o":"m 819 879 l 819 840 l 558 840 l 558 879 l 819 879 m 819 653 l 819 614 l 553 614 l 553 653 l 819 653 m 589 1013 q 533 768 589 882 q 370 565 476 654 q 114 415 264 475 l 90 450 q 335 589 232 506 q 492 778 438 672 q 546 1007 546 885 l 546 1013 l 589 1013 m 563 1013 l 563 974 l 131 974 l 131 1013 l 563 1013 m 350 393 l 350 217 l 1014 217 l 1014 393 l 1056 393 l 1056 -69 l 306 -69 l 306 393 l 350 393 m 350 -29 l 1014 -29 l 1014 176 l 350 176 l 350 -29 m 1056 1100 l 1056 446 l 1013 446 l 1013 1100 l 1056 1100 m 839 1074 l 839 454 l 794 454 l 794 1074 l 839 1074 z "},"곖":{"ha":1214,"x_min":0,"x_max":0,"o":""},"곗":{"ha":1214,"x_min":92,"x_max":1129,"o":"m 821 847 l 821 808 l 560 808 l 560 847 l 821 847 m 819 615 l 819 575 l 553 575 l 553 615 l 819 615 m 1057 1100 l 1057 286 l 1014 286 l 1014 1100 l 1057 1100 m 826 1072 l 826 382 l 783 382 l 783 1072 l 826 1072 m 589 981 q 464 616 589 781 q 117 350 339 451 l 92 385 q 425 633 304 478 q 546 976 546 788 l 546 981 l 589 981 m 563 981 l 563 942 l 131 942 l 131 981 l 563 981 m 693 361 l 693 301 q 622 122 693 201 q 449 -10 551 42 q 244 -83 346 -61 l 226 -47 q 415 19 315 -29 q 585 140 515 67 q 656 301 656 213 l 656 361 l 693 361 m 700 361 l 700 301 q 770 140 700 213 q 940 19 840 67 q 1129 -47 1040 -29 l 1111 -83 q 906 -10 1010 -61 q 732 122 803 42 q 661 301 661 201 l 661 361 l 700 361 z "},"곘":{"ha":1214,"x_min":0,"x_max":0,"o":""},"곙":{"ha":1214,"x_min":0,"x_max":0,"o":""},"곚":{"ha":1214,"x_min":0,"x_max":0,"o":""},"곛":{"ha":1214,"x_min":0,"x_max":0,"o":""},"곜":{"ha":1214,"x_min":0,"x_max":0,"o":""},"곝":{"ha":1214,"x_min":0,"x_max":0,"o":""},"곞":{"ha":1214,"x_min":0,"x_max":0,"o":""},"곟":{"ha":1214,"x_min":0,"x_max":0,"o":""},"고":{"ha":1214,"x_min":67,"x_max":1140,"o":"m 963 963 l 963 922 l 185 922 l 185 963 l 963 963 m 1140 144 l 1140 104 l 67 104 l 67 144 l 1140 144 m 567 586 l 567 122 l 524 122 l 524 586 l 567 586 m 985 963 l 985 842 q 978 577 985 693 q 946 311 972 461 l 900 319 q 935 579 928 464 q 942 842 942 694 l 942 963 l 985 963 z "},"곡":{"ha":1214,"x_min":67,"x_max":1140,"o":"m 1140 514 l 1140 474 l 67 474 l 67 514 l 1140 514 m 1004 304 l 1004 -90 l 960 -90 l 960 264 l 186 264 l 186 304 l 1004 304 m 979 1031 l 979 989 l 200 989 l 200 1031 l 979 1031 m 596 775 l 596 489 l 553 489 l 553 775 l 596 775 m 996 1031 l 996 935 q 991 773 996 842 q 967 619 986 704 l 922 625 q 948 777 943 710 q 953 935 953 844 l 953 1031 l 996 1031 z "},"곢":{"ha":1214,"x_min":0,"x_max":0,"o":""},"곣":{"ha":1214,"x_min":0,"x_max":0,"o":""},"곤":{"ha":1214,"x_min":67,"x_max":1140,"o":"m 979 1025 l 979 985 l 200 985 l 200 1025 l 979 1025 m 1140 481 l 1140 440 l 67 440 l 67 481 l 1140 481 m 596 749 l 596 457 l 553 457 l 553 749 l 596 749 m 996 1025 l 996 943 q 990 764 996 844 q 964 579 985 683 l 919 586 q 947 768 942 689 q 953 943 953 847 l 953 1025 l 996 1025 m 1031 -17 l 1031 -57 l 215 -57 l 215 -17 l 1031 -17 m 260 296 l 260 -37 l 215 -37 l 215 296 l 260 296 z "},"곥":{"ha":1214,"x_min":0,"x_max":0,"o":""},"곦":{"ha":1214,"x_min":0,"x_max":0,"o":""},"곧":{"ha":1214,"x_min":67,"x_max":1140,"o":"m 979 1042 l 979 1003 l 200 1003 l 200 1042 l 979 1042 m 1140 538 l 1140 497 l 67 497 l 67 538 l 1140 538 m 596 786 l 596 518 l 553 518 l 553 786 l 596 786 m 996 1042 l 996 939 q 990 774 996 842 q 964 626 985 707 l 921 633 q 947 780 942 714 q 953 939 953 846 l 953 1042 l 996 1042 m 997 329 l 997 289 l 256 289 l 256 -42 l 211 -42 l 211 329 l 997 329 m 1014 -28 l 1014 -68 l 211 -68 l 211 -28 l 1014 -28 z "},"골":{"ha":1214,"x_min":67,"x_max":1140,"o":"m 979 1049 l 979 1007 l 200 1007 l 200 1049 l 979 1049 m 1140 597 l 1140 557 l 67 557 l 67 597 l 1140 597 m 596 838 l 596 583 l 553 583 l 553 838 l 596 838 m 996 1049 l 996 964 q 992 819 996 881 q 971 683 988 758 l 928 690 q 949 825 944 765 q 953 964 953 885 l 953 1049 l 996 1049 m 1003 410 l 1003 160 l 249 160 l 249 -36 l 206 -36 l 206 200 l 960 200 l 960 369 l 201 369 l 201 410 l 1003 410 m 1032 -28 l 1032 -69 l 206 -69 l 206 -28 l 1032 -28 z "},"곩":{"ha":1214,"x_min":0,"x_max":0,"o":""},"곪":{"ha":1214,"x_min":67,"x_max":1140,"o":"m 979 1040 l 979 1001 l 200 1001 l 200 1040 l 979 1040 m 1140 571 l 1140 531 l 67 531 l 67 571 l 1140 571 m 596 817 l 596 561 l 553 561 l 553 817 l 596 817 m 994 1040 l 994 969 q 990 811 994 883 q 969 649 986 739 l 926 653 q 949 815 944 744 q 953 969 953 886 l 953 1040 l 994 1040 m 557 388 l 557 151 l 231 151 l 231 -53 l 189 -53 l 189 192 l 514 192 l 514 349 l 185 349 l 185 388 l 557 388 m 1018 388 l 1018 -71 l 647 -71 l 647 388 l 1018 388 m 689 350 l 689 -32 l 975 -32 l 975 350 l 689 350 m 246 -31 q 444 -26 369 -31 q 597 -6 518 -21 l 606 -44 q 450 -66 524 -61 q 246 -71 376 -71 l 189 -71 l 189 -31 l 246 -31 z "},"곫":{"ha":1214,"x_min":0,"x_max":0,"o":""},"곬":{"ha":1214,"x_min":67,"x_max":1140,"o":"m 865 417 l 865 299 q 804 80 865 186 q 635 -79 743 -26 l 608 -44 q 726 42 676 -14 q 801 167 775 99 q 828 299 828 235 l 828 417 l 865 417 m 871 417 l 871 299 q 897 167 871 235 q 973 42 924 99 q 1090 -44 1022 -14 l 1064 -79 q 895 81 957 -26 q 833 299 833 188 l 833 417 l 871 417 m 979 1044 l 979 1006 l 200 1006 l 200 1044 l 979 1044 m 1140 574 l 1140 533 l 67 533 l 67 574 l 1140 574 m 596 819 l 596 565 l 553 565 l 553 819 l 596 819 m 996 1044 l 996 943 q 992 790 996 851 q 971 653 988 728 l 926 658 q 949 794 944 733 q 953 943 953 854 l 953 1044 l 996 1044 m 557 389 l 557 153 l 231 153 l 231 -51 l 189 -51 l 189 190 l 514 190 l 514 350 l 185 350 l 185 389 l 557 389 m 243 -31 q 430 -26 360 -31 q 578 -6 500 -21 l 585 -46 q 435 -67 506 -62 q 243 -71 365 -71 l 189 -71 l 189 -31 l 243 -31 z "},"곭":{"ha":1214,"x_min":0,"x_max":0,"o":""},"곮":{"ha":1214,"x_min":0,"x_max":0,"o":""},"곯":{"ha":1214,"x_min":67,"x_max":1140,"o":"m 1083 315 l 1083 275 l 594 275 l 594 315 l 1083 315 m 839 215 q 974 174 921 215 q 1028 64 1028 133 q 974 -44 1028 -4 q 839 -85 921 -85 q 703 -44 756 -85 q 650 64 650 -4 q 703 174 650 133 q 839 215 756 215 m 839 178 q 731 147 772 178 q 690 64 690 115 q 731 -16 690 15 q 839 -47 772 -47 q 945 -17 906 -47 q 985 64 985 14 q 945 147 985 115 q 839 178 906 178 m 858 443 l 858 297 l 815 297 l 815 443 l 858 443 m 546 399 l 546 157 l 231 157 l 231 -42 l 189 -42 l 189 196 l 503 196 l 503 358 l 185 358 l 185 399 l 546 399 m 246 -29 q 451 -25 378 -29 q 603 -6 524 -21 l 611 -44 q 450 -66 526 -61 q 246 -71 374 -71 l 189 -71 l 189 -29 l 246 -29 m 979 1058 l 979 1018 l 200 1018 l 200 1058 l 979 1058 m 1140 581 l 1140 540 l 67 540 l 67 581 l 1140 581 m 596 829 l 596 556 l 553 556 l 553 829 l 596 829 m 994 1058 l 994 988 q 990 831 994 903 q 969 668 986 758 l 926 672 q 949 834 944 764 q 953 988 953 904 l 953 1058 l 994 1058 z "},"곰":{"ha":1214,"x_min":67,"x_max":1140,"o":"m 1006 332 l 1006 -71 l 206 -71 l 206 332 l 1006 332 m 249 293 l 249 -31 l 963 -31 l 963 293 l 249 293 m 979 1042 l 979 1001 l 200 1001 l 200 1042 l 979 1042 m 1140 540 l 1140 500 l 67 500 l 67 540 l 1140 540 m 596 796 l 596 528 l 553 528 l 553 796 l 596 796 m 996 1042 l 996 939 q 990 774 996 842 q 964 626 985 707 l 921 633 q 947 780 942 714 q 953 939 953 846 l 953 1042 l 996 1042 z "},"곱":{"ha":1214,"x_min":68,"x_max":1142,"o":"m 979 1046 l 979 1006 l 200 1006 l 200 1046 l 979 1046 m 1142 574 l 1142 533 l 68 533 l 68 574 l 1142 574 m 596 800 l 596 546 l 553 546 l 553 800 l 596 800 m 996 1046 l 996 949 q 990 792 996 857 q 964 647 985 726 l 919 654 q 947 797 942 733 q 953 949 953 861 l 953 1046 l 996 1046 m 264 401 l 264 224 l 946 224 l 946 401 l 989 401 l 989 -71 l 219 -71 l 219 401 l 264 401 m 264 -29 l 946 -29 l 946 183 l 264 183 l 264 -29 z "},"곲":{"ha":1214,"x_min":0,"x_max":0,"o":""},"곳":{"ha":1214,"x_min":67,"x_max":1140,"o":"m 979 1039 l 979 1000 l 200 1000 l 200 1039 l 979 1039 m 1140 521 l 1140 482 l 67 482 l 67 521 l 1140 521 m 596 781 l 596 514 l 553 514 l 553 781 l 596 781 m 994 1039 l 994 964 q 989 796 994 872 q 963 621 983 719 l 921 628 q 947 800 942 725 q 953 964 953 875 l 953 1039 l 994 1039 m 617 364 l 617 292 q 549 113 617 190 q 382 -12 482 36 q 178 -83 282 -61 l 158 -46 q 349 15 253 -29 q 512 131 446 60 q 578 292 578 201 l 578 364 l 617 364 m 624 364 l 624 292 q 690 131 624 201 q 851 15 756 60 q 1042 -46 947 -29 l 1021 -83 q 817 -12 917 -61 q 651 113 718 36 q 583 292 583 190 l 583 364 l 624 364 z "},"곴":{"ha":1214,"x_min":0,"x_max":0,"o":""},"공":{"ha":1214,"x_min":67,"x_max":1140,"o":"m 601 339 q 817 313 725 339 q 958 240 908 288 q 1008 126 1008 192 q 958 13 1008 61 q 817 -60 908 -35 q 601 -85 725 -85 q 386 -60 478 -85 q 245 13 294 -35 q 196 126 196 61 q 245 240 196 192 q 386 313 294 288 q 601 339 478 339 m 601 300 q 414 278 496 300 q 285 217 332 256 q 239 126 239 178 q 285 38 239 76 q 414 -23 332 -1 q 601 -44 496 -44 q 790 -23 707 -44 q 918 38 872 -1 q 964 126 964 76 q 918 217 964 178 q 790 278 872 256 q 601 300 707 300 m 979 1033 l 979 992 l 200 992 l 200 1033 l 979 1033 m 1140 522 l 1140 483 l 67 483 l 67 522 l 1140 522 m 596 774 l 596 506 l 553 506 l 553 774 l 596 774 m 994 1033 l 994 929 q 989 765 994 832 q 963 617 983 699 l 921 624 q 947 771 942 706 q 953 929 953 836 l 953 1033 l 994 1033 z "},"곶":{"ha":1214,"x_min":67,"x_max":1140,"o":"m 624 307 l 624 292 q 554 111 624 189 q 383 -14 485 33 q 175 -83 282 -61 l 156 -46 q 350 15 251 -29 q 517 129 449 58 q 585 292 585 200 l 585 307 l 624 307 m 628 307 l 628 292 q 696 129 628 200 q 863 15 764 58 q 1058 -46 963 -29 l 1039 -83 q 830 -14 932 -61 q 658 110 728 33 q 589 292 589 188 l 589 307 l 628 307 m 1011 326 l 1011 288 l 201 288 l 201 326 l 1011 326 m 979 1044 l 979 1006 l 200 1006 l 200 1044 l 979 1044 m 1140 543 l 1140 503 l 67 503 l 67 543 l 1140 543 m 996 1044 l 996 944 q 991 783 996 849 q 965 638 986 717 l 921 643 q 947 788 942 724 q 953 944 953 853 l 953 1044 l 996 1044 m 596 789 l 596 521 l 553 521 l 553 789 l 596 789 z "},"곷":{"ha":1214,"x_min":0,"x_max":0,"o":""},"곸":{"ha":1214,"x_min":0,"x_max":0,"o":""},"곹":{"ha":1214,"x_min":0,"x_max":0,"o":""},"곺":{"ha":1214,"x_min":0,"x_max":0,"o":""},"곻":{"ha":1214,"x_min":0,"x_max":0,"o":""},"과":{"ha":1214,"x_min":53,"x_max":1176,"o":"m 688 958 l 688 918 l 125 918 l 125 958 l 688 958 m 389 618 l 389 217 l 344 217 l 344 618 l 389 618 m 711 958 l 711 929 q 705 713 711 829 q 675 439 699 597 l 629 443 q 661 715 654 600 q 668 929 668 829 l 668 958 l 711 958 m 953 1101 l 953 -89 l 910 -89 l 910 1101 l 953 1101 m 1176 583 l 1176 542 l 946 542 l 946 583 l 1176 583 m 53 235 q 464 243 275 236 q 818 271 653 250 l 821 236 q 463 202 651 211 q 64 192 275 193 l 53 235 z "},"곽":{"ha":1214,"x_min":68,"x_max":1165,"o":"m 688 1014 l 688 975 l 144 975 l 144 1014 l 688 1014 m 400 768 l 400 483 l 357 483 l 357 768 l 400 768 m 711 1014 l 711 968 q 705 810 711 889 q 676 631 699 732 l 632 636 q 662 815 656 740 q 668 968 668 890 l 668 1014 l 711 1014 m 967 1101 l 967 372 l 922 372 l 922 1101 l 967 1101 m 1165 747 l 1165 707 l 935 707 l 935 747 l 1165 747 m 68 499 q 468 507 274 499 q 826 538 663 515 l 831 501 q 469 465 664 475 q 76 456 275 456 l 68 499 m 967 301 l 967 -76 l 922 -76 l 922 261 l 211 261 l 211 301 l 967 301 z "},"곾":{"ha":1214,"x_min":0,"x_max":0,"o":""},"곿":{"ha":1214,"x_min":0,"x_max":0,"o":""},"관":{"ha":1214,"x_min":68,"x_max":1167,"o":"m 688 1003 l 688 963 l 144 963 l 144 1003 l 688 1003 m 400 750 l 400 454 l 357 454 l 357 750 l 400 750 m 713 1003 l 713 951 q 707 786 713 868 q 679 596 701 704 l 633 600 q 663 790 657 710 q 669 951 669 871 l 669 1003 l 713 1003 m 967 1101 l 967 200 l 922 200 l 922 1101 l 967 1101 m 1167 689 l 1167 649 l 936 649 l 936 689 l 1167 689 m 1006 -15 l 1006 -56 l 260 -56 l 260 -15 l 1006 -15 m 303 285 l 303 -26 l 260 -26 l 260 285 l 303 285 m 68 463 q 468 471 274 463 q 826 501 663 479 l 831 465 q 472 430 664 439 q 76 421 281 421 l 68 463 z "},"괁":{"ha":1214,"x_min":0,"x_max":0,"o":""},"괂":{"ha":1214,"x_min":0,"x_max":0,"o":""},"괃":{"ha":1214,"x_min":0,"x_max":0,"o":""},"괄":{"ha":1214,"x_min":69,"x_max":1165,"o":"m 688 1021 l 688 981 l 144 981 l 144 1021 l 688 1021 m 400 792 l 400 531 l 357 531 l 357 792 l 400 792 m 711 1021 l 711 976 q 705 831 711 904 q 676 664 699 758 l 632 669 q 662 835 656 765 q 668 976 668 906 l 668 1021 l 711 1021 m 967 1101 l 967 453 l 922 453 l 922 1101 l 967 1101 m 1165 786 l 1165 747 l 935 747 l 935 786 l 1165 786 m 69 546 q 469 553 274 546 q 828 583 664 561 l 832 549 q 471 513 665 522 q 78 503 276 503 l 69 546 m 967 390 l 967 150 l 275 150 l 275 -58 l 232 -58 l 232 190 l 924 190 l 924 351 l 229 351 l 229 390 l 967 390 m 1015 -33 l 1015 -72 l 232 -72 l 232 -33 l 1015 -33 z "},"괅":{"ha":1214,"x_min":0,"x_max":0,"o":""},"괆":{"ha":1214,"x_min":69,"x_max":1165,"o":"m 535 372 l 535 143 l 226 143 l 226 -53 l 183 -53 l 183 182 l 493 182 l 493 332 l 179 332 l 179 372 l 535 372 m 967 372 l 967 -69 l 611 -69 l 611 372 l 967 372 m 654 333 l 654 -32 l 924 -32 l 924 333 l 654 333 m 236 -29 q 422 -24 353 -29 q 567 -3 492 -19 l 574 -44 q 426 -65 494 -61 q 236 -69 357 -69 l 183 -69 l 183 -29 l 236 -29 m 688 1021 l 688 981 l 144 981 l 144 1021 l 688 1021 m 400 800 l 400 539 l 357 539 l 357 800 l 400 800 m 711 1021 l 711 978 q 705 833 711 906 q 676 667 699 760 l 632 672 q 662 838 656 768 q 668 978 668 907 l 668 1021 l 711 1021 m 967 1101 l 967 440 l 922 440 l 922 1101 l 967 1101 m 1165 776 l 1165 736 l 935 736 l 935 776 l 1165 776 m 69 557 q 476 565 288 557 q 828 596 664 572 l 832 560 q 478 524 664 532 q 78 515 293 515 l 69 557 z "},"괇":{"ha":1214,"x_min":0,"x_max":0,"o":""},"괈":{"ha":1214,"x_min":0,"x_max":0,"o":""},"괉":{"ha":1214,"x_min":0,"x_max":0,"o":""},"괊":{"ha":1214,"x_min":0,"x_max":0,"o":""},"괋":{"ha":1214,"x_min":0,"x_max":0,"o":""},"괌":{"ha":1214,"x_min":68,"x_max":1165,"o":"m 688 1015 l 688 976 l 144 976 l 144 1015 l 688 1015 m 400 771 l 400 497 l 357 497 l 357 771 l 400 771 m 711 1015 l 711 972 q 705 824 711 899 q 676 654 699 750 l 632 660 q 662 828 656 757 q 668 972 668 900 l 668 1015 l 711 1015 m 967 1101 l 967 386 l 922 386 l 922 1101 l 967 1101 m 1165 765 l 1165 725 l 935 725 l 935 765 l 1165 765 m 68 518 q 474 526 286 518 q 826 557 663 533 l 831 521 q 477 485 663 493 q 76 476 292 476 l 68 518 m 967 318 l 967 -69 l 243 -69 l 243 318 l 967 318 m 286 279 l 286 -29 l 924 -29 l 924 279 l 286 279 z "},"괍":{"ha":1214,"x_min":69,"x_max":1165,"o":"m 688 1021 l 688 981 l 144 981 l 144 1021 l 688 1021 m 399 779 l 399 518 l 356 518 l 356 779 l 399 779 m 711 1021 l 711 976 q 705 831 711 904 q 676 661 699 757 l 632 667 q 662 834 656 763 q 668 976 668 906 l 668 1021 l 711 1021 m 967 1101 l 967 440 l 922 440 l 922 1101 l 967 1101 m 1165 783 l 1165 744 l 935 744 l 935 783 l 1165 783 m 69 538 q 474 545 282 538 q 828 576 665 553 l 832 539 q 471 503 665 513 q 78 493 276 493 l 69 538 m 290 388 l 290 213 l 922 213 l 922 388 l 967 388 l 967 -69 l 246 -69 l 246 388 l 290 388 m 290 -29 l 922 -29 l 922 174 l 290 174 l 290 -29 z "},"괎":{"ha":1214,"x_min":0,"x_max":0,"o":""},"괏":{"ha":1214,"x_min":68,"x_max":1165,"o":"m 688 1014 l 688 975 l 144 975 l 144 1014 l 688 1014 m 400 761 l 400 476 l 357 476 l 357 761 l 400 761 m 711 1014 l 711 968 q 705 810 711 889 q 676 631 699 732 l 632 636 q 662 815 656 740 q 668 968 668 890 l 668 1014 l 711 1014 m 967 1101 l 967 292 l 922 292 l 922 1101 l 967 1101 m 1165 722 l 1165 682 l 935 682 l 935 722 l 1165 722 m 68 493 q 468 501 274 493 q 826 532 663 510 l 831 496 q 472 460 664 469 q 76 451 281 451 l 68 493 m 646 343 l 646 285 q 579 110 646 186 q 414 -14 513 33 q 213 -83 315 -61 l 192 -47 q 381 15 286 -29 q 542 128 476 58 q 607 285 607 197 l 607 343 l 646 343 m 650 343 l 650 285 q 715 128 650 197 q 876 15 781 58 q 1065 -47 971 -29 l 1044 -83 q 843 -14 942 -61 q 678 110 744 33 q 611 285 611 186 l 611 343 l 650 343 z "},"괐":{"ha":1214,"x_min":68,"x_max":1165,"o":"m 414 329 l 414 274 q 338 72 414 167 q 144 -69 263 -22 l 121 -33 q 303 94 231 7 q 375 274 375 181 l 375 329 l 414 329 m 417 329 l 417 268 q 444 147 417 210 q 522 33 471 85 q 639 -47 572 -19 l 618 -83 q 443 65 507 -35 q 379 268 379 164 l 379 329 l 417 329 m 856 329 l 856 268 q 792 65 856 164 q 618 -83 728 -35 l 594 -47 q 713 33 663 -19 q 792 147 764 85 q 819 268 819 210 l 819 329 l 856 329 m 860 329 l 860 274 q 932 94 860 181 q 1114 -33 1004 7 l 1090 -69 q 897 72 972 -22 q 821 274 821 167 l 821 329 l 860 329 m 688 1015 l 688 976 l 144 976 l 144 1015 l 688 1015 m 400 771 l 400 497 l 357 497 l 357 771 l 400 771 m 711 1015 l 711 972 q 705 824 711 899 q 676 654 699 750 l 632 660 q 662 828 656 757 q 668 972 668 900 l 668 1015 l 711 1015 m 967 1101 l 967 386 l 922 386 l 922 1101 l 967 1101 m 1165 765 l 1165 725 l 935 725 l 935 765 l 1165 765 m 68 517 q 478 524 293 517 q 826 554 664 531 l 831 518 q 477 482 663 490 q 76 474 292 474 l 68 517 z "},"광":{"ha":1214,"x_min":68,"x_max":1165,"o":"m 688 1017 l 688 976 l 144 976 l 144 1017 l 688 1017 m 400 767 l 400 493 l 357 493 l 357 767 l 400 767 m 711 1017 l 711 965 q 705 810 711 886 q 676 635 699 733 l 632 640 q 662 814 656 740 q 668 965 668 888 l 668 1017 l 711 1017 m 967 1101 l 967 342 l 922 342 l 922 1101 l 967 1101 m 1165 744 l 1165 704 l 935 704 l 935 744 l 1165 744 m 68 500 q 468 508 274 500 q 826 539 663 517 l 831 503 q 469 467 664 476 q 76 457 275 457 l 68 500 m 601 325 q 804 301 719 325 q 934 233 889 278 q 979 122 979 188 q 934 11 979 57 q 804 -59 889 -35 q 601 -83 719 -83 q 400 -59 485 -83 q 271 11 315 -35 q 226 122 226 57 q 271 233 226 188 q 400 301 315 278 q 601 325 485 325 m 601 288 q 360 242 451 288 q 268 122 268 197 q 360 1 268 46 q 601 -44 451 -44 q 844 1 753 -44 q 936 122 936 46 q 844 242 936 197 q 601 288 753 288 z "},"괒":{"ha":1214,"x_min":0,"x_max":0,"o":""},"괓":{"ha":1214,"x_min":0,"x_max":0,"o":""},"괔":{"ha":1214,"x_min":0,"x_max":0,"o":""},"괕":{"ha":1214,"x_min":0,"x_max":0,"o":""},"괖":{"ha":1214,"x_min":0,"x_max":0,"o":""},"괗":{"ha":1214,"x_min":0,"x_max":0,"o":""},"괘":{"ha":1214,"x_min":53,"x_max":1044,"o":"m 578 956 l 578 915 l 114 915 l 114 956 l 578 956 m 340 619 l 340 243 l 296 243 l 296 619 l 340 619 m 601 956 l 601 885 q 597 678 601 776 q 574 451 592 581 l 529 453 q 553 681 549 582 q 558 885 558 779 l 558 956 l 601 956 m 53 260 q 683 292 461 260 l 686 257 q 63 217 447 217 l 53 260 m 1044 1101 l 1044 -89 l 1000 -89 l 1000 1101 l 1044 1101 m 1018 572 l 1018 529 l 782 529 l 782 572 l 1018 572 m 800 1068 l 800 -15 l 756 -15 l 756 1068 l 800 1068 z "},"괙":{"ha":1214,"x_min":0,"x_max":0,"o":""},"괚":{"ha":1214,"x_min":0,"x_max":0,"o":""},"괛":{"ha":1214,"x_min":0,"x_max":0,"o":""},"괜":{"ha":1214,"x_min":57,"x_max":1079,"o":"m 593 1003 l 593 963 l 131 963 l 131 1003 l 593 1003 m 354 736 l 354 463 l 310 463 l 310 736 l 354 736 m 611 1003 l 611 924 q 606 766 611 836 q 583 607 601 696 l 539 614 q 563 771 558 701 q 568 924 568 840 l 568 1003 l 611 1003 m 57 476 q 683 506 449 476 l 686 469 q 387 442 554 450 q 65 433 219 433 l 57 476 m 1039 1100 l 1039 192 l 994 192 l 994 1100 l 1039 1100 m 1007 694 l 1007 654 l 776 654 l 776 694 l 1007 694 m 794 1081 l 794 235 l 751 235 l 751 1081 l 794 1081 m 1079 -15 l 1079 -56 l 288 -56 l 288 -15 l 1079 -15 m 331 290 l 331 -28 l 288 -28 l 288 290 l 331 290 z "},"괝":{"ha":1214,"x_min":0,"x_max":0,"o":""},"괞":{"ha":1214,"x_min":58,"x_max":1124,"o":"m 1124 294 l 1124 256 l 550 256 l 550 294 l 1124 294 m 838 201 q 988 163 929 201 q 1047 60 1047 125 q 988 -45 1047 -6 q 838 -85 929 -85 q 685 -45 744 -85 q 625 60 625 -6 q 685 163 625 124 q 838 201 744 201 m 838 165 q 713 136 761 165 q 665 60 665 107 q 713 -17 665 13 q 838 -47 761 -47 q 960 -17 913 -47 q 1008 60 1008 13 q 960 136 1008 107 q 838 165 913 165 m 858 404 l 858 272 l 815 272 l 815 404 l 858 404 m 268 332 l 268 -39 l 225 -39 l 225 332 l 268 332 m 274 -15 q 417 0 324 -15 q 560 51 510 15 l 578 11 q 424 -41 514 -26 q 274 -56 333 -56 l 225 -56 l 225 -15 l 274 -15 m 594 1026 l 594 986 l 131 986 l 131 1026 l 594 1026 m 354 786 l 354 525 l 310 525 l 310 786 l 354 786 m 613 1026 l 613 957 q 608 816 613 879 q 585 672 603 753 l 540 678 q 563 820 558 758 q 568 957 568 882 l 568 1026 l 613 1026 m 58 539 q 685 574 474 539 l 688 536 q 397 503 554 511 q 67 496 239 496 l 58 539 m 1039 1101 l 1039 440 l 994 440 l 994 1101 l 1039 1101 m 1008 768 l 1008 728 l 778 728 l 778 768 l 1008 768 m 794 1079 l 794 450 l 751 450 l 751 1079 l 794 1079 z "},"괟":{"ha":1214,"x_min":0,"x_max":0,"o":""},"괠":{"ha":1214,"x_min":58,"x_max":1090,"o":"m 594 1028 l 594 988 l 131 988 l 131 1028 l 594 1028 m 354 786 l 354 525 l 310 525 l 310 786 l 354 786 m 611 1028 l 611 957 q 607 816 611 879 q 585 674 603 753 l 540 678 q 563 820 558 758 q 568 957 568 882 l 568 1028 l 611 1028 m 58 546 q 685 576 450 546 l 686 539 q 65 503 446 503 l 58 546 m 1039 1101 l 1039 440 l 994 440 l 994 1101 l 1039 1101 m 1007 783 l 1007 744 l 776 744 l 776 783 l 1007 783 m 794 1079 l 794 450 l 751 450 l 751 1079 l 794 1079 m 1039 382 l 1039 146 l 326 146 l 326 -56 l 282 -56 l 282 186 l 996 186 l 996 342 l 279 342 l 279 382 l 1039 382 m 1090 -29 l 1090 -69 l 282 -69 l 282 -29 l 1090 -29 z "},"괡":{"ha":1214,"x_min":0,"x_max":0,"o":""},"괢":{"ha":1214,"x_min":57,"x_max":1038,"o":"m 574 379 l 574 146 l 239 146 l 239 -46 l 196 -46 l 196 186 l 531 186 l 531 339 l 193 339 l 193 379 l 574 379 m 254 -29 q 458 -24 386 -29 q 606 -4 531 -19 l 614 -43 q 461 -65 535 -60 q 254 -69 388 -69 l 196 -69 l 196 -29 l 254 -29 m 1038 379 l 1038 -69 l 661 -69 l 661 379 l 1038 379 m 704 340 l 704 -31 l 994 -31 l 994 340 l 704 340 m 593 1028 l 593 988 l 129 988 l 129 1028 l 593 1028 m 353 792 l 353 531 l 308 531 l 308 792 l 353 792 m 611 1028 l 611 957 q 606 816 611 879 q 583 674 601 753 l 539 678 q 563 820 558 758 q 568 957 568 882 l 568 1028 l 611 1028 m 57 557 q 683 586 447 557 l 686 551 q 65 515 454 515 l 57 557 m 1038 1101 l 1038 453 l 993 453 l 993 1101 l 1038 1101 m 1007 790 l 1007 750 l 776 750 l 776 790 l 1007 790 m 794 1079 l 794 463 l 750 463 l 750 1079 l 794 1079 z "},"괣":{"ha":1214,"x_min":0,"x_max":0,"o":""},"괤":{"ha":1214,"x_min":0,"x_max":0,"o":""},"괥":{"ha":1214,"x_min":0,"x_max":0,"o":""},"괦":{"ha":1214,"x_min":0,"x_max":0,"o":""},"괧":{"ha":1214,"x_min":0,"x_max":0,"o":""},"괨":{"ha":1214,"x_min":0,"x_max":0,"o":""},"괩":{"ha":1214,"x_min":57,"x_max":1038,"o":"m 593 1022 l 593 982 l 129 982 l 129 1022 l 593 1022 m 353 772 l 353 511 l 308 511 l 308 772 l 353 772 m 611 1022 l 611 947 q 606 799 611 867 q 582 649 601 732 l 539 654 q 563 804 558 739 q 568 947 568 869 l 568 1022 l 611 1022 m 57 525 q 683 554 447 525 l 686 518 q 65 483 453 483 l 57 525 m 1038 1101 l 1038 435 l 993 435 l 993 1101 l 1038 1101 m 1007 774 l 1007 733 l 776 733 l 776 774 l 1007 774 m 794 1079 l 794 444 l 750 444 l 750 1079 l 794 1079 m 321 378 l 321 207 l 993 207 l 993 378 l 1038 378 l 1038 -69 l 276 -69 l 276 378 l 321 378 m 321 -29 l 993 -29 l 993 167 l 321 167 l 321 -29 z "},"괪":{"ha":1214,"x_min":0,"x_max":0,"o":""},"괫":{"ha":1214,"x_min":0,"x_max":0,"o":""},"괬":{"ha":1214,"x_min":58,"x_max":1146,"o":"m 594 1014 l 594 975 l 131 975 l 131 1014 l 594 1014 m 356 747 l 356 486 l 310 486 l 310 747 l 356 747 m 613 1014 l 613 938 q 608 783 613 853 q 583 629 603 714 l 540 636 q 565 789 560 722 q 569 938 569 856 l 569 1014 l 613 1014 m 58 494 q 685 526 472 494 l 688 490 q 401 460 556 467 q 67 453 246 453 l 58 494 m 1039 1101 l 1039 372 l 994 372 l 994 1101 l 1039 1101 m 1008 742 l 1008 701 l 778 701 l 778 742 l 1008 742 m 796 1079 l 796 383 l 753 383 l 753 1079 l 796 1079 m 443 326 l 443 268 q 366 67 443 163 q 171 -74 289 -29 l 147 -37 q 278 35 219 -12 q 371 144 338 83 q 404 268 404 206 l 404 326 l 443 326 m 446 326 l 446 268 q 473 147 446 210 q 551 33 500 85 q 669 -47 601 -19 l 647 -83 q 472 65 536 -35 q 408 268 408 164 l 408 326 l 446 326 m 885 326 l 885 268 q 821 65 885 164 q 647 -83 757 -35 l 625 -47 q 743 33 692 -19 q 822 147 794 85 q 849 268 849 210 l 849 326 l 885 326 m 889 326 l 889 268 q 923 144 889 206 q 1015 35 957 83 q 1146 -37 1074 -12 l 1122 -74 q 927 67 1004 -29 q 850 268 850 163 l 850 326 l 889 326 z "},"괭":{"ha":1214,"x_min":57,"x_max":1038,"o":"m 593 1004 l 593 964 l 129 964 l 129 1004 l 593 1004 m 353 740 l 353 479 l 308 479 l 308 740 l 353 740 m 611 1004 l 611 925 q 606 768 611 839 q 582 610 601 697 l 538 615 q 563 772 558 704 q 568 925 568 840 l 568 1004 l 611 1004 m 57 485 q 397 491 238 485 q 683 517 556 497 l 686 482 q 395 449 553 457 q 65 442 238 442 l 57 485 m 1038 1100 l 1038 340 l 993 340 l 993 1100 l 1038 1100 m 1007 750 l 1007 710 l 776 710 l 776 750 l 1007 750 m 794 1079 l 794 376 l 750 376 l 750 1079 l 794 1079 m 647 304 q 935 253 832 304 q 1038 110 1038 203 q 934 -34 1038 17 q 647 -85 831 -85 q 358 -34 461 -85 q 256 110 256 17 q 358 253 256 203 q 647 304 461 304 m 647 264 q 394 222 488 264 q 300 110 300 181 q 394 -4 300 38 q 647 -46 489 -46 q 899 -3 804 -46 q 993 110 993 39 q 899 222 993 181 q 647 264 804 264 z "},"괮":{"ha":1214,"x_min":0,"x_max":0,"o":""},"괯":{"ha":1214,"x_min":0,"x_max":0,"o":""},"괰":{"ha":1214,"x_min":0,"x_max":0,"o":""},"괱":{"ha":1214,"x_min":0,"x_max":0,"o":""},"괲":{"ha":1214,"x_min":0,"x_max":0,"o":""},"괳":{"ha":1214,"x_min":0,"x_max":0,"o":""},"괴":{"ha":1214,"x_min":72,"x_max":1010,"o":"m 710 956 l 710 915 l 147 915 l 147 956 l 710 956 m 419 615 l 419 213 l 375 213 l 375 615 l 419 615 m 733 956 l 733 929 q 726 714 733 831 q 694 438 719 597 l 651 444 q 683 717 676 601 q 690 929 690 832 l 690 956 l 733 956 m 1010 1101 l 1010 -89 l 965 -89 l 965 1101 l 1010 1101 m 72 235 q 493 243 290 235 q 875 274 696 251 l 878 238 q 498 201 697 210 q 83 192 299 192 l 72 235 z "},"괵":{"ha":1214,"x_min":69,"x_max":1019,"o":"m 700 1014 l 700 975 l 156 975 l 156 1014 l 700 1014 m 419 753 l 419 461 l 375 461 l 375 753 l 419 753 m 718 1014 l 718 968 q 713 810 718 889 q 685 631 707 732 l 640 636 q 670 815 664 740 q 676 968 676 890 l 676 1014 l 718 1014 m 69 483 q 485 491 289 483 q 853 522 682 499 l 857 485 q 484 449 681 458 q 78 440 288 440 l 69 483 m 1019 290 l 1019 -89 l 976 -89 l 976 250 l 244 250 l 244 290 l 1019 290 m 1019 1101 l 1019 354 l 976 354 l 976 1101 l 1019 1101 z "},"괶":{"ha":1214,"x_min":0,"x_max":0,"o":""},"괷":{"ha":1214,"x_min":0,"x_max":0,"o":""},"괸":{"ha":1214,"x_min":69,"x_max":1060,"o":"m 700 1001 l 700 961 l 156 961 l 156 1001 l 700 1001 m 419 729 l 419 438 l 375 438 l 375 729 l 419 729 m 726 1001 l 726 950 q 720 784 726 867 q 690 593 714 701 l 647 599 q 678 789 672 708 q 685 950 685 869 l 685 1001 l 726 1001 m 69 454 q 481 463 279 454 q 856 492 683 471 l 857 454 q 482 420 682 431 q 81 408 282 410 l 69 454 m 1021 1101 l 1021 189 l 978 189 l 978 1101 l 1021 1101 m 1060 -15 l 1060 -56 l 289 -56 l 289 -15 l 1060 -15 m 332 269 l 332 -29 l 289 -29 l 289 269 l 332 269 z "},"괹":{"ha":1214,"x_min":0,"x_max":0,"o":""},"괺":{"ha":1214,"x_min":0,"x_max":0,"o":""},"괻":{"ha":1214,"x_min":0,"x_max":0,"o":""},"괼":{"ha":1214,"x_min":69,"x_max":1075,"o":"m 700 1025 l 700 985 l 156 985 l 156 1025 l 700 1025 m 419 806 l 419 525 l 375 525 l 375 806 l 419 806 m 719 1025 l 719 981 q 714 835 719 908 q 686 668 708 763 l 643 671 q 672 838 665 767 q 678 981 678 910 l 678 1025 l 719 1025 m 78 547 q 501 556 314 549 q 854 588 688 564 l 858 551 q 483 514 681 524 q 79 504 285 504 l 69 547 l 78 547 m 1021 1101 l 1021 440 l 978 440 l 978 1101 l 1021 1101 m 1021 379 l 1021 146 l 308 146 l 308 -54 l 265 -54 l 265 185 l 979 185 l 979 339 l 263 339 l 263 379 l 1021 379 m 1075 -29 l 1075 -69 l 265 -69 l 265 -29 l 1075 -29 z "},"괽":{"ha":1214,"x_min":0,"x_max":0,"o":""},"괾":{"ha":1214,"x_min":0,"x_max":0,"o":""},"괿":{"ha":1214,"x_min":0,"x_max":0,"o":""},"굀":{"ha":1214,"x_min":0,"x_max":0,"o":""},"굁":{"ha":1214,"x_min":0,"x_max":0,"o":""},"굂":{"ha":1214,"x_min":0,"x_max":0,"o":""},"굃":{"ha":1214,"x_min":0,"x_max":0,"o":""},"굄":{"ha":1214,"x_min":69,"x_max":1019,"o":"m 1019 1100 l 1019 389 l 976 389 l 976 1100 l 1019 1100 m 419 763 l 419 489 l 375 489 l 375 763 l 419 763 m 718 1021 l 718 968 q 713 817 718 890 q 686 650 707 744 l 643 656 q 671 822 665 751 q 676 968 676 893 l 676 1021 l 718 1021 m 1019 318 l 1019 -69 l 271 -69 l 271 318 l 1019 318 m 314 279 l 314 -29 l 978 -29 l 978 279 l 314 279 m 700 1021 l 700 981 l 156 981 l 156 1021 l 700 1021 m 69 515 q 489 523 296 515 q 853 554 682 531 l 857 518 q 486 481 679 490 q 78 472 293 472 l 69 515 z "},"굅":{"ha":1214,"x_min":69,"x_max":1019,"o":"m 1019 1100 l 1019 433 l 976 433 l 976 1100 l 1019 1100 m 418 754 l 418 499 l 375 499 l 375 754 l 418 754 m 715 1021 l 715 950 q 710 803 715 871 q 683 650 704 735 l 643 656 q 671 808 665 742 q 676 950 676 874 l 676 1021 l 715 1021 m 700 1021 l 700 982 l 156 982 l 156 1021 l 700 1021 m 69 515 q 483 525 283 517 q 853 554 683 533 l 857 518 q 475 483 681 494 q 78 472 269 472 l 69 515 m 303 371 l 303 203 l 976 203 l 976 371 l 1019 371 l 1019 -69 l 260 -69 l 260 371 l 303 371 m 303 -31 l 976 -31 l 976 163 l 303 163 l 303 -31 z "},"굆":{"ha":1214,"x_min":0,"x_max":0,"o":""},"굇":{"ha":1214,"x_min":69,"x_max":1085,"o":"m 1021 1100 l 1021 249 l 978 249 l 978 1100 l 1021 1100 m 419 747 l 419 474 l 375 474 l 375 747 l 419 747 m 719 1014 l 719 942 q 714 788 719 858 q 688 631 708 718 l 644 636 q 674 792 668 725 q 679 942 679 860 l 679 1014 l 719 1014 m 701 1014 l 701 975 l 157 975 l 157 1014 l 701 1014 m 69 485 q 488 494 292 486 q 854 524 685 503 l 858 489 q 479 452 682 463 q 79 442 276 442 l 69 485 m 663 344 l 663 286 q 596 114 663 189 q 429 -7 529 39 q 226 -74 329 -53 l 206 -37 q 396 22 300 -21 q 558 133 492 65 q 624 286 624 200 l 624 344 l 663 344 m 667 344 l 667 286 q 733 133 667 200 q 894 22 799 65 q 1085 -37 990 -21 l 1065 -74 q 863 -7 963 -53 q 695 114 763 39 q 628 286 628 189 l 628 344 l 667 344 z "},"굈":{"ha":1214,"x_min":0,"x_max":0,"o":""},"굉":{"ha":1214,"x_min":69,"x_max":1026,"o":"m 1019 1101 l 1019 336 l 976 336 l 976 1101 l 1019 1101 m 419 742 l 419 468 l 375 468 l 375 742 l 419 742 m 718 1018 l 718 943 q 713 785 718 857 q 686 622 707 713 l 644 628 q 672 790 667 719 q 678 943 678 860 l 678 1018 l 718 1018 m 700 1018 l 700 978 l 156 978 l 156 1018 l 700 1018 m 69 489 q 490 497 297 489 q 853 531 682 504 l 857 493 q 486 456 679 465 q 78 447 293 447 l 69 489 m 646 325 q 926 272 826 325 q 1026 122 1026 219 q 926 -29 1026 25 q 646 -83 825 -83 q 364 -29 465 -83 q 263 122 263 25 q 363 272 263 219 q 646 325 464 325 m 646 288 q 399 242 493 288 q 306 122 306 197 q 399 1 306 46 q 646 -44 492 -44 q 891 1 799 -44 q 983 122 983 46 q 891 242 983 197 q 646 288 799 288 z "},"굊":{"ha":1214,"x_min":0,"x_max":0,"o":""},"굋":{"ha":1214,"x_min":0,"x_max":0,"o":""},"굌":{"ha":1214,"x_min":0,"x_max":0,"o":""},"굍":{"ha":1214,"x_min":0,"x_max":0,"o":""},"굎":{"ha":1214,"x_min":0,"x_max":0,"o":""},"굏":{"ha":1214,"x_min":0,"x_max":0,"o":""},"교":{"ha":1214,"x_min":67,"x_max":1140,"o":"m 963 963 l 963 922 l 185 922 l 185 963 l 963 963 m 1140 144 l 1140 104 l 67 104 l 67 144 l 1140 144 m 414 556 l 414 122 l 369 122 l 369 556 l 414 556 m 985 963 l 985 818 q 978 553 985 661 q 943 311 971 446 l 899 319 q 935 557 928 450 q 942 818 942 664 l 942 963 l 985 963 m 708 556 l 708 122 l 664 122 l 664 556 l 708 556 z "},"굑":{"ha":1214,"x_min":0,"x_max":0,"o":""},"굒":{"ha":1214,"x_min":0,"x_max":0,"o":""},"굓":{"ha":1214,"x_min":0,"x_max":0,"o":""},"굔":{"ha":1214,"x_min":67,"x_max":1140,"o":"m 979 1025 l 979 985 l 200 985 l 200 1025 l 979 1025 m 1140 475 l 1140 435 l 67 435 l 67 475 l 1140 475 m 432 747 l 432 456 l 389 456 l 389 747 l 432 747 m 996 1025 l 996 928 q 991 751 996 826 q 965 582 986 675 l 919 586 q 947 755 942 681 q 953 928 953 829 l 953 1025 l 996 1025 m 726 747 l 726 456 l 683 456 l 683 747 l 726 747 m 1031 -18 l 1031 -58 l 215 -58 l 215 -18 l 1031 -18 m 260 290 l 260 -43 l 215 -43 l 215 290 l 260 290 z "},"굕":{"ha":1214,"x_min":0,"x_max":0,"o":""},"굖":{"ha":1214,"x_min":0,"x_max":0,"o":""},"굗":{"ha":1214,"x_min":0,"x_max":0,"o":""},"굘":{"ha":1214,"x_min":67,"x_max":1140,"o":"m 979 1054 l 979 1013 l 200 1013 l 200 1054 l 979 1054 m 1140 592 l 1140 551 l 67 551 l 67 592 l 1140 592 m 432 838 l 432 583 l 390 583 l 390 838 l 432 838 m 996 1054 l 996 969 q 992 825 996 886 q 971 689 988 764 l 928 694 q 949 831 944 771 q 953 969 953 890 l 953 1054 l 996 1054 m 725 838 l 725 583 l 683 583 l 683 838 l 725 838 m 1003 410 l 1003 160 l 249 160 l 249 -36 l 206 -36 l 206 200 l 960 200 l 960 369 l 201 369 l 201 410 l 1003 410 m 1032 -28 l 1032 -69 l 206 -69 l 206 -28 l 1032 -28 z "},"굙":{"ha":1214,"x_min":0,"x_max":0,"o":""},"굚":{"ha":1214,"x_min":0,"x_max":0,"o":""},"굛":{"ha":1214,"x_min":0,"x_max":0,"o":""},"굜":{"ha":1214,"x_min":0,"x_max":0,"o":""},"굝":{"ha":1214,"x_min":0,"x_max":0,"o":""},"굞":{"ha":1214,"x_min":0,"x_max":0,"o":""},"굟":{"ha":1214,"x_min":0,"x_max":0,"o":""},"굠":{"ha":1214,"x_min":67,"x_max":1140,"o":"m 1006 332 l 1006 -71 l 206 -71 l 206 332 l 1006 332 m 249 293 l 249 -29 l 963 -29 l 963 293 l 249 293 m 979 1046 l 979 1006 l 200 1006 l 200 1046 l 979 1046 m 1140 529 l 1140 489 l 67 489 l 67 529 l 1140 529 m 432 788 l 432 496 l 389 496 l 389 788 l 432 788 m 996 1046 l 996 958 q 991 797 996 867 q 965 640 986 726 l 921 644 q 947 800 942 732 q 953 958 953 868 l 953 1046 l 996 1046 m 726 788 l 726 496 l 683 496 l 683 788 l 726 788 z "},"굡":{"ha":1214,"x_min":68,"x_max":1142,"o":"m 979 1047 l 979 1007 l 200 1007 l 200 1047 l 979 1047 m 1142 557 l 1142 517 l 68 517 l 68 557 l 1142 557 m 433 799 l 433 544 l 390 544 l 390 799 l 433 799 m 996 1047 l 996 950 q 990 793 996 858 q 964 649 985 728 l 919 656 q 947 799 942 735 q 953 950 953 863 l 953 1047 l 996 1047 m 725 799 l 725 544 l 682 544 l 682 799 l 725 799 m 264 400 l 264 222 l 946 222 l 946 400 l 989 400 l 989 -71 l 219 -71 l 219 400 l 264 400 m 264 -31 l 946 -31 l 946 182 l 264 182 l 264 -31 z "},"굢":{"ha":1214,"x_min":0,"x_max":0,"o":""},"굣":{"ha":1214,"x_min":67,"x_max":1140,"o":"m 979 1042 l 979 1003 l 200 1003 l 200 1042 l 979 1042 m 1140 513 l 1140 472 l 67 472 l 67 513 l 1140 513 m 433 778 l 433 500 l 390 500 l 390 778 l 433 778 m 996 1042 l 996 939 q 990 773 996 840 q 964 622 985 706 l 921 631 q 947 778 942 711 q 953 939 953 844 l 953 1042 l 996 1042 m 725 778 l 725 500 l 682 500 l 682 778 l 725 778 m 617 364 l 617 292 q 549 113 617 190 q 382 -12 482 36 q 178 -83 282 -61 l 158 -46 q 349 15 253 -29 q 512 131 446 60 q 578 292 578 201 l 578 364 l 617 364 m 624 364 l 624 292 q 690 131 624 201 q 851 15 756 60 q 1042 -46 947 -29 l 1021 -83 q 817 -12 917 -61 q 651 113 718 36 q 583 292 583 190 l 583 364 l 624 364 z "},"굤":{"ha":1214,"x_min":0,"x_max":0,"o":""},"굥":{"ha":1214,"x_min":67,"x_max":1140,"o":"m 979 1039 l 979 997 l 200 997 l 200 1039 l 979 1039 m 1140 518 l 1140 479 l 67 479 l 67 518 l 1140 518 m 432 779 l 432 488 l 389 488 l 389 779 l 432 779 m 996 1039 l 996 949 q 991 788 996 858 q 965 632 986 718 l 921 635 q 947 792 942 724 q 953 949 953 860 l 953 1039 l 996 1039 m 726 779 l 726 488 l 683 488 l 683 779 l 726 779 m 601 339 q 817 313 725 339 q 958 240 908 288 q 1008 126 1008 192 q 958 13 1008 61 q 817 -60 908 -35 q 601 -85 725 -85 q 386 -60 478 -85 q 245 13 294 -35 q 196 126 196 61 q 245 240 196 192 q 386 313 294 288 q 601 339 478 339 m 601 300 q 413 278 496 300 q 285 217 331 257 q 239 126 239 178 q 285 38 239 76 q 414 -23 332 -1 q 601 -44 496 -44 q 790 -23 707 -44 q 918 38 872 -1 q 964 126 964 76 q 918 217 964 178 q 790 278 872 257 q 601 300 707 300 z "},"굦":{"ha":1214,"x_min":0,"x_max":0,"o":""},"굧":{"ha":1214,"x_min":0,"x_max":0,"o":""},"굨":{"ha":1214,"x_min":0,"x_max":0,"o":""},"굩":{"ha":1214,"x_min":0,"x_max":0,"o":""},"굪":{"ha":1214,"x_min":0,"x_max":0,"o":""},"굫":{"ha":1214,"x_min":0,"x_max":0,"o":""},"구":{"ha":1214,"x_min":67,"x_max":1140,"o":"m 954 1014 l 954 975 l 214 975 l 214 1014 l 954 1014 m 1140 499 l 1140 458 l 67 458 l 67 499 l 1140 499 m 626 478 l 626 -92 l 582 -92 l 582 478 l 626 478 m 983 1014 l 983 913 q 976 694 983 790 q 940 469 969 597 l 894 479 q 933 697 925 601 q 940 913 940 793 l 940 1014 l 983 1014 z "},"국":{"ha":1214,"x_min":67,"x_max":1146,"o":"m 988 1038 l 988 997 l 210 997 l 210 1038 l 988 1038 m 1146 597 l 1146 557 l 67 557 l 67 597 l 1146 597 m 626 574 l 626 263 l 583 263 l 583 574 l 626 574 m 992 1038 l 992 958 q 985 773 992 858 q 950 575 978 688 l 908 583 q 942 777 935 693 q 949 958 949 861 l 949 1038 l 992 1038 m 1006 289 l 1006 -89 l 961 -89 l 961 249 l 182 249 l 182 289 l 1006 289 z "},"굮":{"ha":1214,"x_min":0,"x_max":0,"o":""},"굯":{"ha":1214,"x_min":0,"x_max":0,"o":""},"군":{"ha":1214,"x_min":67,"x_max":1146,"o":"m 976 1029 l 976 989 l 210 989 l 210 1029 l 976 1029 m 1146 553 l 1146 514 l 67 514 l 67 553 l 1146 553 m 629 529 l 629 194 l 585 194 l 585 529 l 629 529 m 992 1029 l 992 943 q 985 741 992 833 q 950 525 978 649 l 907 535 q 942 744 935 653 q 949 943 949 835 l 949 1029 l 992 1029 m 1024 -17 l 1024 -57 l 215 -57 l 215 -17 l 1024 -17 m 260 301 l 260 -33 l 215 -33 l 215 301 l 260 301 z "},"굱":{"ha":1214,"x_min":0,"x_max":0,"o":""},"굲":{"ha":1214,"x_min":0,"x_max":0,"o":""},"굳":{"ha":1214,"x_min":67,"x_max":1146,"o":"m 988 1038 l 988 997 l 210 997 l 210 1038 l 988 1038 m 1146 606 l 1146 565 l 67 565 l 67 606 l 1146 606 m 626 585 l 626 306 l 583 306 l 583 585 l 626 585 m 992 1038 l 992 957 q 985 771 992 857 q 950 574 978 685 l 908 583 q 942 776 935 693 q 949 957 949 860 l 949 1038 l 992 1038 m 1007 325 l 1007 285 l 249 285 l 249 -47 l 204 -47 l 204 325 l 1007 325 m 1014 -31 l 1014 -71 l 204 -71 l 204 -31 l 1014 -31 z "},"굴":{"ha":1214,"x_min":67,"x_max":1146,"o":"m 988 1050 l 988 1008 l 210 1008 l 210 1050 l 988 1050 m 1146 649 l 1146 610 l 67 610 l 67 649 l 1146 649 m 625 626 l 625 389 l 582 389 l 582 626 l 625 626 m 992 1050 l 992 978 q 986 808 992 886 q 960 628 981 729 l 917 635 q 943 813 938 736 q 949 978 949 889 l 949 1050 l 992 1050 m 1003 414 l 1003 158 l 249 158 l 249 -39 l 206 -39 l 206 199 l 960 199 l 960 374 l 201 374 l 201 414 l 1003 414 m 1033 -28 l 1033 -69 l 206 -69 l 206 -28 l 1033 -28 z "},"굵":{"ha":1214,"x_min":65,"x_max":1144,"o":"m 986 1050 l 986 1010 l 210 1010 l 210 1050 l 986 1050 m 1144 642 l 1144 600 l 65 600 l 65 642 l 1144 642 m 624 624 l 624 400 l 582 400 l 582 624 l 624 624 m 992 1050 l 992 979 q 986 808 992 888 q 960 629 981 729 l 917 636 q 943 814 938 738 q 949 979 949 890 l 949 1050 l 992 1050 m 258 -29 q 483 -22 392 -29 q 674 7 575 -15 l 681 -35 q 485 -64 578 -57 q 258 -71 393 -71 l 192 -71 l 192 -29 l 258 -29 m 575 376 l 575 146 l 233 146 l 233 -49 l 192 -49 l 192 186 l 532 186 l 532 336 l 188 336 l 188 376 l 575 376 m 1014 376 l 1014 -78 l 969 -78 l 969 336 l 646 336 l 646 376 l 1014 376 z "},"굶":{"ha":1214,"x_min":65,"x_max":1144,"o":"m 986 1051 l 986 1010 l 210 1010 l 210 1051 l 986 1051 m 1144 642 l 1144 601 l 65 601 l 65 642 l 1144 642 m 624 621 l 624 410 l 582 410 l 582 621 l 624 621 m 992 1051 l 992 979 q 986 809 992 888 q 960 629 981 731 l 917 636 q 943 814 938 738 q 949 979 949 890 l 949 1051 l 992 1051 m 557 388 l 557 153 l 231 153 l 231 -53 l 189 -53 l 189 193 l 514 193 l 514 349 l 185 349 l 185 388 l 557 388 m 1018 388 l 1018 -71 l 647 -71 l 647 388 l 1018 388 m 689 350 l 689 -31 l 975 -31 l 975 350 l 689 350 m 246 -29 q 444 -25 369 -29 q 597 -6 518 -21 l 606 -44 q 450 -66 524 -61 q 246 -71 376 -71 l 189 -71 l 189 -29 l 246 -29 z "},"굷":{"ha":1214,"x_min":0,"x_max":0,"o":""},"굸":{"ha":1214,"x_min":0,"x_max":0,"o":""},"굹":{"ha":1214,"x_min":0,"x_max":0,"o":""},"굺":{"ha":1214,"x_min":0,"x_max":0,"o":""},"굻":{"ha":1214,"x_min":65,"x_max":1144,"o":"m 986 1053 l 986 1013 l 210 1013 l 210 1053 l 986 1053 m 1144 640 l 1144 600 l 65 600 l 65 640 l 1144 640 m 625 615 l 625 404 l 582 404 l 582 615 l 625 615 m 990 1053 l 990 981 q 985 806 990 888 q 958 622 979 725 l 917 629 q 943 810 938 732 q 949 981 949 889 l 949 1053 l 990 1053 m 1083 332 l 1083 292 l 594 292 l 594 332 l 1083 332 m 839 235 q 975 191 922 235 q 1028 74 1028 147 q 975 -43 1028 0 q 839 -86 922 -86 q 703 -43 756 -86 q 650 74 650 0 q 703 191 650 147 q 839 235 756 235 m 839 196 q 731 162 772 196 q 690 74 690 128 q 731 -15 690 19 q 839 -49 772 -49 q 946 -15 906 -49 q 986 74 986 19 q 946 162 986 128 q 839 196 906 196 m 858 454 l 858 310 l 815 310 l 815 454 l 858 454 m 546 388 l 546 150 l 231 150 l 231 -53 l 189 -53 l 189 190 l 503 190 l 503 349 l 185 349 l 185 388 l 546 388 m 246 -31 q 447 -26 372 -31 q 603 -6 522 -21 l 611 -44 q 450 -66 526 -61 q 246 -71 374 -71 l 189 -71 l 189 -31 l 246 -31 z "},"굼":{"ha":1214,"x_min":67,"x_max":1146,"o":"m 988 1040 l 988 1001 l 210 1001 l 210 1040 l 988 1040 m 1146 610 l 1146 569 l 67 569 l 67 610 l 1146 610 m 625 585 l 625 306 l 582 306 l 582 585 l 625 585 m 992 1040 l 992 963 q 985 778 992 864 q 950 583 978 693 l 908 593 q 942 784 935 701 q 949 963 949 867 l 949 1040 l 992 1040 m 1006 324 l 1006 -69 l 206 -69 l 206 324 l 1006 324 m 249 285 l 249 -29 l 963 -29 l 963 285 l 249 285 z "},"굽":{"ha":1214,"x_min":67,"x_max":1146,"o":"m 988 1044 l 988 1004 l 210 1004 l 210 1044 l 988 1044 m 1146 614 l 1146 574 l 67 574 l 67 614 l 1146 614 m 625 589 l 625 322 l 582 322 l 582 589 l 625 589 m 992 1044 l 992 967 q 985 783 992 868 q 950 588 978 697 l 908 597 q 942 788 935 706 q 949 967 949 871 l 949 1044 l 992 1044 m 264 403 l 264 219 l 950 219 l 950 403 l 994 403 l 994 -69 l 219 -69 l 219 403 l 264 403 m 264 -29 l 950 -29 l 950 179 l 264 179 l 264 -29 z "},"굾":{"ha":1214,"x_min":0,"x_max":0,"o":""},"굿":{"ha":1214,"x_min":67,"x_max":1146,"o":"m 988 1046 l 988 1007 l 210 1007 l 210 1046 l 988 1046 m 1146 610 l 1146 569 l 67 569 l 67 610 l 1146 610 m 625 586 l 625 356 l 582 356 l 582 586 l 625 586 m 992 1046 l 992 968 q 985 781 992 867 q 953 583 978 696 l 911 593 q 942 787 936 703 q 949 968 949 871 l 949 1046 l 992 1046 m 621 301 l 621 249 q 553 88 621 157 q 384 -22 485 19 q 178 -82 283 -64 l 161 -46 q 351 6 254 -32 q 515 107 449 44 q 582 249 582 169 l 582 301 l 621 301 m 625 301 l 625 249 q 692 107 625 169 q 856 6 758 44 q 1046 -46 953 -32 l 1029 -82 q 823 -22 924 -64 q 654 88 722 19 q 586 249 586 157 l 586 301 l 625 301 z "},"궀":{"ha":1214,"x_min":0,"x_max":0,"o":""},"궁":{"ha":1214,"x_min":67,"x_max":1146,"o":"m 988 1039 l 988 1000 l 210 1000 l 210 1039 l 988 1039 m 1146 601 l 1146 561 l 67 561 l 67 601 l 1146 601 m 625 571 l 625 317 l 582 317 l 582 571 l 625 571 m 992 1039 l 992 963 q 985 778 992 864 q 950 583 978 693 l 908 592 q 942 784 935 701 q 949 963 949 867 l 949 1039 l 992 1039 m 601 335 q 901 280 793 335 q 1008 125 1008 225 q 901 -29 1008 25 q 601 -83 793 -83 q 303 -29 410 -83 q 196 125 196 25 q 303 280 196 225 q 601 335 410 335 m 601 296 q 338 250 438 296 q 239 125 239 204 q 338 1 239 47 q 601 -44 438 -44 q 865 1 765 -44 q 964 125 964 47 q 865 250 964 204 q 601 296 765 296 z "},"궂":{"ha":1214,"x_min":67,"x_max":1146,"o":"m 988 1040 l 988 1001 l 210 1001 l 210 1040 l 988 1040 m 1146 617 l 1146 578 l 67 578 l 67 617 l 1146 617 m 628 599 l 628 325 l 583 325 l 583 599 l 628 599 m 992 1040 l 992 967 q 985 787 992 869 q 953 596 978 704 l 911 604 q 942 792 936 711 q 949 967 949 872 l 949 1040 l 992 1040 m 624 307 l 624 292 q 554 111 624 189 q 383 -14 485 33 q 175 -83 282 -61 l 156 -46 q 350 15 251 -29 q 517 129 449 58 q 585 292 585 200 l 585 307 l 624 307 m 629 307 l 629 292 q 697 129 629 200 q 864 15 765 58 q 1058 -46 963 -29 l 1039 -83 q 830 -14 932 -61 q 658 111 728 33 q 589 292 589 189 l 589 307 l 629 307 m 1011 336 l 1011 296 l 201 296 l 201 336 l 1011 336 z "},"궃":{"ha":1214,"x_min":0,"x_max":0,"o":""},"궄":{"ha":1214,"x_min":0,"x_max":0,"o":""},"궅":{"ha":1214,"x_min":0,"x_max":0,"o":""},"궆":{"ha":1214,"x_min":0,"x_max":0,"o":""},"궇":{"ha":1214,"x_min":0,"x_max":0,"o":""},"궈":{"ha":1214,"x_min":60,"x_max":1008,"o":"m 457 519 l 457 -11 l 413 -11 l 413 519 l 457 519 m 1008 1100 l 1008 -90 l 964 -90 l 964 1100 l 1008 1100 m 60 536 q 488 544 292 538 q 858 569 683 551 l 863 532 q 478 501 682 510 q 67 493 274 493 l 60 536 m 986 346 l 986 304 l 663 304 l 663 346 l 986 346 m 686 997 l 686 957 l 165 957 l 165 997 l 686 997 m 699 997 l 699 939 q 693 747 699 842 q 667 528 688 651 l 622 531 q 650 749 644 656 q 656 939 656 842 l 656 997 l 699 997 z "},"궉":{"ha":1214,"x_min":57,"x_max":1010,"o":"m 449 642 l 449 344 l 404 344 l 404 642 l 449 642 m 1010 1101 l 1010 342 l 965 342 l 965 1101 l 1010 1101 m 57 656 q 462 661 264 656 q 832 681 660 667 l 836 646 q 470 621 665 628 q 64 614 275 614 l 57 656 m 979 518 l 979 479 l 675 479 l 675 518 l 979 518 m 685 1040 l 685 1000 l 176 1000 l 176 1040 l 685 1040 m 704 1040 l 704 982 q 699 826 704 901 q 672 653 693 750 l 628 657 q 656 831 650 757 q 661 982 661 904 l 661 1040 l 704 1040 m 1008 290 l 1008 -82 l 964 -82 l 964 251 l 238 251 l 238 290 l 1008 290 z "},"궊":{"ha":1214,"x_min":0,"x_max":0,"o":""},"궋":{"ha":1214,"x_min":0,"x_max":0,"o":""},"권":{"ha":1214,"x_min":57,"x_max":1042,"o":"m 460 590 l 460 279 l 417 279 l 417 590 l 460 590 m 1010 1100 l 1010 199 l 965 199 l 965 1100 l 1010 1100 m 1042 -15 l 1042 -56 l 246 -56 l 246 -15 l 1042 -15 m 290 307 l 290 -36 l 246 -36 l 246 307 l 290 307 m 57 610 q 472 617 279 610 q 833 649 664 625 l 838 614 q 472 576 664 585 q 65 567 279 567 l 57 610 m 981 442 l 981 401 l 676 401 l 676 442 l 981 442 m 685 1015 l 685 976 l 164 976 l 164 1015 l 685 1015 m 706 1015 l 706 965 q 699 795 706 879 q 671 603 693 711 l 626 607 q 655 800 649 718 q 661 965 661 882 l 661 1015 l 706 1015 z "},"궍":{"ha":1214,"x_min":0,"x_max":0,"o":""},"궎":{"ha":1214,"x_min":0,"x_max":0,"o":""},"궏":{"ha":1214,"x_min":0,"x_max":0,"o":""},"궐":{"ha":1214,"x_min":57,"x_max":1063,"o":"m 449 674 l 449 418 l 404 418 l 404 674 l 449 674 m 1010 1101 l 1010 415 l 965 415 l 965 1101 l 1010 1101 m 57 686 q 472 694 279 686 q 833 726 664 701 l 838 690 q 472 653 664 663 q 65 644 279 644 l 57 686 m 981 565 l 981 525 l 675 525 l 675 565 l 981 565 m 685 1040 l 685 1000 l 178 1000 l 178 1040 l 685 1040 m 706 1040 l 706 1022 q 700 871 706 953 q 672 681 694 789 l 628 683 q 656 874 650 794 q 663 1022 663 954 l 663 1040 l 706 1040 m 1010 367 l 1010 136 l 296 136 l 296 -43 l 254 -43 l 254 176 l 967 176 l 967 328 l 250 328 l 250 367 l 1010 367 m 1063 -29 l 1063 -69 l 254 -69 l 254 -29 l 1063 -29 z "},"궑":{"ha":1214,"x_min":0,"x_max":0,"o":""},"궒":{"ha":1214,"x_min":0,"x_max":0,"o":""},"궓":{"ha":1214,"x_min":0,"x_max":0,"o":""},"궔":{"ha":1214,"x_min":0,"x_max":0,"o":""},"궕":{"ha":1214,"x_min":0,"x_max":0,"o":""},"궖":{"ha":1214,"x_min":0,"x_max":0,"o":""},"궗":{"ha":1214,"x_min":0,"x_max":0,"o":""},"궘":{"ha":1214,"x_min":0,"x_max":0,"o":""},"궙":{"ha":1214,"x_min":0,"x_max":0,"o":""},"궚":{"ha":1214,"x_min":0,"x_max":0,"o":""},"궛":{"ha":1214,"x_min":0,"x_max":0,"o":""},"궜":{"ha":1214,"x_min":58,"x_max":1118,"o":"m 450 668 l 450 382 l 406 382 l 406 668 l 450 668 m 1011 1101 l 1011 379 l 967 379 l 967 1101 l 1011 1101 m 58 674 q 474 681 282 674 q 835 715 665 689 l 838 678 q 472 640 664 649 q 67 631 281 631 l 58 674 m 981 540 l 981 500 l 676 500 l 676 540 l 981 540 m 686 1044 l 686 1006 l 178 1006 l 178 1044 l 686 1044 m 706 1044 l 706 990 q 700 837 706 911 q 674 668 694 763 l 629 672 q 657 841 651 769 q 663 990 663 913 l 663 1044 l 706 1044 m 438 335 l 438 282 q 365 80 438 175 q 175 -61 292 -15 l 151 -25 q 279 50 222 1 q 368 160 336 99 q 400 282 400 221 l 400 335 l 438 335 m 442 335 l 442 282 q 467 162 442 224 q 542 47 493 100 q 656 -35 590 -6 l 635 -69 q 509 20 561 -37 q 431 147 457 78 q 404 282 404 217 l 404 335 l 442 335 m 865 335 l 865 282 q 839 147 865 217 q 760 20 813 78 q 635 -69 708 -37 l 613 -35 q 728 47 679 -6 q 802 162 776 100 q 828 282 828 224 l 828 335 l 865 335 m 869 335 l 869 282 q 901 160 869 221 q 990 50 933 99 q 1118 -25 1047 1 l 1094 -61 q 905 80 978 -15 q 832 282 832 175 l 832 335 l 869 335 z "},"궝":{"ha":1214,"x_min":57,"x_max":1025,"o":"m 449 642 l 449 354 l 404 354 l 404 642 l 449 642 m 1010 1101 l 1010 336 l 965 336 l 965 1101 l 1010 1101 m 57 650 q 472 658 279 650 q 833 690 664 665 l 836 654 q 471 617 663 626 q 65 608 279 608 l 57 650 m 979 518 l 979 479 l 675 479 l 675 518 l 979 518 m 685 1040 l 685 1000 l 176 1000 l 176 1040 l 685 1040 m 704 1040 l 704 982 q 699 824 704 900 q 672 650 693 749 l 628 656 q 656 829 650 756 q 661 982 661 903 l 661 1040 l 704 1040 m 647 332 q 925 278 825 332 q 1025 125 1025 224 q 924 -30 1025 25 q 647 -85 824 -85 q 367 -30 468 -85 q 267 125 267 25 q 367 278 267 224 q 647 332 468 332 m 647 293 q 402 247 494 293 q 310 125 310 201 q 352 35 310 74 q 471 -24 394 -3 q 647 -46 547 -46 q 890 1 799 -46 q 982 125 982 47 q 890 247 982 201 q 647 293 799 293 z "},"궞":{"ha":1214,"x_min":0,"x_max":0,"o":""},"궟":{"ha":1214,"x_min":0,"x_max":0,"o":""},"궠":{"ha":1214,"x_min":0,"x_max":0,"o":""},"궡":{"ha":1214,"x_min":0,"x_max":0,"o":""},"궢":{"ha":1214,"x_min":0,"x_max":0,"o":""},"궣":{"ha":1214,"x_min":0,"x_max":0,"o":""},"궤":{"ha":1214,"x_min":51,"x_max":1036,"o":"m 1036 1101 l 1036 -89 l 992 -89 l 992 1101 l 1036 1101 m 825 1068 l 825 -11 l 782 -11 l 782 1068 l 825 1068 m 804 332 l 804 290 l 524 290 l 524 332 l 804 332 m 579 958 l 579 918 l 115 918 l 115 958 l 579 958 m 383 503 l 383 21 l 339 21 l 339 503 l 383 503 m 594 958 l 594 901 q 589 722 594 808 q 561 521 583 635 l 521 528 q 549 727 543 642 q 554 901 554 813 l 554 958 l 594 958 m 51 524 q 689 557 472 524 l 693 522 q 400 490 557 497 q 61 482 243 482 l 51 524 z "},"궥":{"ha":1214,"x_min":0,"x_max":0,"o":""},"궦":{"ha":1214,"x_min":0,"x_max":0,"o":""},"궧":{"ha":1214,"x_min":0,"x_max":0,"o":""},"궨":{"ha":1214,"x_min":0,"x_max":0,"o":""},"궩":{"ha":1214,"x_min":0,"x_max":0,"o":""},"궪":{"ha":1214,"x_min":0,"x_max":0,"o":""},"궫":{"ha":1214,"x_min":0,"x_max":0,"o":""},"궬":{"ha":1214,"x_min":0,"x_max":0,"o":""},"궭":{"ha":1214,"x_min":0,"x_max":0,"o":""},"궮":{"ha":1214,"x_min":0,"x_max":0,"o":""},"궯":{"ha":1214,"x_min":0,"x_max":0,"o":""},"궰":{"ha":1214,"x_min":0,"x_max":0,"o":""},"궱":{"ha":1214,"x_min":0,"x_max":0,"o":""},"궲":{"ha":1214,"x_min":0,"x_max":0,"o":""},"궳":{"ha":1214,"x_min":0,"x_max":0,"o":""},"궴":{"ha":1214,"x_min":60,"x_max":1036,"o":"m 1036 292 l 1036 -69 l 271 -69 l 271 292 l 1036 292 m 314 254 l 314 -29 l 992 -29 l 992 254 l 314 254 m 1036 1101 l 1036 360 l 992 360 l 992 1101 l 1036 1101 m 825 1079 l 825 369 l 782 369 l 782 1079 l 825 1079 m 799 519 l 799 481 l 538 481 l 538 519 l 799 519 m 576 1008 l 576 969 l 125 969 l 125 1008 l 576 1008 m 399 617 l 399 374 l 356 374 l 356 617 l 399 617 m 593 1008 l 593 961 q 588 810 593 885 q 561 639 582 735 l 521 646 q 547 816 542 744 q 553 961 553 888 l 553 1008 l 593 1008 m 60 638 q 711 674 490 638 l 715 636 q 412 602 575 610 q 68 594 249 594 l 60 638 z "},"궵":{"ha":1214,"x_min":0,"x_max":0,"o":""},"궶":{"ha":1214,"x_min":0,"x_max":0,"o":""},"궷":{"ha":1214,"x_min":60,"x_max":1079,"o":"m 1038 1101 l 1038 224 l 993 224 l 993 1101 l 1038 1101 m 825 1079 l 825 265 l 782 265 l 782 1079 l 825 1079 m 800 489 l 800 450 l 539 450 l 539 489 l 800 489 m 578 997 l 578 957 l 126 957 l 126 997 l 578 997 m 400 596 l 400 274 l 357 274 l 357 596 l 400 596 m 593 997 l 593 946 q 588 789 593 867 q 561 611 582 711 l 521 617 q 547 793 542 718 q 553 946 553 868 l 553 997 l 593 997 m 60 611 q 713 646 489 611 l 717 610 q 412 576 575 583 q 68 568 249 568 l 60 611 m 656 310 l 656 269 q 588 99 656 172 q 421 -19 521 26 q 217 -85 321 -64 l 197 -47 q 389 11 292 -31 q 552 119 486 53 q 618 269 618 185 l 618 310 l 656 310 m 660 310 l 660 269 q 726 119 660 185 q 888 11 792 53 q 1079 -47 985 -31 l 1061 -85 q 857 -19 957 -64 q 690 99 757 26 q 622 269 622 172 l 622 310 l 660 310 z "},"궸":{"ha":1214,"x_min":61,"x_max":1146,"o":"m 1038 1101 l 1038 360 l 993 360 l 993 1101 l 1038 1101 m 826 1079 l 826 369 l 783 369 l 783 1079 l 826 1079 m 801 519 l 801 481 l 539 481 l 539 519 l 801 519 m 579 1008 l 579 969 l 128 969 l 128 1008 l 579 1008 m 401 617 l 401 374 l 357 374 l 357 617 l 401 617 m 594 1008 l 594 961 q 589 810 594 885 q 563 639 583 735 l 522 646 q 549 816 543 744 q 554 961 554 888 l 554 1008 l 594 1008 m 61 638 q 714 672 490 638 l 717 636 q 413 602 576 610 q 69 594 250 594 l 61 638 m 442 311 l 442 268 q 365 67 442 163 q 169 -74 289 -29 l 146 -37 q 277 35 218 -12 q 369 144 336 83 q 403 268 403 206 l 403 311 l 442 311 m 446 311 l 446 268 q 473 147 446 210 q 550 33 500 85 q 668 -47 600 -19 l 646 -83 q 471 65 535 -35 q 407 268 407 164 l 407 311 l 446 311 m 885 311 l 885 268 q 856 133 885 201 q 774 6 828 64 q 646 -83 719 -51 l 624 -47 q 742 33 690 -19 q 820 147 793 85 q 847 268 847 210 l 847 311 l 885 311 m 888 311 l 888 268 q 922 144 888 206 q 1015 35 956 83 q 1146 -37 1074 -12 l 1121 -74 q 926 67 1003 -29 q 850 268 850 163 l 850 311 l 888 311 z "},"궹":{"ha":1214,"x_min":0,"x_max":0,"o":""},"궺":{"ha":1214,"x_min":0,"x_max":0,"o":""},"궻":{"ha":1214,"x_min":0,"x_max":0,"o":""},"궼":{"ha":1214,"x_min":0,"x_max":0,"o":""},"궽":{"ha":1214,"x_min":0,"x_max":0,"o":""},"궾":{"ha":1214,"x_min":0,"x_max":0,"o":""},"궿":{"ha":1214,"x_min":0,"x_max":0,"o":""},"귀":{"ha":1214,"x_min":57,"x_max":1018,"o":"m 469 493 l 469 -12 l 425 -12 l 425 493 l 469 493 m 1018 1101 l 1018 -89 l 975 -89 l 975 1101 l 1018 1101 m 57 511 q 494 519 294 513 q 872 544 693 526 l 875 508 q 484 477 690 486 q 65 468 278 468 l 57 511 m 689 999 l 689 958 l 168 958 l 168 999 l 689 999 m 710 999 l 710 971 q 702 767 710 876 q 668 507 694 657 l 624 511 q 659 769 651 661 q 667 971 667 876 l 667 999 l 710 999 z "},"귁":{"ha":1214,"x_min":57,"x_max":1007,"o":"m 471 603 l 471 317 l 426 317 l 426 603 l 471 603 m 1007 1101 l 1007 410 l 963 410 l 963 1101 l 1007 1101 m 686 1033 l 686 993 l 179 993 l 179 1033 l 686 1033 m 708 1033 l 708 957 q 703 788 708 865 q 679 615 699 711 l 635 617 q 660 792 656 715 q 665 957 665 868 l 665 1033 l 708 1033 m 1007 335 l 1007 -96 l 963 -96 l 963 294 l 231 294 l 231 335 l 1007 335 m 57 614 q 483 621 293 614 q 846 653 674 628 l 850 617 q 482 579 674 588 q 64 571 290 571 l 57 614 z "},"귂":{"ha":1214,"x_min":0,"x_max":0,"o":""},"귃":{"ha":1214,"x_min":0,"x_max":0,"o":""},"귄":{"ha":1214,"x_min":67,"x_max":1050,"o":"m 506 556 l 506 258 l 461 258 l 461 556 l 506 556 m 67 582 q 486 590 293 582 q 850 621 679 597 l 856 586 q 486 548 679 557 q 76 539 293 539 l 67 582 m 689 1010 l 689 971 l 182 971 l 182 1010 l 689 1010 m 719 1010 l 719 989 q 714 808 719 906 q 689 581 708 711 l 646 583 q 672 811 667 715 q 678 989 678 907 l 678 1010 l 719 1010 m 1008 1101 l 1008 207 l 964 207 l 964 1101 l 1008 1101 m 1050 -15 l 1050 -56 l 256 -56 l 256 -15 l 1050 -15 m 299 297 l 299 -32 l 256 -32 l 256 297 l 299 297 z "},"귅":{"ha":1214,"x_min":0,"x_max":0,"o":""},"귆":{"ha":1214,"x_min":0,"x_max":0,"o":""},"귇":{"ha":1214,"x_min":0,"x_max":0,"o":""},"귈":{"ha":1214,"x_min":71,"x_max":1061,"o":"m 471 633 l 471 403 l 428 403 l 428 633 l 471 633 m 1008 1100 l 1008 469 l 964 469 l 964 1100 l 1008 1100 m 71 653 q 483 658 289 653 q 849 678 676 663 l 853 642 q 491 617 682 624 q 81 608 300 610 l 71 653 m 686 1040 l 686 1000 l 181 1000 l 181 1040 l 686 1040 m 708 1040 l 708 1021 q 703 858 708 946 q 681 653 699 771 l 638 656 q 662 862 657 776 q 667 1021 667 947 l 667 1040 l 708 1040 m 1008 411 l 1008 160 l 294 160 l 294 -42 l 253 -42 l 253 197 l 965 197 l 965 371 l 249 371 l 249 411 l 1008 411 m 1061 -29 l 1061 -69 l 253 -69 l 253 -29 l 1061 -29 z "},"귉":{"ha":1214,"x_min":0,"x_max":0,"o":""},"귊":{"ha":1214,"x_min":0,"x_max":0,"o":""},"귋":{"ha":1214,"x_min":0,"x_max":0,"o":""},"귌":{"ha":1214,"x_min":0,"x_max":0,"o":""},"귍":{"ha":1214,"x_min":0,"x_max":0,"o":""},"귎":{"ha":1214,"x_min":0,"x_max":0,"o":""},"귏":{"ha":1214,"x_min":0,"x_max":0,"o":""},"귐":{"ha":1214,"x_min":57,"x_max":1007,"o":"m 1007 1101 l 1007 410 l 963 410 l 963 1101 l 1007 1101 m 686 1029 l 686 988 l 179 988 l 179 1029 l 686 1029 m 708 1029 l 708 947 q 703 769 708 850 q 679 586 699 689 l 635 590 q 660 774 656 694 q 665 947 665 853 l 665 1029 l 708 1029 m 57 596 q 478 603 285 596 q 846 636 672 611 l 850 601 q 478 563 672 572 q 64 553 283 553 l 57 596 m 1007 328 l 1007 -69 l 258 -69 l 258 328 l 1007 328 m 300 290 l 300 -29 l 964 -29 l 964 290 l 300 290 m 471 594 l 471 315 l 426 315 l 426 594 l 471 594 z "},"귑":{"ha":1214,"x_min":57,"x_max":1007,"o":"m 475 611 l 475 356 l 431 356 l 431 611 l 475 611 m 1007 1101 l 1007 428 l 963 428 l 963 1101 l 1007 1101 m 57 638 q 477 644 282 638 q 846 669 672 650 l 850 633 q 477 602 674 610 q 64 594 281 594 l 57 638 m 686 1036 l 686 996 l 179 996 l 179 1036 l 686 1036 m 708 1036 l 708 978 q 703 815 708 893 q 679 635 699 736 l 635 639 q 660 818 654 742 q 665 978 665 894 l 665 1036 l 708 1036 m 300 372 l 300 204 l 964 204 l 964 372 l 1007 372 l 1007 -69 l 257 -69 l 257 372 l 300 372 m 300 -29 l 964 -29 l 964 164 l 300 164 l 300 -29 z "},"귒":{"ha":1214,"x_min":0,"x_max":0,"o":""},"귓":{"ha":1214,"x_min":68,"x_max":1107,"o":"m 458 578 l 458 281 l 415 281 l 415 578 l 458 578 m 1010 1100 l 1010 249 l 965 249 l 965 1100 l 1010 1100 m 68 596 q 485 603 293 596 q 849 636 678 611 l 853 600 q 485 562 678 571 q 76 553 293 553 l 68 596 m 689 1024 l 689 982 l 182 982 l 182 1024 l 689 1024 m 711 1024 l 711 960 q 706 783 711 868 q 681 590 700 699 l 636 594 q 663 787 657 704 q 668 960 668 869 l 668 1024 l 711 1024 m 686 351 l 686 276 q 619 105 686 179 q 452 -16 551 31 q 249 -83 353 -62 l 229 -47 q 419 13 322 -31 q 581 124 515 56 q 647 276 647 192 l 647 351 l 686 351 m 689 351 l 689 276 q 755 124 689 192 q 917 13 821 56 q 1107 -47 1014 -31 l 1088 -83 q 884 -16 983 -62 q 718 105 785 31 q 651 276 651 179 l 651 351 l 689 351 z "},"귔":{"ha":1214,"x_min":0,"x_max":0,"o":""},"귕":{"ha":1214,"x_min":67,"x_max":1014,"o":"m 457 578 l 457 292 l 414 292 l 414 578 l 457 578 m 1008 1100 l 1008 322 l 964 322 l 964 1100 l 1008 1100 m 67 590 q 484 598 292 590 q 847 631 676 606 l 851 594 q 487 557 676 565 q 75 549 297 549 l 67 590 m 688 1021 l 688 981 l 181 981 l 181 1021 l 688 1021 m 710 1021 l 710 957 q 704 782 710 867 q 679 588 699 697 l 635 592 q 661 784 656 701 q 667 957 667 867 l 667 1021 l 710 1021 m 633 336 q 913 281 813 336 q 1014 126 1014 226 q 913 -28 1014 26 q 633 -83 813 -83 q 352 -28 453 -83 q 251 126 251 26 q 352 281 251 226 q 633 336 453 336 m 633 297 q 455 276 532 297 q 335 216 378 254 q 293 126 293 178 q 335 37 293 75 q 455 -23 378 -1 q 633 -44 532 -44 q 810 -23 733 -44 q 930 37 888 -1 q 972 126 972 75 q 930 216 972 178 q 810 276 888 254 q 633 297 733 297 z "},"귖":{"ha":1214,"x_min":0,"x_max":0,"o":""},"귗":{"ha":1214,"x_min":0,"x_max":0,"o":""},"귘":{"ha":1214,"x_min":0,"x_max":0,"o":""},"귙":{"ha":1214,"x_min":0,"x_max":0,"o":""},"귚":{"ha":1214,"x_min":0,"x_max":0,"o":""},"귛":{"ha":1214,"x_min":0,"x_max":0,"o":""},"규":{"ha":1214,"x_min":67,"x_max":1140,"o":"m 954 1013 l 954 974 l 214 974 l 214 1013 l 954 1013 m 1140 485 l 1140 446 l 67 446 l 67 485 l 1140 485 m 426 476 l 426 -87 l 382 -87 l 382 476 l 426 476 m 983 1013 l 983 911 q 976 692 983 789 q 942 468 969 594 l 897 478 q 933 696 926 600 q 940 911 940 792 l 940 1013 l 983 1013 m 826 476 l 826 -87 l 783 -87 l 783 476 l 826 476 z "},"귝":{"ha":1214,"x_min":0,"x_max":0,"o":""},"귞":{"ha":1214,"x_min":0,"x_max":0,"o":""},"귟":{"ha":1214,"x_min":0,"x_max":0,"o":""},"균":{"ha":1214,"x_min":67,"x_max":1146,"o":"m 976 1028 l 976 988 l 210 988 l 210 1028 l 976 1028 m 1146 574 l 1146 533 l 67 533 l 67 574 l 1146 574 m 468 551 l 468 217 l 426 217 l 426 551 l 468 551 m 992 1028 l 992 949 q 986 758 992 846 q 957 558 981 671 l 915 567 q 943 763 938 678 q 949 949 949 849 l 949 1028 l 992 1028 m 1024 -17 l 1024 -57 l 215 -57 l 215 -17 l 1024 -17 m 260 300 l 260 -35 l 215 -35 l 215 300 l 260 300 m 814 551 l 814 217 l 771 217 l 771 551 l 814 551 z "},"귡":{"ha":1214,"x_min":0,"x_max":0,"o":""},"귢":{"ha":1214,"x_min":0,"x_max":0,"o":""},"귣":{"ha":1214,"x_min":0,"x_max":0,"o":""},"귤":{"ha":1214,"x_min":67,"x_max":1146,"o":"m 426 636 l 426 386 l 382 386 l 382 636 l 426 636 m 831 636 l 831 386 l 786 386 l 786 636 l 831 636 m 988 1050 l 988 1008 l 210 1008 l 210 1050 l 988 1050 m 1146 651 l 1146 613 l 67 613 l 67 651 l 1146 651 m 992 1050 l 992 978 q 986 808 992 886 q 960 628 981 729 l 917 635 q 943 813 938 736 q 949 978 949 889 l 949 1050 l 992 1050 m 1003 414 l 1003 158 l 249 158 l 249 -39 l 206 -39 l 206 199 l 960 199 l 960 374 l 201 374 l 201 414 l 1003 414 m 1033 -28 l 1033 -69 l 206 -69 l 206 -28 l 1033 -28 z "},"귥":{"ha":1214,"x_min":0,"x_max":0,"o":""},"귦":{"ha":1214,"x_min":0,"x_max":0,"o":""},"귧":{"ha":1214,"x_min":0,"x_max":0,"o":""},"귨":{"ha":1214,"x_min":0,"x_max":0,"o":""},"귩":{"ha":1214,"x_min":0,"x_max":0,"o":""},"귪":{"ha":1214,"x_min":0,"x_max":0,"o":""},"귫":{"ha":1214,"x_min":0,"x_max":0,"o":""},"귬":{"ha":1214,"x_min":67,"x_max":1146,"o":"m 988 1040 l 988 1001 l 210 1001 l 210 1040 l 988 1040 m 1146 613 l 1146 572 l 67 572 l 67 613 l 1146 613 m 992 1040 l 992 963 q 985 778 992 864 q 950 583 978 693 l 908 593 q 942 784 935 701 q 949 963 949 867 l 949 1040 l 992 1040 m 1006 324 l 1006 -69 l 206 -69 l 206 324 l 1006 324 m 249 285 l 249 -29 l 963 -29 l 963 285 l 249 285 m 426 596 l 426 297 l 382 297 l 382 596 l 426 596 m 831 596 l 831 297 l 786 297 l 786 596 l 831 596 z "},"귭":{"ha":1214,"x_min":0,"x_max":0,"o":""},"귮":{"ha":1214,"x_min":0,"x_max":0,"o":""},"귯":{"ha":1214,"x_min":0,"x_max":0,"o":""},"귰":{"ha":1214,"x_min":0,"x_max":0,"o":""},"귱":{"ha":1214,"x_min":0,"x_max":0,"o":""},"귲":{"ha":1214,"x_min":0,"x_max":0,"o":""},"귳":{"ha":1214,"x_min":0,"x_max":0,"o":""},"귴":{"ha":1214,"x_min":0,"x_max":0,"o":""},"귵":{"ha":1214,"x_min":0,"x_max":0,"o":""},"귶":{"ha":1214,"x_min":0,"x_max":0,"o":""},"귷":{"ha":1214,"x_min":0,"x_max":0,"o":""},"그":{"ha":1214,"x_min":67,"x_max":1140,"o":"m 968 958 l 968 917 l 190 917 l 190 958 l 968 958 m 1140 146 l 1140 104 l 67 104 l 67 146 l 1140 146 m 985 958 l 985 863 q 976 587 985 717 q 938 278 968 457 l 892 285 q 933 585 925 454 q 942 863 942 717 l 942 958 l 985 958 z "},"극":{"ha":1214,"x_min":67,"x_max":1146,"o":"m 988 1038 l 988 997 l 210 997 l 210 1038 l 988 1038 m 1146 582 l 1146 540 l 67 540 l 67 582 l 1146 582 m 992 1038 l 992 957 q 985 765 992 853 q 950 561 978 676 l 907 571 q 942 769 935 683 q 949 957 949 856 l 949 1038 l 992 1038 m 1006 324 l 1006 -94 l 961 -94 l 961 285 l 182 285 l 182 324 l 1006 324 z "},"귺":{"ha":1214,"x_min":0,"x_max":0,"o":""},"귻":{"ha":1214,"x_min":0,"x_max":0,"o":""},"근":{"ha":1214,"x_min":67,"x_max":1146,"o":"m 976 1025 l 976 985 l 210 985 l 210 1025 l 976 1025 m 1146 532 l 1146 492 l 67 492 l 67 532 l 1146 532 m 992 1025 l 992 943 q 985 733 992 831 q 953 510 978 636 l 910 517 q 942 737 935 642 q 949 943 949 832 l 949 1025 l 992 1025 m 1031 -15 l 1031 -56 l 215 -56 l 215 -15 l 1031 -15 m 260 328 l 260 -26 l 215 -26 l 215 328 l 260 328 z "},"귽":{"ha":1214,"x_min":0,"x_max":0,"o":""},"귾":{"ha":1214,"x_min":0,"x_max":0,"o":""},"귿":{"ha":1214,"x_min":65,"x_max":1144,"o":"m 986 1032 l 986 992 l 208 992 l 208 1032 l 986 1032 m 1144 590 l 1144 550 l 65 550 l 65 590 l 1144 590 m 990 1032 l 990 953 q 983 766 990 851 q 949 568 976 681 l 907 578 q 942 772 935 688 q 949 953 949 856 l 949 1032 l 990 1032 m 1007 335 l 1007 294 l 249 294 l 249 -37 l 204 -37 l 204 335 l 1007 335 m 1014 -31 l 1014 -71 l 204 -71 l 204 -31 l 1014 -31 z "},"글":{"ha":1214,"x_min":67,"x_max":1146,"o":"m 988 1047 l 988 1007 l 210 1007 l 210 1047 l 988 1047 m 1146 633 l 1146 593 l 67 593 l 67 633 l 1146 633 m 992 1047 l 992 975 q 986 803 992 882 q 960 619 981 724 l 917 628 q 943 807 938 729 q 949 975 949 885 l 949 1047 l 992 1047 m 1003 436 l 1003 169 l 249 169 l 249 -43 l 206 -43 l 206 210 l 960 210 l 960 396 l 201 396 l 201 436 l 1003 436 m 1033 -28 l 1033 -69 l 206 -69 l 206 -28 l 1033 -28 z "},"긁":{"ha":1214,"x_min":65,"x_max":1144,"o":"m 986 1043 l 986 1003 l 210 1003 l 210 1043 l 986 1043 m 1144 610 l 1144 569 l 65 569 l 65 610 l 1144 610 m 992 1043 l 992 965 q 985 781 992 867 q 953 586 978 696 l 911 594 q 942 787 936 704 q 949 965 949 869 l 949 1043 l 992 1043 m 258 -28 q 483 -21 392 -28 q 674 8 575 -14 l 681 -35 q 485 -62 578 -56 q 258 -69 393 -69 l 192 -69 l 192 -28 l 258 -28 m 575 397 l 575 156 l 233 156 l 233 -47 l 192 -47 l 192 194 l 532 194 l 532 357 l 188 357 l 188 397 l 575 397 m 1014 397 l 1014 -79 l 969 -79 l 969 357 l 646 357 l 646 397 l 1014 397 z "},"긂":{"ha":1214,"x_min":65,"x_max":1144,"o":"m 557 404 l 557 160 l 231 160 l 231 -49 l 189 -49 l 189 200 l 514 200 l 514 364 l 185 364 l 185 404 l 557 404 m 1018 404 l 1018 -71 l 647 -71 l 647 404 l 1018 404 m 689 365 l 689 -31 l 975 -31 l 975 365 l 689 365 m 246 -31 q 444 -26 369 -31 q 597 -6 518 -21 l 606 -44 q 450 -66 524 -61 q 246 -71 376 -71 l 189 -71 l 189 -31 l 246 -31 m 986 1043 l 986 1003 l 210 1003 l 210 1043 l 986 1043 m 1144 614 l 1144 574 l 65 574 l 65 614 l 1144 614 m 992 1043 l 992 965 q 985 781 992 867 q 953 586 978 696 l 911 596 q 942 787 936 704 q 949 965 949 869 l 949 1043 l 992 1043 z "},"긃":{"ha":1214,"x_min":0,"x_max":0,"o":""},"긄":{"ha":1214,"x_min":0,"x_max":0,"o":""},"긅":{"ha":1214,"x_min":0,"x_max":0,"o":""},"긆":{"ha":1214,"x_min":0,"x_max":0,"o":""},"긇":{"ha":1214,"x_min":65,"x_max":1144,"o":"m 1083 335 l 1083 294 l 594 294 l 594 335 l 1083 335 m 839 225 q 975 183 922 225 q 1028 69 1028 140 q 975 -43 1028 -1 q 839 -85 922 -85 q 703 -43 756 -85 q 650 69 650 -1 q 703 183 650 142 q 839 225 756 225 m 839 188 q 731 155 772 188 q 690 69 690 122 q 731 -15 690 17 q 839 -47 772 -47 q 946 -15 906 -47 q 986 69 986 17 q 946 155 986 122 q 839 188 906 188 m 858 456 l 858 311 l 815 311 l 815 456 l 858 456 m 546 411 l 546 161 l 231 161 l 231 -44 l 189 -44 l 189 201 l 503 201 l 503 371 l 185 371 l 185 411 l 546 411 m 246 -31 q 447 -26 372 -31 q 603 -6 522 -21 l 611 -44 q 450 -66 526 -61 q 246 -71 374 -71 l 189 -71 l 189 -31 l 246 -31 m 986 1042 l 986 1003 l 210 1003 l 210 1042 l 986 1042 m 1144 613 l 1144 572 l 65 572 l 65 613 l 1144 613 m 992 1042 l 992 965 q 985 781 992 867 q 953 586 978 696 l 911 594 q 942 787 936 704 q 949 965 949 869 l 949 1042 l 992 1042 z "},"금":{"ha":1214,"x_min":67,"x_max":1146,"o":"m 988 1028 l 988 988 l 210 988 l 210 1028 l 988 1028 m 1146 579 l 1146 539 l 67 539 l 67 579 l 1146 579 m 992 1028 l 992 947 q 984 754 992 843 q 949 550 976 665 l 907 560 q 942 759 935 672 q 949 947 949 846 l 949 1028 l 992 1028 m 1006 338 l 1006 -71 l 206 -71 l 206 338 l 1006 338 m 249 299 l 249 -31 l 963 -31 l 963 299 l 249 299 z "},"급":{"ha":1214,"x_min":67,"x_max":1146,"o":"m 264 417 l 264 226 l 950 226 l 950 417 l 994 417 l 994 -71 l 219 -71 l 219 417 l 264 417 m 264 -32 l 950 -32 l 950 188 l 264 188 l 264 -32 m 988 1040 l 988 1000 l 210 1000 l 210 1040 l 988 1040 m 1146 594 l 1146 551 l 67 551 l 67 594 l 1146 594 m 992 1040 l 992 960 q 985 773 992 860 q 950 574 978 686 l 908 583 q 942 777 935 693 q 949 960 949 861 l 949 1040 l 992 1040 z "},"긊":{"ha":1214,"x_min":0,"x_max":0,"o":""},"긋":{"ha":1214,"x_min":67,"x_max":1140,"o":"m 979 1033 l 979 992 l 200 992 l 200 1033 l 979 1033 m 1140 547 l 1140 506 l 67 506 l 67 547 l 1140 547 m 992 1033 l 992 946 q 984 743 992 836 q 949 528 976 650 l 907 538 q 942 747 935 656 q 949 946 949 838 l 949 1033 l 992 1033 m 617 371 l 617 300 q 549 119 617 197 q 383 -10 482 40 q 181 -85 285 -60 l 161 -47 q 350 17 254 -29 q 512 136 446 64 q 578 300 578 208 l 578 371 l 617 371 m 624 371 l 624 300 q 689 136 624 208 q 850 17 754 64 q 1039 -47 946 -29 l 1018 -85 q 816 -10 915 -60 q 650 119 717 40 q 583 300 583 197 l 583 371 l 624 371 z "},"긌":{"ha":1214,"x_min":0,"x_max":0,"o":""},"긍":{"ha":1214,"x_min":67,"x_max":1146,"o":"m 988 1031 l 988 990 l 210 990 l 210 1031 l 988 1031 m 1146 569 l 1146 529 l 67 529 l 67 569 l 1146 569 m 992 1031 l 992 949 q 985 756 992 844 q 950 553 978 668 l 907 563 q 942 761 935 675 q 949 949 949 847 l 949 1031 l 992 1031 m 601 344 q 900 288 792 344 q 1008 131 1008 232 q 900 -27 1008 29 q 601 -83 792 -83 q 303 -27 411 -83 q 196 131 196 29 q 303 288 196 232 q 601 344 411 344 m 601 306 q 412 284 494 306 q 284 223 329 263 q 239 131 239 183 q 284 39 239 78 q 412 -22 329 0 q 601 -43 494 -43 q 791 -22 708 -43 q 919 39 874 0 q 964 131 964 78 q 919 223 964 183 q 791 284 874 263 q 601 306 708 306 z "},"긎":{"ha":1214,"x_min":0,"x_max":0,"o":""},"긏":{"ha":1214,"x_min":0,"x_max":0,"o":""},"긐":{"ha":1214,"x_min":0,"x_max":0,"o":""},"긑":{"ha":1214,"x_min":0,"x_max":0,"o":""},"긒":{"ha":1214,"x_min":0,"x_max":0,"o":""},"긓":{"ha":1214,"x_min":67,"x_max":1146,"o":"m 1040 363 l 1040 322 l 171 322 l 171 363 l 1040 363 m 606 240 q 866 200 776 240 q 956 79 956 160 q 867 -43 956 -3 q 606 -83 778 -83 q 344 -43 433 -83 q 256 79 256 -3 q 345 200 256 160 q 606 240 435 240 m 606 203 q 379 170 461 203 q 297 79 297 138 q 379 -13 297 19 q 606 -46 461 -46 q 832 -13 750 -46 q 914 79 914 19 q 832 170 914 138 q 606 203 750 203 m 628 501 l 628 331 l 583 331 l 583 501 l 628 501 m 988 1046 l 988 1007 l 210 1007 l 210 1046 l 988 1046 m 1146 633 l 1146 593 l 67 593 l 67 633 l 1146 633 m 992 1046 l 992 975 q 986 802 992 882 q 960 619 981 722 l 917 628 q 943 807 938 729 q 949 975 949 885 l 949 1046 l 992 1046 z "},"긔":{"ha":1214,"x_min":71,"x_max":1010,"o":"m 722 947 l 722 908 l 160 908 l 160 947 l 722 947 m 746 947 l 746 872 q 739 660 746 760 q 707 428 732 560 l 663 438 q 696 664 689 565 q 703 872 703 763 l 703 947 l 746 947 m 1010 1101 l 1010 -89 l 965 -89 l 965 1101 l 1010 1101 m 71 268 q 501 276 304 268 q 876 310 699 283 l 879 274 q 501 235 697 244 q 83 225 306 225 l 71 268 z "},"긕":{"ha":1214,"x_min":0,"x_max":0,"o":""},"긖":{"ha":1214,"x_min":0,"x_max":0,"o":""},"긗":{"ha":1214,"x_min":0,"x_max":0,"o":""},"긘":{"ha":1214,"x_min":0,"x_max":0,"o":""},"긙":{"ha":1214,"x_min":0,"x_max":0,"o":""},"긚":{"ha":1214,"x_min":0,"x_max":0,"o":""},"긛":{"ha":1214,"x_min":0,"x_max":0,"o":""},"긜":{"ha":1214,"x_min":57,"x_max":1061,"o":"m 1008 1100 l 1008 476 l 964 476 l 964 1100 l 1008 1100 m 686 1033 l 686 993 l 179 993 l 179 1033 l 686 1033 m 708 1033 l 708 1013 q 703 847 708 936 q 681 639 699 757 l 638 640 q 662 851 657 763 q 667 1013 667 939 l 667 1033 l 708 1033 m 1008 411 l 1008 160 l 294 160 l 294 -42 l 253 -42 l 253 197 l 965 197 l 965 371 l 249 371 l 249 411 l 1008 411 m 1061 -29 l 1061 -69 l 253 -69 l 253 -29 l 1061 -29 m 57 628 q 479 635 285 628 q 847 669 674 643 l 851 633 q 479 594 674 604 q 65 585 285 585 l 57 628 z "},"긝":{"ha":1214,"x_min":0,"x_max":0,"o":""},"긞":{"ha":1214,"x_min":0,"x_max":0,"o":""},"긟":{"ha":1214,"x_min":0,"x_max":0,"o":""},"긠":{"ha":1214,"x_min":0,"x_max":0,"o":""},"긡":{"ha":1214,"x_min":0,"x_max":0,"o":""},"긢":{"ha":1214,"x_min":0,"x_max":0,"o":""},"긣":{"ha":1214,"x_min":0,"x_max":0,"o":""},"긤":{"ha":1214,"x_min":0,"x_max":0,"o":""},"긥":{"ha":1214,"x_min":0,"x_max":0,"o":""},"긦":{"ha":1214,"x_min":0,"x_max":0,"o":""},"긧":{"ha":1214,"x_min":0,"x_max":0,"o":""},"긨":{"ha":1214,"x_min":0,"x_max":0,"o":""},"긩":{"ha":1214,"x_min":0,"x_max":0,"o":""},"긪":{"ha":1214,"x_min":0,"x_max":0,"o":""},"긫":{"ha":1214,"x_min":0,"x_max":0,"o":""},"긬":{"ha":1214,"x_min":0,"x_max":0,"o":""},"긭":{"ha":1214,"x_min":0,"x_max":0,"o":""},"긮":{"ha":1214,"x_min":0,"x_max":0,"o":""},"긯":{"ha":1214,"x_min":0,"x_max":0,"o":""},"기":{"ha":1214,"x_min":92,"x_max":1025,"o":"m 1025 1101 l 1025 -89 l 982 -89 l 982 1101 l 1025 1101 m 678 968 q 615 653 678 804 q 426 374 551 501 q 118 156 300 246 l 92 193 q 385 396 264 275 q 571 662 507 517 q 635 964 635 807 l 635 968 l 678 968 m 646 968 l 646 928 l 138 928 l 138 968 l 646 968 z "},"긱":{"ha":1214,"x_min":88,"x_max":1026,"o":"m 683 1015 q 527 649 683 806 q 108 419 371 493 l 88 456 q 488 670 339 526 q 638 1006 638 814 l 638 1015 l 683 1015 m 651 1015 l 651 975 l 143 975 l 143 1015 l 651 1015 m 1026 332 l 1026 -93 l 982 -93 l 982 292 l 250 292 l 250 332 l 1026 332 m 1026 1100 l 1026 394 l 982 394 l 982 1100 l 1026 1100 z "},"긲":{"ha":1214,"x_min":0,"x_max":0,"o":""},"긳":{"ha":1214,"x_min":0,"x_max":0,"o":""},"긴":{"ha":1214,"x_min":89,"x_max":1063,"o":"m 1026 1100 l 1026 236 l 982 236 l 982 1100 l 1026 1100 m 685 1008 q 613 741 685 865 q 410 522 540 617 q 108 371 279 428 l 89 410 q 486 646 336 492 q 636 997 636 800 l 636 1008 l 685 1008 m 653 1008 l 653 968 l 146 968 l 146 1008 l 653 1008 m 1063 -15 l 1063 -56 l 279 -56 l 279 -15 l 1063 -15 m 324 301 l 324 -28 l 279 -28 l 279 301 l 324 301 z "},"긵":{"ha":1214,"x_min":0,"x_max":0,"o":""},"긶":{"ha":1214,"x_min":0,"x_max":0,"o":""},"긷":{"ha":1214,"x_min":89,"x_max":1049,"o":"m 683 1015 q 528 649 683 804 q 106 421 374 494 l 89 458 q 490 670 343 528 q 638 1006 638 813 l 638 1015 l 683 1015 m 651 1015 l 651 976 l 143 976 l 143 1015 l 651 1015 m 1025 1100 l 1025 408 l 981 408 l 981 1100 l 1025 1100 m 1029 339 l 1029 299 l 322 299 l 322 -60 l 278 -60 l 278 339 l 1029 339 m 1049 -29 l 1049 -69 l 278 -69 l 278 -29 l 1049 -29 z "},"길":{"ha":1214,"x_min":89,"x_max":1078,"o":"m 1026 1101 l 1026 485 l 982 485 l 982 1101 l 1026 1101 m 678 1029 q 604 778 678 892 q 402 585 531 665 q 108 460 274 504 l 89 497 q 481 697 332 563 q 631 1017 631 832 l 631 1029 l 678 1029 m 653 1029 l 653 988 l 146 988 l 146 1029 l 653 1029 m 1026 418 l 1026 164 l 329 164 l 329 -69 l 288 -69 l 288 203 l 983 203 l 983 378 l 283 378 l 283 418 l 1026 418 m 1078 -37 l 1078 -76 l 288 -76 l 288 -37 l 1078 -37 z "},"긹":{"ha":1214,"x_min":0,"x_max":0,"o":""},"긺":{"ha":1214,"x_min":86,"x_max":1026,"o":"m 1026 1101 l 1026 458 l 982 458 l 982 1101 l 1026 1101 m 679 1025 q 607 775 679 888 q 406 582 535 663 q 108 460 278 501 l 86 499 q 483 693 335 560 q 632 1013 632 826 l 632 1025 l 679 1025 m 651 1025 l 651 986 l 143 986 l 143 1025 l 651 1025 m 588 393 l 588 154 l 272 154 l 272 -51 l 229 -51 l 229 192 l 544 192 l 544 353 l 226 353 l 226 393 l 588 393 m 1026 393 l 1026 -72 l 669 -72 l 669 393 l 1026 393 m 714 353 l 714 -32 l 983 -32 l 983 353 l 714 353 m 285 -33 q 475 -29 406 -33 q 621 -8 544 -25 l 625 -49 q 476 -68 546 -64 q 285 -72 407 -72 l 229 -72 l 229 -33 l 285 -33 z "},"긻":{"ha":1214,"x_min":0,"x_max":0,"o":""},"긼":{"ha":1214,"x_min":0,"x_max":0,"o":""},"긽":{"ha":1214,"x_min":0,"x_max":0,"o":""},"긾":{"ha":1214,"x_min":0,"x_max":0,"o":""},"긿":{"ha":1214,"x_min":0,"x_max":0,"o":""},"김":{"ha":1214,"x_min":86,"x_max":1026,"o":"m 683 1015 q 528 650 683 806 q 107 421 372 494 l 86 458 q 488 671 339 528 q 638 1006 638 814 l 638 1015 l 683 1015 m 651 1015 l 651 976 l 143 976 l 143 1015 l 651 1015 m 1026 1100 l 1026 421 l 982 421 l 982 1100 l 1026 1100 m 1026 356 l 1026 -68 l 276 -68 l 276 356 l 1026 356 m 319 317 l 319 -28 l 983 -28 l 983 317 l 319 317 z "},"깁":{"ha":1214,"x_min":88,"x_max":1025,"o":"m 1025 1101 l 1025 453 l 982 453 l 982 1101 l 1025 1101 m 683 1021 q 529 663 683 813 q 107 446 375 513 l 88 483 q 490 683 343 546 q 636 1008 636 819 l 636 1021 l 683 1021 m 653 1021 l 653 981 l 144 981 l 144 1021 l 653 1021 m 324 397 l 324 211 l 982 211 l 982 397 l 1025 397 l 1025 -69 l 279 -69 l 279 397 l 324 397 m 324 -31 l 982 -31 l 982 172 l 324 172 l 324 -31 z "},"깂":{"ha":1214,"x_min":0,"x_max":0,"o":""},"깃":{"ha":1214,"x_min":96,"x_max":1101,"o":"m 1024 1100 l 1024 290 l 981 290 l 981 1100 l 1024 1100 m 686 1003 q 613 739 686 861 q 412 526 540 617 q 115 382 283 435 l 96 419 q 378 553 256 469 q 571 750 501 638 q 640 993 640 863 l 640 1003 l 686 1003 m 654 1003 l 654 963 l 146 963 l 146 1003 l 654 1003 m 676 383 l 676 329 q 608 133 676 218 q 440 -4 540 49 q 235 -83 340 -57 l 215 -47 q 407 24 310 -26 q 571 152 504 74 q 638 329 638 231 l 638 383 l 676 383 m 683 383 l 683 329 q 749 153 683 232 q 911 25 815 75 q 1101 -47 1007 -25 l 1079 -83 q 876 -3 975 -57 q 711 135 778 50 q 644 329 644 219 l 644 383 l 683 383 z "},"깄":{"ha":1214,"x_min":89,"x_max":1139,"o":"m 685 1015 q 529 649 685 804 q 108 421 374 494 l 89 458 q 490 671 342 528 q 639 1006 639 814 l 639 1015 l 685 1015 m 653 1015 l 653 976 l 144 976 l 144 1015 l 653 1015 m 1028 1103 l 1028 411 l 983 411 l 983 1103 l 1028 1103 m 433 388 l 433 271 q 398 140 433 207 q 301 17 363 72 q 161 -71 239 -39 l 138 -36 q 267 43 208 -8 q 360 155 326 94 q 394 271 394 215 l 394 388 l 433 388 m 436 388 l 436 271 q 497 86 436 175 q 660 -43 558 -3 l 638 -81 q 463 64 526 -35 q 399 271 399 163 l 399 388 l 436 388 m 878 388 l 878 271 q 849 143 878 213 q 765 13 819 74 q 638 -81 710 -47 l 617 -43 q 733 42 682 -12 q 813 158 785 97 q 840 271 840 219 l 840 388 l 878 388 m 882 388 l 882 271 q 916 150 882 211 q 1008 40 950 89 q 1139 -36 1067 -10 l 1115 -71 q 919 71 996 -25 q 843 271 843 167 l 843 388 l 882 388 z "},"깅":{"ha":1214,"x_min":86,"x_max":1029,"o":"m 1022 1100 l 1022 364 l 979 364 l 979 1100 l 1022 1100 m 685 1003 q 610 740 685 861 q 406 528 536 618 q 110 388 276 439 l 86 422 q 371 555 246 472 q 567 749 496 638 q 639 992 639 861 l 639 1003 l 685 1003 m 653 1003 l 653 963 l 144 963 l 144 1003 l 653 1003 m 639 357 q 848 331 760 357 q 983 256 936 306 q 1029 138 1029 207 q 983 18 1029 68 q 848 -58 936 -32 q 639 -83 760 -83 q 431 -58 518 -83 q 296 18 343 -32 q 249 138 249 68 q 353 299 249 242 q 639 357 457 357 m 639 319 q 458 297 536 319 q 336 233 379 274 q 293 138 293 192 q 336 42 293 83 q 458 -22 379 1 q 639 -44 536 -44 q 820 -22 742 -44 q 942 42 899 1 q 985 138 985 83 q 942 233 985 192 q 820 297 899 274 q 639 319 742 319 z "},"깆":{"ha":1214,"x_min":89,"x_max":1093,"o":"m 688 1015 q 615 757 688 875 q 413 553 543 639 q 111 421 283 468 l 89 458 q 490 671 340 528 q 639 1004 639 814 l 639 1015 l 688 1015 m 653 1015 l 653 976 l 144 976 l 144 1015 l 653 1015 m 1025 1100 l 1025 421 l 981 421 l 981 1100 l 1025 1100 m 685 322 l 685 279 q 620 115 685 189 q 459 -10 556 40 q 265 -85 363 -61 l 247 -49 q 426 17 333 -29 q 583 132 519 64 q 646 279 646 200 l 646 322 l 685 322 m 689 322 l 689 279 q 753 132 689 200 q 912 17 818 64 q 1093 -49 1006 -29 l 1072 -85 q 878 -11 975 -61 q 717 114 782 39 q 651 279 651 189 l 651 322 l 689 322 m 1047 335 l 1047 294 l 288 294 l 288 335 l 1047 335 z "},"깇":{"ha":1214,"x_min":0,"x_max":0,"o":""},"깈":{"ha":1214,"x_min":0,"x_max":0,"o":""},"깉":{"ha":1214,"x_min":0,"x_max":0,"o":""},"깊":{"ha":1214,"x_min":88,"x_max":1067,"o":"m 686 1014 q 528 651 686 804 q 106 425 371 497 l 88 464 q 490 672 340 532 q 639 1004 639 813 l 639 1014 l 686 1014 m 651 1014 l 651 975 l 144 975 l 144 1014 l 651 1014 m 1026 1100 l 1026 439 l 982 439 l 982 1100 l 1026 1100 m 1051 358 l 1051 319 l 275 319 l 275 358 l 1051 358 m 1067 -29 l 1067 -69 l 264 -69 l 264 -29 l 1067 -29 m 507 336 l 507 -42 l 463 -42 l 463 336 l 507 336 m 865 336 l 865 -42 l 821 -42 l 821 336 l 865 336 z "},"깋":{"ha":1214,"x_min":0,"x_max":0,"o":""},"까":{"ha":1214,"x_min":82,"x_max":1192,"o":"m 989 1101 l 989 -89 l 946 -89 l 946 1101 l 989 1101 m 1192 585 l 1192 546 l 974 546 l 974 585 l 1192 585 m 431 965 q 397 703 431 839 q 294 437 364 568 q 121 199 225 306 l 82 224 q 253 449 183 322 q 356 709 322 576 q 390 963 390 842 l 390 965 l 431 965 m 404 965 l 404 925 l 106 925 l 106 965 l 404 965 m 751 965 q 726 687 751 833 q 638 389 701 540 q 467 117 575 238 l 426 140 q 595 399 532 251 q 685 692 658 546 q 711 964 711 838 l 711 965 l 751 965 m 728 965 l 728 925 l 467 925 l 467 965 l 728 965 z "},"깍":{"ha":1214,"x_min":99,"x_max":1171,"o":"m 976 1101 l 976 396 l 932 396 l 932 1101 l 976 1101 m 1171 765 l 1171 725 l 965 725 l 965 765 l 1171 765 m 421 1010 q 389 807 421 900 q 292 636 357 714 q 129 493 228 558 l 99 525 q 255 656 193 585 q 347 815 317 728 q 378 1007 378 901 l 378 1010 l 421 1010 m 401 1010 l 401 971 l 110 971 l 110 1010 l 401 1010 m 976 338 l 976 -93 l 932 -93 l 932 297 l 226 297 l 226 338 l 976 338 m 751 1010 q 724 789 751 894 q 634 587 696 683 q 472 410 572 490 l 438 440 q 594 603 533 513 q 681 796 654 694 q 708 1008 708 897 l 708 1010 l 751 1010 m 726 1010 l 726 971 l 472 971 l 472 1010 l 726 1010 z "},"깎":{"ha":1214,"x_min":99,"x_max":1171,"o":"m 976 1101 l 976 415 l 932 415 l 932 1101 l 976 1101 m 1171 772 l 1171 732 l 965 732 l 965 772 l 1171 772 m 421 1013 q 389 811 421 903 q 293 643 357 719 q 132 503 229 567 l 99 533 q 255 663 193 592 q 347 819 317 733 q 378 1008 378 904 l 378 1013 l 421 1013 m 401 1013 l 401 974 l 110 974 l 110 1013 l 401 1013 m 751 1013 q 723 795 751 899 q 633 598 694 692 q 474 428 571 504 l 438 457 q 592 615 532 528 q 681 802 653 703 q 708 1010 708 901 l 708 1013 l 751 1013 m 726 1013 l 726 974 l 472 974 l 472 1013 l 726 1013 m 553 342 l 553 -89 l 508 -89 l 508 301 l 185 301 l 185 342 l 553 342 m 976 342 l 976 -89 l 932 -89 l 932 301 l 619 301 l 619 342 l 976 342 z "},"깏":{"ha":1214,"x_min":0,"x_max":0,"o":""},"깐":{"ha":1214,"x_min":92,"x_max":1171,"o":"m 421 994 q 390 780 421 881 q 292 591 358 679 q 125 429 226 503 l 92 460 q 253 609 190 526 q 347 787 317 692 q 378 990 378 882 l 378 994 l 421 994 m 401 994 l 401 953 l 110 953 l 110 994 l 401 994 m 751 994 q 724 766 751 876 q 633 553 696 656 q 469 365 571 450 l 433 396 q 593 569 532 472 q 681 773 654 667 q 708 992 708 879 l 708 994 l 751 994 m 726 994 l 726 953 l 472 953 l 472 994 l 726 994 m 976 1103 l 976 226 l 932 226 l 932 1103 l 976 1103 m 1171 704 l 1171 664 l 958 664 l 958 704 l 1171 704 m 1029 -15 l 1029 -56 l 264 -56 l 264 -15 l 1029 -15 m 307 293 l 307 -36 l 264 -36 l 264 293 l 307 293 z "},"깑":{"ha":1214,"x_min":0,"x_max":0,"o":""},"깒":{"ha":1214,"x_min":0,"x_max":0,"o":""},"깓":{"ha":1214,"x_min":0,"x_max":0,"o":""},"깔":{"ha":1214,"x_min":96,"x_max":1171,"o":"m 978 1101 l 978 489 l 933 489 l 933 1101 l 978 1101 m 1171 813 l 1171 772 l 965 772 l 965 813 l 1171 813 m 978 422 l 978 164 l 300 164 l 300 -49 l 258 -49 l 258 204 l 935 204 l 935 383 l 254 383 l 254 422 l 978 422 m 1029 -29 l 1029 -69 l 258 -69 l 258 -29 l 1029 -29 m 417 1026 q 381 838 417 922 q 282 690 344 754 q 129 565 219 625 l 96 596 q 244 710 183 651 q 339 845 304 768 q 374 1022 374 922 l 374 1026 l 417 1026 m 397 1026 l 397 986 l 106 986 l 106 1026 l 397 1026 m 749 1026 q 719 820 749 917 q 627 641 689 724 q 471 489 565 558 l 435 518 q 589 659 529 582 q 677 826 649 736 q 706 1024 706 917 l 706 1026 l 749 1026 m 724 1026 l 724 986 l 469 986 l 469 1026 l 724 1026 z "},"깕":{"ha":1214,"x_min":0,"x_max":0,"o":""},"깖":{"ha":1214,"x_min":97,"x_max":1171,"o":"m 976 1101 l 976 464 l 932 464 l 932 1101 l 976 1101 m 1171 807 l 1171 767 l 965 767 l 965 807 l 1171 807 m 418 1022 q 382 833 418 918 q 283 681 346 749 q 131 553 221 614 l 97 583 q 245 699 185 638 q 340 839 306 760 q 375 1018 375 918 l 375 1022 l 418 1022 m 397 1022 l 397 982 l 106 982 l 106 1022 l 397 1022 m 750 1022 q 720 813 750 911 q 628 629 690 715 q 471 471 567 543 l 435 499 q 590 644 529 564 q 678 819 650 725 q 707 1019 707 913 l 707 1022 l 750 1022 m 724 1022 l 724 982 l 469 982 l 469 1022 l 724 1022 m 542 389 l 542 150 l 228 150 l 228 -56 l 185 -56 l 185 190 l 499 190 l 499 350 l 181 350 l 181 389 l 542 389 m 976 389 l 976 -74 l 625 -74 l 625 389 l 976 389 m 668 351 l 668 -36 l 933 -36 l 933 351 l 668 351 m 239 -35 q 429 -31 361 -35 q 574 -10 497 -26 l 581 -50 q 431 -69 500 -65 q 239 -74 361 -74 l 185 -74 l 185 -35 l 239 -35 z "},"깗":{"ha":1214,"x_min":0,"x_max":0,"o":""},"깘":{"ha":1214,"x_min":0,"x_max":0,"o":""},"깙":{"ha":1214,"x_min":0,"x_max":0,"o":""},"깚":{"ha":1214,"x_min":0,"x_max":0,"o":""},"깛":{"ha":1214,"x_min":0,"x_max":0,"o":""},"깜":{"ha":1214,"x_min":99,"x_max":1171,"o":"m 421 1013 q 389 810 421 903 q 293 639 357 717 q 131 496 229 561 l 99 528 q 255 659 193 588 q 347 817 317 731 q 378 1008 378 904 l 378 1013 l 421 1013 m 401 1013 l 401 974 l 110 974 l 110 1013 l 401 1013 m 751 1013 q 723 794 751 899 q 633 595 694 690 q 472 421 571 500 l 436 451 q 592 612 532 522 q 681 801 653 701 q 708 1010 708 901 l 708 1013 l 751 1013 m 726 1013 l 726 974 l 472 974 l 472 1013 l 726 1013 m 976 1101 l 976 404 l 932 404 l 932 1101 l 976 1101 m 1171 781 l 1171 742 l 965 742 l 965 781 l 1171 781 m 976 339 l 976 -69 l 257 -69 l 257 339 l 976 339 m 299 300 l 299 -29 l 932 -29 l 932 300 l 299 300 z "},"깝":{"ha":1214,"x_min":100,"x_max":1171,"o":"m 421 1018 q 389 818 421 908 q 293 653 357 728 q 132 515 229 578 l 100 546 q 255 672 193 603 q 347 826 317 742 q 378 1014 378 911 l 378 1018 l 421 1018 m 401 1018 l 401 978 l 110 978 l 110 1018 l 401 1018 m 751 1018 q 723 803 751 906 q 633 610 694 701 q 475 442 572 518 l 439 471 q 593 628 533 542 q 681 810 653 714 q 708 1015 708 907 l 708 1018 l 751 1018 m 726 1018 l 726 978 l 472 978 l 472 1018 l 726 1018 m 976 1101 l 976 458 l 932 458 l 932 1101 l 976 1101 m 1171 807 l 1171 765 l 965 765 l 965 807 l 1171 807 m 299 390 l 299 206 l 932 206 l 932 390 l 976 390 l 976 -71 l 256 -71 l 256 390 l 299 390 m 299 -32 l 932 -32 l 932 165 l 299 165 l 299 -32 z "},"깞":{"ha":1214,"x_min":0,"x_max":0,"o":""},"깟":{"ha":1214,"x_min":99,"x_max":1171,"o":"m 421 997 q 389 794 421 888 q 293 624 357 701 q 131 482 229 547 l 99 513 q 255 642 193 571 q 347 801 317 714 q 378 993 378 889 l 378 997 l 421 997 m 401 997 l 401 957 l 110 957 l 110 997 l 401 997 m 751 997 q 724 778 751 883 q 633 576 696 672 q 472 399 571 479 l 436 429 q 592 592 532 501 q 681 784 653 683 q 708 994 708 885 l 708 997 l 751 997 m 726 997 l 726 957 l 472 957 l 472 997 l 726 997 m 976 1101 l 976 306 l 932 306 l 932 1101 l 976 1101 m 1171 747 l 1171 708 l 965 708 l 965 747 l 1171 747 m 656 367 l 656 324 q 587 132 656 215 q 417 -3 518 49 q 213 -81 317 -56 l 193 -43 q 385 26 288 -22 q 549 150 482 74 q 615 324 615 226 l 615 367 l 656 367 m 658 367 l 658 324 q 726 150 658 226 q 890 26 793 74 q 1082 -43 988 -22 l 1061 -81 q 857 -3 957 -56 q 689 132 757 49 q 621 324 621 215 l 621 367 l 658 367 z "},"깠":{"ha":1214,"x_min":99,"x_max":1171,"o":"m 421 1013 q 389 810 421 903 q 293 639 357 717 q 131 496 229 561 l 99 526 q 255 658 193 586 q 347 817 317 731 q 378 1008 378 904 l 378 1013 l 421 1013 m 401 1013 l 401 974 l 110 974 l 110 1013 l 401 1013 m 751 1013 q 723 794 751 899 q 633 595 694 690 q 472 421 571 500 l 436 451 q 592 612 532 522 q 681 801 653 701 q 708 1010 708 900 l 708 1013 l 751 1013 m 726 1013 l 726 974 l 472 974 l 472 1013 l 726 1013 m 976 1101 l 976 415 l 932 415 l 932 1101 l 976 1101 m 1171 779 l 1171 740 l 965 740 l 965 779 l 1171 779 m 428 360 l 428 256 q 392 124 428 192 q 293 0 356 56 q 154 -87 231 -56 l 131 -51 q 260 27 201 -24 q 353 139 319 78 q 388 256 388 200 l 388 360 l 428 360 m 429 360 l 429 256 q 490 69 429 158 q 654 -60 551 -19 l 631 -97 q 456 48 519 -51 q 392 256 392 147 l 392 360 l 429 360 m 871 360 l 871 256 q 842 127 871 196 q 759 -3 814 58 q 631 -97 704 -64 l 610 -60 q 726 26 675 -29 q 806 142 778 81 q 833 256 833 204 l 833 360 l 871 360 m 875 360 l 875 256 q 909 133 875 194 q 1001 24 943 72 q 1132 -51 1060 -25 l 1108 -87 q 968 -3 1031 -57 q 871 119 906 51 q 836 256 836 188 l 836 360 l 875 360 z "},"깡":{"ha":1214,"x_min":99,"x_max":1171,"o":"m 421 1013 q 389 810 421 903 q 293 639 357 717 q 131 496 229 561 l 99 528 q 255 659 193 588 q 347 817 317 731 q 378 1008 378 904 l 378 1013 l 421 1013 m 401 1013 l 401 974 l 110 974 l 110 1013 l 401 1013 m 751 1013 q 723 795 751 899 q 633 598 694 692 q 474 428 571 504 l 438 457 q 592 616 532 528 q 681 803 653 704 q 708 1010 708 901 l 708 1013 l 751 1013 m 726 1013 l 726 974 l 472 974 l 472 1013 l 726 1013 m 976 1101 l 976 386 l 932 386 l 932 1101 l 976 1101 m 1171 775 l 1171 735 l 965 735 l 965 775 l 1171 775 m 608 336 q 811 311 726 336 q 941 240 896 286 q 986 126 986 193 q 941 13 986 60 q 811 -58 896 -33 q 608 -83 726 -83 q 405 -58 490 -83 q 274 13 319 -33 q 229 126 229 60 q 274 240 229 193 q 405 311 319 286 q 608 336 490 336 m 608 297 q 432 276 508 297 q 313 216 356 254 q 271 126 271 178 q 313 37 271 75 q 432 -23 356 -1 q 608 -44 508 -44 q 785 -23 708 -44 q 903 37 861 -1 q 944 126 944 75 q 903 216 944 178 q 785 276 861 254 q 608 297 708 297 z "},"깢":{"ha":1214,"x_min":0,"x_max":0,"o":""},"깣":{"ha":1214,"x_min":0,"x_max":0,"o":""},"깤":{"ha":1214,"x_min":0,"x_max":0,"o":""},"깥":{"ha":1214,"x_min":96,"x_max":1171,"o":"m 417 1019 q 381 832 417 915 q 282 683 344 749 q 129 558 219 618 l 96 589 q 244 702 183 643 q 339 839 304 761 q 374 1015 374 917 l 374 1019 l 417 1019 m 397 1019 l 397 979 l 106 979 l 106 1019 l 397 1019 m 749 1019 q 719 814 749 910 q 627 635 689 718 q 471 483 565 553 l 435 511 q 588 653 528 575 q 677 821 649 731 q 706 1017 706 911 l 706 1019 l 749 1019 m 724 1019 l 724 979 l 469 979 l 469 1019 l 724 1019 m 976 1101 l 976 453 l 932 453 l 932 1101 l 976 1101 m 1171 799 l 1171 758 l 965 758 l 965 799 l 1171 799 m 983 374 l 983 333 l 303 333 l 303 -56 l 260 -56 l 260 374 l 983 374 m 1014 -29 l 1014 -69 l 260 -69 l 260 -29 l 1014 -29 m 969 178 l 969 136 l 283 136 l 283 178 l 969 178 z "},"깦":{"ha":1214,"x_min":0,"x_max":0,"o":""},"깧":{"ha":1214,"x_min":0,"x_max":0,"o":""},"깨":{"ha":1214,"x_min":90,"x_max":1065,"o":"m 1065 1103 l 1065 -87 l 1021 -87 l 1021 1103 l 1065 1103 m 1043 590 l 1043 551 l 806 551 l 806 590 l 1043 590 m 361 950 q 311 566 361 757 q 129 224 261 375 l 90 253 q 230 469 178 347 q 302 712 282 590 q 322 949 322 833 l 322 950 l 361 950 m 336 950 l 336 910 l 100 910 l 100 950 l 336 950 m 639 950 q 596 513 639 729 q 411 126 553 297 l 372 153 q 520 409 469 263 q 585 688 571 556 q 599 949 599 821 l 599 950 l 639 950 m 617 950 l 617 910 l 404 910 l 404 950 l 617 950 m 819 1069 l 819 -22 l 776 -22 l 776 1069 l 819 1069 z "},"깩":{"ha":1214,"x_min":89,"x_max":1056,"o":"m 1056 1100 l 1056 394 l 1013 394 l 1013 1100 l 1056 1100 m 1039 776 l 1039 736 l 776 736 l 776 776 l 1039 776 m 811 1076 l 811 404 l 767 404 l 767 1076 l 811 1076 m 1056 331 l 1056 -89 l 1013 -89 l 1013 290 l 275 290 l 275 331 l 1056 331 m 369 1011 q 344 810 369 903 q 265 636 319 717 q 124 485 211 556 l 89 517 q 226 656 174 581 q 303 817 279 731 q 326 1008 326 904 l 326 1011 l 369 1011 m 356 1011 l 356 972 l 104 972 l 104 1011 l 356 1011 m 647 1011 q 626 794 647 899 q 553 589 604 689 q 415 404 501 489 l 374 432 q 510 603 458 508 q 583 800 561 699 q 604 1010 604 901 l 604 1011 l 647 1011 m 628 1011 l 628 972 l 403 972 l 403 1011 l 628 1011 z "},"깪":{"ha":1214,"x_min":0,"x_max":0,"o":""},"깫":{"ha":1214,"x_min":0,"x_max":0,"o":""},"깬":{"ha":1214,"x_min":92,"x_max":1099,"o":"m 1057 1100 l 1057 206 l 1014 206 l 1014 1100 l 1057 1100 m 1039 725 l 1039 685 l 778 685 l 778 725 l 1039 725 m 811 1078 l 811 251 l 767 251 l 767 1078 l 811 1078 m 1099 -15 l 1099 -56 l 307 -56 l 307 -15 l 1099 -15 m 351 304 l 351 -32 l 307 -32 l 307 304 l 351 304 m 371 999 q 347 795 371 889 q 268 617 322 701 q 126 460 214 533 l 92 490 q 228 635 175 557 q 304 803 281 714 q 328 996 328 892 l 328 999 l 371 999 m 350 999 l 350 958 l 100 958 l 100 999 l 350 999 m 649 999 q 627 779 649 886 q 553 570 606 672 q 414 382 501 468 l 374 410 q 511 585 460 489 q 584 785 563 682 q 606 997 606 888 l 606 999 l 649 999 m 628 999 l 628 958 l 403 958 l 403 999 l 628 999 z "},"깭":{"ha":1214,"x_min":0,"x_max":0,"o":""},"깮":{"ha":1214,"x_min":0,"x_max":0,"o":""},"깯":{"ha":1214,"x_min":96,"x_max":1079,"o":"m 1079 -29 l 1079 -69 l 276 -69 l 276 -29 l 1079 -29 m 1068 331 l 1068 290 l 321 290 l 321 -42 l 276 -42 l 276 331 l 1068 331 m 1057 1100 l 1057 414 l 1014 414 l 1014 1100 l 1057 1100 m 1039 772 l 1039 732 l 778 732 l 778 772 l 1039 772 m 811 1076 l 811 422 l 767 422 l 767 1076 l 811 1076 m 371 1014 q 347 817 371 907 q 269 649 322 728 q 131 501 215 571 l 96 533 q 230 668 179 596 q 304 824 281 740 q 328 1011 328 908 l 328 1014 l 371 1014 m 350 1014 l 350 975 l 100 975 l 100 1014 l 350 1014 m 649 1014 q 626 799 649 903 q 552 599 604 696 q 414 421 500 503 l 374 449 q 510 615 458 524 q 584 805 563 706 q 606 1013 606 904 l 606 1014 l 649 1014 m 628 1014 l 628 975 l 403 975 l 403 1014 l 628 1014 z "},"깰":{"ha":1214,"x_min":93,"x_max":1111,"o":"m 1057 1100 l 1057 476 l 1014 476 l 1014 1100 l 1057 1100 m 1039 803 l 1039 763 l 778 763 l 778 803 l 1039 803 m 811 1076 l 811 486 l 767 486 l 767 1076 l 811 1076 m 1057 408 l 1057 160 l 344 160 l 344 -60 l 301 -60 l 301 197 l 1015 197 l 1015 368 l 297 368 l 297 408 l 1057 408 m 1111 -29 l 1111 -69 l 301 -69 l 301 -29 l 1111 -29 m 371 1021 q 345 830 371 915 q 267 672 319 744 q 129 536 214 600 l 93 567 q 228 690 176 625 q 303 835 279 756 q 328 1018 328 915 l 328 1021 l 371 1021 m 351 1021 l 351 981 l 100 981 l 100 1021 l 351 1021 m 649 1021 q 626 813 649 911 q 550 626 603 715 q 411 460 497 536 l 372 488 q 508 642 457 558 q 583 818 560 725 q 606 1018 606 911 l 606 1021 l 649 1021 m 628 1021 l 628 981 l 403 981 l 403 1021 l 628 1021 z "},"깱":{"ha":1214,"x_min":0,"x_max":0,"o":""},"깲":{"ha":1214,"x_min":0,"x_max":0,"o":""},"깳":{"ha":1214,"x_min":0,"x_max":0,"o":""},"깴":{"ha":1214,"x_min":0,"x_max":0,"o":""},"깵":{"ha":1214,"x_min":0,"x_max":0,"o":""},"깶":{"ha":1214,"x_min":0,"x_max":0,"o":""},"깷":{"ha":1214,"x_min":0,"x_max":0,"o":""},"깸":{"ha":1214,"x_min":96,"x_max":1056,"o":"m 1056 1100 l 1056 414 l 1013 414 l 1013 1100 l 1056 1100 m 1039 772 l 1039 732 l 778 732 l 778 772 l 1039 772 m 811 1078 l 811 422 l 767 422 l 767 1078 l 811 1078 m 1056 351 l 1056 -68 l 301 -68 l 301 351 l 1056 351 m 344 313 l 344 -28 l 1014 -28 l 1014 313 l 344 313 m 371 1014 q 347 817 371 907 q 269 649 322 728 q 131 501 215 571 l 96 533 q 230 668 179 596 q 304 824 281 740 q 328 1011 328 908 l 328 1014 l 371 1014 m 350 1014 l 350 975 l 100 975 l 100 1014 l 350 1014 m 647 1014 q 625 799 647 901 q 551 599 603 696 q 414 421 500 503 l 374 449 q 510 615 458 524 q 583 804 561 706 q 604 1013 604 903 l 604 1014 l 647 1014 m 628 1014 l 628 975 l 403 975 l 403 1014 l 628 1014 z "},"깹":{"ha":1214,"x_min":94,"x_max":1056,"o":"m 1056 1100 l 1056 451 l 1013 451 l 1013 1100 l 1056 1100 m 1039 786 l 1039 747 l 778 747 l 778 786 l 1039 786 m 811 1076 l 811 460 l 767 460 l 767 1076 l 811 1076 m 350 390 l 350 214 l 1014 214 l 1014 390 l 1056 390 l 1056 -71 l 306 -71 l 306 390 l 350 390 m 350 -32 l 1014 -32 l 1014 174 l 350 174 l 350 -32 m 371 1022 q 346 827 371 915 q 267 663 321 739 q 128 518 214 586 l 94 549 q 228 681 178 611 q 303 833 279 750 q 328 1019 328 917 l 328 1022 l 371 1022 m 350 1022 l 350 982 l 100 982 l 100 1022 l 350 1022 m 647 1022 q 626 810 647 911 q 552 614 604 708 q 414 439 500 519 l 374 467 q 510 629 458 540 q 583 815 561 718 q 604 1021 604 913 l 604 1022 l 647 1022 m 628 1022 l 628 982 l 403 982 l 403 1022 l 628 1022 z "},"깺":{"ha":1214,"x_min":0,"x_max":0,"o":""},"깻":{"ha":1214,"x_min":94,"x_max":1126,"o":"m 1057 1101 l 1057 322 l 1014 322 l 1014 1101 l 1057 1101 m 1039 776 l 1039 736 l 778 736 l 778 776 l 1039 776 m 813 1076 l 813 422 l 768 422 l 768 1076 l 813 1076 m 371 1007 q 347 803 371 897 q 269 626 322 710 q 129 469 215 543 l 94 500 q 229 644 178 567 q 304 811 281 722 q 328 1004 328 900 l 328 1007 l 371 1007 m 351 1007 l 351 968 l 100 968 l 100 1007 l 351 1007 m 649 1007 q 627 788 649 894 q 553 580 606 682 q 414 392 501 478 l 374 418 q 511 594 460 497 q 584 793 563 690 q 606 1006 606 896 l 606 1007 l 649 1007 m 629 1007 l 629 968 l 404 968 l 404 1007 l 629 1007 m 693 369 l 693 301 q 623 122 693 201 q 451 -9 553 43 q 247 -83 349 -61 l 229 -47 q 417 19 318 -29 q 586 140 517 67 q 656 301 656 214 l 656 369 l 693 369 m 700 369 l 700 301 q 769 140 700 214 q 938 19 839 67 q 1126 -47 1038 -29 l 1108 -83 q 904 -9 1007 -61 q 731 122 801 43 q 661 301 661 201 l 661 369 l 700 369 z "},"깼":{"ha":1214,"x_min":97,"x_max":1153,"o":"m 1057 1100 l 1057 401 l 1014 401 l 1014 1100 l 1057 1100 m 1040 776 l 1040 736 l 779 736 l 779 776 l 1040 776 m 813 1076 l 813 411 l 768 411 l 768 1076 l 813 1076 m 372 1014 q 348 817 372 907 q 271 649 324 728 q 132 501 218 571 l 97 532 q 231 668 181 596 q 306 824 282 740 q 329 1011 329 908 l 329 1014 l 372 1014 m 351 1014 l 351 975 l 101 975 l 101 1014 l 351 1014 m 649 1014 q 626 801 649 903 q 553 605 604 700 q 415 428 501 510 l 376 456 q 512 620 461 531 q 584 807 563 710 q 606 1013 606 904 l 606 1014 l 649 1014 m 629 1014 l 629 975 l 404 975 l 404 1014 l 629 1014 m 450 353 l 450 268 q 415 137 450 204 q 317 14 379 69 q 178 -74 254 -42 l 154 -37 q 283 40 224 -11 q 378 151 343 90 q 413 268 413 213 l 413 353 l 450 353 m 454 353 l 454 268 q 515 83 454 172 q 676 -47 575 -6 l 654 -83 q 479 61 542 -36 q 417 268 417 158 l 417 353 l 454 353 m 892 353 l 892 268 q 863 141 892 210 q 781 12 835 72 q 654 -83 726 -49 l 632 -47 q 749 39 699 -17 q 827 156 800 94 q 854 268 854 217 l 854 353 l 892 353 m 896 353 l 896 268 q 930 147 896 208 q 1023 37 964 86 q 1153 -37 1082 -12 l 1131 -74 q 935 68 1013 -28 q 858 268 858 164 l 858 353 l 896 353 z "},"깽":{"ha":1214,"x_min":68,"x_max":1047,"o":"m 1029 1063 l 1029 328 l 986 328 l 986 1063 l 1029 1063 m 1011 719 l 1011 679 l 750 679 l 750 719 l 1011 719 m 785 1040 l 785 374 l 740 374 l 740 1040 l 785 1040 m 343 964 q 319 766 343 856 q 242 599 294 676 q 104 451 189 521 l 68 482 q 202 618 151 546 q 276 774 253 690 q 300 961 300 858 l 300 964 l 343 964 m 324 964 l 324 924 l 72 924 l 72 964 l 324 964 m 621 964 q 599 749 621 851 q 524 550 576 646 q 383 371 471 454 l 346 399 q 483 565 431 474 q 556 755 535 656 q 578 963 578 854 l 578 964 l 621 964 m 601 964 l 601 924 l 376 924 l 376 964 l 601 964 m 651 299 q 864 274 775 299 q 1000 202 953 249 q 1047 89 1047 156 q 1000 -24 1047 22 q 864 -96 953 -71 q 651 -121 775 -121 q 440 -96 528 -121 q 304 -24 351 -71 q 257 89 257 22 q 304 202 257 156 q 440 274 351 249 q 651 299 528 299 m 651 260 q 397 213 493 260 q 300 89 300 167 q 396 -35 300 11 q 651 -81 492 -81 q 907 -35 811 -81 q 1003 89 1003 11 q 906 213 1003 167 q 651 260 810 260 z "},"깾":{"ha":1214,"x_min":0,"x_max":0,"o":""},"깿":{"ha":1214,"x_min":0,"x_max":0,"o":""},"꺀":{"ha":1214,"x_min":0,"x_max":0,"o":""},"꺁":{"ha":1214,"x_min":0,"x_max":0,"o":""},"꺂":{"ha":1214,"x_min":0,"x_max":0,"o":""},"꺃":{"ha":1214,"x_min":0,"x_max":0,"o":""},"꺄":{"ha":1214,"x_min":82,"x_max":1192,"o":"m 1192 757 l 1192 717 l 961 717 l 961 757 l 1192 757 m 1192 399 l 1192 358 l 961 358 l 961 399 l 1192 399 m 989 1101 l 989 -89 l 946 -89 l 946 1101 l 989 1101 m 431 965 q 397 703 431 839 q 294 437 364 568 q 121 199 225 306 l 82 224 q 253 449 183 322 q 356 709 322 576 q 390 963 390 842 l 390 965 l 431 965 m 404 965 l 404 925 l 106 925 l 106 965 l 404 965 m 751 965 q 726 687 751 833 q 638 389 701 540 q 467 117 575 238 l 426 140 q 595 399 532 251 q 685 692 658 546 q 711 964 711 838 l 711 965 l 751 965 m 728 965 l 728 925 l 467 925 l 467 965 l 728 965 z "},"꺅":{"ha":1214,"x_min":99,"x_max":1171,"o":"m 1171 893 l 1171 853 l 965 853 l 965 893 l 1171 893 m 1171 649 l 1171 608 l 965 608 l 965 649 l 1171 649 m 976 1101 l 976 396 l 932 396 l 932 1101 l 976 1101 m 421 1010 q 389 807 421 900 q 292 636 357 714 q 129 493 228 558 l 99 525 q 255 656 193 585 q 347 815 317 728 q 378 1007 378 901 l 378 1010 l 421 1010 m 401 1010 l 401 971 l 110 971 l 110 1010 l 401 1010 m 976 338 l 976 -93 l 932 -93 l 932 297 l 226 297 l 226 338 l 976 338 m 751 1010 q 724 789 751 894 q 634 587 696 683 q 472 410 572 490 l 438 440 q 594 603 533 513 q 681 796 654 694 q 708 1008 708 897 l 708 1010 l 751 1010 m 726 1010 l 726 971 l 472 971 l 472 1010 l 726 1010 z "},"꺆":{"ha":1214,"x_min":69,"x_max":1160,"o":"m 371 1008 l 371 971 l 79 971 l 79 1008 l 371 1008 m 392 1008 q 360 806 392 899 q 264 633 328 713 q 104 489 200 554 l 69 519 q 226 653 164 581 q 319 813 288 725 q 350 1007 350 901 l 350 1008 l 392 1008 m 704 1008 l 704 971 l 436 971 l 436 1008 l 704 1008 m 718 1008 q 651 680 718 833 q 440 408 585 526 l 404 436 q 560 601 499 510 q 649 795 621 693 q 676 1007 676 897 l 676 1008 l 718 1008 m 964 1100 l 964 389 l 919 389 l 919 1100 l 964 1100 m 1160 892 l 1160 850 l 935 850 l 935 892 l 1160 892 m 1160 633 l 1160 592 l 935 592 l 935 633 l 1160 633 m 540 350 l 540 -96 l 496 -96 l 496 308 l 167 308 l 167 350 l 540 350 m 965 350 l 965 -96 l 921 -96 l 921 308 l 608 308 l 608 350 l 965 350 z "},"꺇":{"ha":1214,"x_min":0,"x_max":0,"o":""},"꺈":{"ha":1214,"x_min":0,"x_max":0,"o":""},"꺉":{"ha":1214,"x_min":0,"x_max":0,"o":""},"꺊":{"ha":1214,"x_min":0,"x_max":0,"o":""},"꺋":{"ha":1214,"x_min":0,"x_max":0,"o":""},"꺌":{"ha":1214,"x_min":96,"x_max":1171,"o":"m 1171 925 l 1171 885 l 965 885 l 965 925 l 1171 925 m 1171 710 l 1171 669 l 965 669 l 965 710 l 1171 710 m 978 1101 l 978 489 l 933 489 l 933 1101 l 978 1101 m 978 422 l 978 164 l 300 164 l 300 -49 l 258 -49 l 258 204 l 935 204 l 935 383 l 254 383 l 254 422 l 978 422 m 1029 -29 l 1029 -69 l 258 -69 l 258 -29 l 1029 -29 m 417 1026 q 381 838 417 922 q 282 690 344 754 q 129 565 219 625 l 96 596 q 244 710 183 651 q 339 845 304 768 q 374 1022 374 922 l 374 1026 l 417 1026 m 397 1026 l 397 986 l 106 986 l 106 1026 l 397 1026 m 749 1026 q 719 820 749 917 q 627 641 689 724 q 471 489 565 558 l 435 518 q 589 659 529 582 q 677 826 649 736 q 706 1024 706 917 l 706 1026 l 749 1026 m 724 1026 l 724 986 l 469 986 l 469 1026 l 724 1026 z "},"꺍":{"ha":1214,"x_min":79,"x_max":1160,"o":"m 965 392 l 965 -85 l 921 -85 l 921 350 l 619 350 l 619 392 l 965 392 m 560 392 l 560 147 l 232 147 l 232 -46 l 189 -46 l 189 189 l 517 189 l 517 350 l 185 350 l 185 392 l 560 392 m 250 -39 q 472 -34 392 -39 q 643 -11 553 -29 l 649 -54 q 467 -75 553 -69 q 250 -81 381 -81 l 189 -81 l 189 -39 l 250 -39 m 381 1024 l 381 985 l 89 985 l 89 1024 l 381 1024 m 400 1024 q 363 836 400 919 q 264 688 326 753 q 111 563 201 622 l 79 592 q 228 706 167 647 q 324 843 289 765 q 360 1021 360 921 l 360 1024 l 400 1024 m 721 1024 l 721 985 l 453 985 l 453 1024 l 721 1024 m 732 1024 q 701 818 732 914 q 610 640 671 722 q 458 486 550 557 l 419 515 q 571 656 511 579 q 660 825 631 733 q 690 1022 690 917 l 690 1024 l 732 1024 m 964 1100 l 964 463 l 919 463 l 919 1100 l 964 1100 m 1160 917 l 1160 876 l 935 876 l 935 917 l 1160 917 m 1160 692 l 1160 651 l 935 651 l 935 692 l 1160 692 z "},"꺎":{"ha":1214,"x_min":0,"x_max":0,"o":""},"꺏":{"ha":1214,"x_min":0,"x_max":0,"o":""},"꺐":{"ha":1214,"x_min":0,"x_max":0,"o":""},"꺑":{"ha":1214,"x_min":0,"x_max":0,"o":""},"꺒":{"ha":1214,"x_min":0,"x_max":0,"o":""},"꺓":{"ha":1214,"x_min":0,"x_max":0,"o":""},"꺔":{"ha":1214,"x_min":0,"x_max":0,"o":""},"꺕":{"ha":1214,"x_min":0,"x_max":0,"o":""},"꺖":{"ha":1214,"x_min":0,"x_max":0,"o":""},"꺗":{"ha":1214,"x_min":0,"x_max":0,"o":""},"꺘":{"ha":1214,"x_min":0,"x_max":0,"o":""},"꺙":{"ha":1214,"x_min":0,"x_max":0,"o":""},"꺚":{"ha":1214,"x_min":0,"x_max":0,"o":""},"꺛":{"ha":1214,"x_min":0,"x_max":0,"o":""},"꺜":{"ha":1214,"x_min":0,"x_max":0,"o":""},"꺝":{"ha":1214,"x_min":0,"x_max":0,"o":""},"꺞":{"ha":1214,"x_min":0,"x_max":0,"o":""},"꺟":{"ha":1214,"x_min":0,"x_max":0,"o":""},"꺠":{"ha":1214,"x_min":76,"x_max":1057,"o":"m 346 950 l 346 910 l 92 910 l 92 950 l 346 950 m 350 950 q 298 567 350 760 q 113 222 246 374 l 76 247 q 219 466 167 343 q 292 711 272 589 q 313 949 313 833 l 313 950 l 350 950 m 613 950 l 613 910 l 393 910 l 393 950 l 613 950 m 625 950 q 578 521 625 743 q 397 125 532 299 l 364 149 q 506 406 456 258 q 572 692 556 554 q 589 949 589 831 l 589 950 l 625 950 m 813 1068 l 813 -22 l 768 -22 l 768 1068 l 813 1068 m 1039 779 l 1039 739 l 788 739 l 788 779 l 1039 779 m 1057 1100 l 1057 -97 l 1014 -97 l 1014 1100 l 1057 1100 m 1042 444 l 1042 403 l 792 403 l 792 444 l 1042 444 z "},"꺡":{"ha":1214,"x_min":0,"x_max":0,"o":""},"꺢":{"ha":1214,"x_min":0,"x_max":0,"o":""},"꺣":{"ha":1214,"x_min":0,"x_max":0,"o":""},"꺤":{"ha":1214,"x_min":0,"x_max":0,"o":""},"꺥":{"ha":1214,"x_min":0,"x_max":0,"o":""},"꺦":{"ha":1214,"x_min":0,"x_max":0,"o":""},"꺧":{"ha":1214,"x_min":0,"x_max":0,"o":""},"꺨":{"ha":1214,"x_min":0,"x_max":0,"o":""},"꺩":{"ha":1214,"x_min":0,"x_max":0,"o":""},"꺪":{"ha":1214,"x_min":0,"x_max":0,"o":""},"꺫":{"ha":1214,"x_min":0,"x_max":0,"o":""},"꺬":{"ha":1214,"x_min":0,"x_max":0,"o":""},"꺭":{"ha":1214,"x_min":0,"x_max":0,"o":""},"꺮":{"ha":1214,"x_min":0,"x_max":0,"o":""},"꺯":{"ha":1214,"x_min":0,"x_max":0,"o":""},"꺰":{"ha":1214,"x_min":0,"x_max":0,"o":""},"꺱":{"ha":1214,"x_min":0,"x_max":0,"o":""},"꺲":{"ha":1214,"x_min":0,"x_max":0,"o":""},"꺳":{"ha":1214,"x_min":0,"x_max":0,"o":""},"꺴":{"ha":1214,"x_min":0,"x_max":0,"o":""},"꺵":{"ha":1214,"x_min":0,"x_max":0,"o":""},"꺶":{"ha":1214,"x_min":0,"x_max":0,"o":""},"꺷":{"ha":1214,"x_min":0,"x_max":0,"o":""},"꺸":{"ha":1214,"x_min":0,"x_max":0,"o":""},"꺹":{"ha":1214,"x_min":0,"x_max":0,"o":""},"꺺":{"ha":1214,"x_min":0,"x_max":0,"o":""},"꺻":{"ha":1214,"x_min":0,"x_max":0,"o":""},"꺼":{"ha":1214,"x_min":81,"x_max":1024,"o":"m 1024 1101 l 1024 -89 l 981 -89 l 981 1101 l 1024 1101 m 1014 610 l 1014 569 l 671 569 l 671 610 l 1014 610 m 428 965 q 395 703 428 839 q 293 437 363 568 q 119 199 224 306 l 81 224 q 250 449 181 322 q 354 709 319 576 q 389 963 389 842 l 389 965 l 428 965 m 401 965 l 401 925 l 103 925 l 103 965 l 401 965 m 747 965 q 722 688 747 835 q 633 389 697 540 q 461 117 569 238 l 421 140 q 590 399 526 251 q 681 692 654 546 q 707 964 707 838 l 707 965 l 747 965 m 722 965 l 722 925 l 461 925 l 461 965 l 722 965 z "},"꺽":{"ha":1214,"x_min":86,"x_max":1026,"o":"m 1026 338 l 1026 -87 l 982 -87 l 982 297 l 250 297 l 250 338 l 1026 338 m 1026 1101 l 1026 396 l 982 396 l 982 1101 l 1026 1101 m 997 771 l 997 731 l 668 731 l 668 771 l 997 771 m 408 1010 q 376 807 408 900 q 281 636 344 714 q 118 493 217 558 l 86 525 q 242 657 181 585 q 335 816 304 729 q 365 1007 365 903 l 365 1010 l 408 1010 m 392 1010 l 392 971 l 99 971 l 99 1010 l 392 1010 m 735 1010 q 707 789 735 894 q 617 587 679 683 q 456 410 556 490 l 422 440 q 578 604 518 513 q 665 797 638 696 q 692 1008 692 899 l 692 1010 l 735 1010 m 711 1010 l 711 971 l 456 971 l 456 1010 l 711 1010 z "},"꺾":{"ha":1214,"x_min":86,"x_max":1026,"o":"m 1026 1101 l 1026 396 l 982 396 l 982 1101 l 1026 1101 m 997 767 l 997 726 l 668 726 l 668 767 l 997 767 m 408 1013 q 376 810 408 903 q 281 641 344 718 q 119 500 217 564 l 86 531 q 242 661 181 590 q 335 818 304 732 q 365 1008 365 904 l 365 1013 l 408 1013 m 392 1013 l 392 974 l 99 974 l 99 1013 l 392 1013 m 735 1013 q 707 795 735 899 q 617 597 679 692 q 457 425 556 503 l 424 454 q 578 615 518 526 q 665 801 638 703 q 692 1010 692 900 l 692 1013 l 735 1013 m 711 1013 l 711 974 l 456 974 l 456 1013 l 711 1013 m 593 338 l 593 -87 l 550 -87 l 550 297 l 221 297 l 221 338 l 593 338 m 1026 338 l 1026 -87 l 982 -87 l 982 297 l 664 297 l 664 338 l 1026 338 z "},"꺿":{"ha":1214,"x_min":0,"x_max":0,"o":""},"껀":{"ha":1214,"x_min":99,"x_max":1057,"o":"m 1026 1100 l 1026 225 l 982 225 l 982 1100 l 1026 1100 m 1000 717 l 1000 678 l 671 678 l 671 717 l 1000 717 m 1057 -15 l 1057 -56 l 292 -56 l 292 -15 l 1057 -15 m 335 282 l 335 -36 l 292 -36 l 292 282 l 335 282 m 410 994 q 381 783 410 882 q 291 595 353 683 q 132 432 229 507 l 99 463 q 251 613 192 531 q 339 789 311 694 q 367 992 367 883 l 367 994 l 410 994 m 392 994 l 392 951 l 100 951 l 100 994 l 392 994 m 735 994 q 708 767 735 878 q 620 553 682 656 q 458 365 558 450 l 422 396 q 578 569 518 472 q 665 773 639 667 q 692 992 692 879 l 692 994 l 735 994 m 711 994 l 711 951 l 457 951 l 457 994 l 711 994 z "},"껁":{"ha":1214,"x_min":0,"x_max":0,"o":""},"껂":{"ha":1214,"x_min":0,"x_max":0,"o":""},"껃":{"ha":1214,"x_min":0,"x_max":0,"o":""},"껄":{"ha":1214,"x_min":90,"x_max":1069,"o":"m 411 1026 q 375 838 411 921 q 276 690 339 754 q 124 565 214 625 l 90 596 q 238 710 178 651 q 333 845 299 768 q 368 1022 368 922 l 368 1026 l 411 1026 m 382 1026 l 382 985 l 108 985 l 108 1026 l 382 1026 m 738 1026 q 708 819 738 915 q 616 641 678 724 q 458 489 554 558 l 424 518 q 576 659 517 582 q 665 826 636 736 q 693 1024 693 917 l 693 1026 l 738 1026 m 708 1026 l 708 985 l 454 985 l 454 1026 l 708 1026 m 1025 1101 l 1025 485 l 982 485 l 982 1101 l 1025 1101 m 994 789 l 994 749 l 671 749 l 671 789 l 994 789 m 1025 418 l 1025 164 l 328 164 l 328 -69 l 286 -69 l 286 203 l 982 203 l 982 378 l 282 378 l 282 418 l 1025 418 m 1069 -37 l 1069 -76 l 286 -76 l 286 -37 l 1069 -37 z "},"껅":{"ha":1214,"x_min":0,"x_max":0,"o":""},"껆":{"ha":1214,"x_min":0,"x_max":0,"o":""},"껇":{"ha":1214,"x_min":0,"x_max":0,"o":""},"껈":{"ha":1214,"x_min":0,"x_max":0,"o":""},"껉":{"ha":1214,"x_min":0,"x_max":0,"o":""},"껊":{"ha":1214,"x_min":0,"x_max":0,"o":""},"껋":{"ha":1214,"x_min":0,"x_max":0,"o":""},"껌":{"ha":1214,"x_min":86,"x_max":1026,"o":"m 408 1011 q 376 808 408 901 q 281 638 344 715 q 118 494 217 560 l 86 526 q 242 658 181 586 q 335 817 304 731 q 365 1008 365 904 l 365 1011 l 408 1011 m 392 1011 l 392 972 l 99 972 l 99 1011 l 392 1011 m 735 1011 q 707 792 735 897 q 617 592 679 688 q 457 418 556 497 l 422 449 q 578 609 518 519 q 665 799 638 699 q 692 1008 692 899 l 692 1011 l 735 1011 m 711 1011 l 711 972 l 456 972 l 456 1011 l 711 1011 m 1026 1100 l 1026 421 l 982 421 l 982 1100 l 1026 1100 m 1000 764 l 1000 724 l 671 724 l 671 764 l 1000 764 m 1026 356 l 1026 -68 l 276 -68 l 276 356 l 1026 356 m 319 317 l 319 -28 l 983 -28 l 983 317 l 319 317 z "},"껍":{"ha":1214,"x_min":88,"x_max":1026,"o":"m 1026 1101 l 1026 464 l 982 464 l 982 1101 l 1026 1101 m 994 776 l 994 736 l 671 736 l 671 776 l 994 776 m 325 397 l 325 211 l 983 211 l 983 397 l 1026 397 l 1026 -69 l 281 -69 l 281 397 l 325 397 m 325 -31 l 983 -31 l 983 172 l 325 172 l 325 -31 m 408 1018 q 376 818 408 908 q 281 652 344 728 q 119 514 217 576 l 88 546 q 242 672 181 603 q 335 826 304 742 q 365 1014 365 911 l 365 1018 l 408 1018 m 396 1018 l 396 978 l 103 978 l 103 1018 l 396 1018 m 735 1018 q 706 803 735 906 q 617 608 678 700 q 457 439 556 515 l 425 469 q 578 626 519 540 q 665 810 638 713 q 692 1015 692 907 l 692 1018 l 735 1018 m 711 1018 l 711 978 l 456 978 l 456 1018 l 711 1018 z "},"껎":{"ha":1214,"x_min":0,"x_max":0,"o":""},"껏":{"ha":1214,"x_min":88,"x_max":1101,"o":"m 1026 1100 l 1026 272 l 982 272 l 982 1100 l 1026 1100 m 993 719 l 993 681 l 664 681 l 664 719 l 993 719 m 410 999 q 378 796 410 889 q 282 626 346 703 q 119 483 218 549 l 88 514 q 244 645 182 574 q 336 803 306 717 q 367 994 367 890 l 367 999 l 410 999 m 394 999 l 394 958 l 103 958 l 103 999 l 394 999 m 736 999 q 708 778 736 883 q 619 575 681 672 q 457 397 557 478 l 424 429 q 578 592 518 501 q 666 785 639 683 q 693 996 693 886 l 693 999 l 736 999 m 711 999 l 711 958 l 457 958 l 457 999 l 711 999 m 676 396 l 676 328 q 608 132 676 217 q 440 -6 540 47 q 235 -85 340 -58 l 214 -49 q 407 22 310 -28 q 571 151 504 72 q 638 328 638 229 l 638 396 l 676 396 m 682 396 l 682 328 q 748 153 682 231 q 910 26 814 76 q 1101 -44 1007 -24 l 1079 -81 q 876 -3 975 -56 q 710 134 778 50 q 643 328 643 218 l 643 396 l 682 396 z "},"껐":{"ha":1214,"x_min":89,"x_max":1140,"o":"m 411 1013 q 379 810 411 903 q 283 639 347 717 q 119 496 218 561 l 89 528 q 245 660 183 588 q 338 818 307 732 q 368 1008 368 904 l 368 1013 l 411 1013 m 393 1013 l 393 974 l 100 974 l 100 1013 l 393 1013 m 736 1013 q 708 797 736 900 q 618 600 679 693 q 458 431 557 507 l 426 461 q 580 619 521 532 q 666 803 639 706 q 693 1010 693 901 l 693 1013 l 736 1013 m 713 1013 l 713 974 l 457 974 l 457 1013 l 713 1013 m 1029 1100 l 1029 408 l 985 408 l 985 1100 l 1029 1100 m 1003 756 l 1003 714 l 675 714 l 675 756 l 1003 756 m 436 374 l 436 268 q 401 137 436 204 q 303 14 365 69 q 165 -74 242 -42 l 142 -37 q 270 40 211 -11 q 364 151 329 90 q 399 268 399 213 l 399 374 l 436 374 m 440 374 l 440 268 q 501 83 440 172 q 663 -47 561 -6 l 640 -83 q 466 62 529 -36 q 403 268 403 160 l 403 374 l 440 374 m 879 374 l 879 268 q 851 141 879 210 q 767 12 822 72 q 640 -83 713 -49 l 619 -47 q 735 39 685 -17 q 814 156 786 94 q 842 268 842 218 l 842 374 l 879 374 m 883 374 l 883 268 q 917 147 883 208 q 1010 37 951 86 q 1140 -37 1069 -12 l 1117 -74 q 922 68 999 -28 q 846 268 846 164 l 846 374 l 883 374 z "},"껑":{"ha":1214,"x_min":88,"x_max":1031,"o":"m 1026 1100 l 1026 353 l 982 353 l 982 1100 l 1026 1100 m 993 742 l 993 701 l 665 701 l 665 742 l 993 742 m 408 1011 q 376 808 408 901 q 281 638 344 715 q 118 494 217 560 l 88 526 q 243 658 182 586 q 335 817 304 731 q 365 1008 365 904 l 365 1011 l 408 1011 m 392 1011 l 392 972 l 99 972 l 99 1011 l 392 1011 m 735 1011 q 707 792 735 897 q 617 592 679 688 q 457 418 556 497 l 422 449 q 578 609 518 519 q 665 799 638 699 q 692 1008 692 899 l 692 1011 l 735 1011 m 711 1011 l 711 972 l 456 972 l 456 1011 l 711 1011 m 640 349 q 849 323 761 349 q 984 249 938 297 q 1031 132 1031 200 q 984 15 1031 64 q 849 -58 938 -33 q 640 -83 761 -83 q 431 -58 519 -83 q 297 15 343 -33 q 250 132 250 64 q 297 249 250 200 q 431 323 343 297 q 640 349 519 349 m 640 308 q 389 260 483 308 q 294 132 294 213 q 338 40 294 79 q 459 -22 381 0 q 640 -44 538 -44 q 822 -22 744 -44 q 943 40 900 0 q 986 132 986 79 q 892 260 986 213 q 640 308 797 308 z "},"껒":{"ha":1214,"x_min":0,"x_max":0,"o":""},"껓":{"ha":1214,"x_min":90,"x_max":1103,"o":"m 410 1022 q 378 824 410 913 q 283 662 346 735 q 122 526 219 589 l 90 557 q 244 681 183 614 q 336 831 306 747 q 367 1018 367 915 l 367 1022 l 410 1022 m 393 1022 l 393 981 l 100 981 l 100 1022 l 393 1022 m 736 1022 q 708 810 736 910 q 619 623 679 711 q 461 460 558 535 l 428 490 q 580 640 521 557 q 666 817 639 722 q 693 1019 693 911 l 693 1022 l 736 1022 m 711 1022 l 711 981 l 457 981 l 457 1022 l 711 1022 m 1026 1100 l 1026 414 l 982 414 l 982 1100 l 1026 1100 m 1001 779 l 1001 739 l 672 739 l 672 779 l 1001 779 m 692 278 l 692 251 q 623 101 692 171 q 453 -16 554 32 q 258 -83 353 -64 l 239 -46 q 419 12 322 -32 q 585 119 517 56 q 654 251 654 182 l 654 278 l 692 278 m 697 278 l 697 251 q 763 121 697 183 q 924 14 829 58 q 1103 -46 1019 -31 l 1083 -83 q 890 -15 989 -62 q 725 103 792 33 q 658 251 658 172 l 658 278 l 697 278 m 1065 307 l 1065 265 l 288 265 l 288 307 l 1065 307 m 697 447 l 697 285 l 654 285 l 654 447 l 697 447 z "},"껔":{"ha":1214,"x_min":0,"x_max":0,"o":""},"껕":{"ha":1214,"x_min":67,"x_max":1051,"o":"m 374 1025 l 374 985 l 82 985 l 82 1025 l 374 1025 m 389 1025 q 353 835 389 919 q 255 683 318 750 q 100 556 192 617 l 67 586 q 217 701 156 640 q 313 842 279 763 q 347 1021 347 921 l 347 1025 l 389 1025 m 703 1025 l 703 985 l 435 985 l 435 1025 l 703 1025 m 714 1025 q 645 723 714 858 q 435 482 576 588 l 400 511 q 553 655 493 576 q 642 825 613 733 q 671 1022 671 917 l 671 1025 l 714 1025 m 1007 1100 l 1007 463 l 963 463 l 963 1100 l 1007 1100 m 981 793 l 981 751 l 651 751 l 651 793 l 981 793 m 1006 176 l 1006 135 l 283 135 l 283 176 l 1006 176 m 1022 388 l 1022 349 l 300 349 l 300 -47 l 257 -47 l 257 388 l 1022 388 m 1051 -36 l 1051 -76 l 257 -76 l 257 -36 l 1051 -36 z "},"껖":{"ha":1214,"x_min":0,"x_max":0,"o":""},"껗":{"ha":1214,"x_min":0,"x_max":0,"o":""},"께":{"ha":1214,"x_min":89,"x_max":1063,"o":"m 361 950 q 310 568 361 760 q 126 224 258 376 l 89 253 q 229 469 178 347 q 301 713 281 590 q 322 949 322 835 l 322 950 l 361 950 m 336 950 l 336 910 l 100 910 l 100 950 l 336 950 m 619 950 q 605 684 619 818 q 540 399 590 550 q 390 128 489 249 l 351 156 q 499 410 449 264 q 565 690 550 557 q 579 949 579 824 l 579 950 l 619 950 m 597 950 l 597 910 l 403 910 l 403 950 l 597 950 m 1063 1101 l 1063 -89 l 1018 -89 l 1018 1101 l 1063 1101 m 828 613 l 828 572 l 567 572 l 567 613 l 828 613 m 853 1065 l 853 -19 l 810 -19 l 810 1065 l 853 1065 z "},"껙":{"ha":1214,"x_min":94,"x_max":1056,"o":"m 1056 1100 l 1056 394 l 1013 394 l 1013 1100 l 1056 1100 m 831 774 l 831 733 l 582 733 l 582 774 l 831 774 m 854 1072 l 854 406 l 811 406 l 811 1072 l 854 1072 m 1056 331 l 1056 -89 l 1013 -89 l 1013 290 l 275 290 l 275 331 l 1056 331 m 371 1011 q 347 810 371 903 q 269 637 322 718 q 129 485 215 556 l 94 517 q 229 657 178 582 q 304 818 281 732 q 328 1008 328 904 l 328 1011 l 371 1011 m 350 1011 l 350 972 l 100 972 l 100 1011 l 350 1011 m 635 1011 q 613 794 635 899 q 540 589 592 689 q 401 404 489 489 l 361 432 q 497 603 446 508 q 570 800 549 699 q 592 1010 592 901 l 592 1011 l 635 1011 m 608 1011 l 608 972 l 403 972 l 403 1011 l 608 1011 z "},"껚":{"ha":1214,"x_min":0,"x_max":0,"o":""},"껛":{"ha":1214,"x_min":0,"x_max":0,"o":""},"껜":{"ha":1214,"x_min":92,"x_max":1099,"o":"m 1099 4 l 1099 -36 l 307 -36 l 307 4 l 1099 4 m 351 306 l 351 -17 l 307 -17 l 307 306 l 351 306 m 1057 1100 l 1057 206 l 1014 206 l 1014 1100 l 1057 1100 m 832 742 l 832 701 l 582 701 l 582 742 l 832 742 m 856 1074 l 856 240 l 813 240 l 813 1074 l 856 1074 m 371 1001 q 347 797 371 892 q 268 617 322 701 q 126 460 214 533 l 92 490 q 228 635 175 557 q 304 804 281 714 q 328 999 328 894 l 328 1001 l 371 1001 m 351 1001 l 351 960 l 101 960 l 101 1001 l 351 1001 m 635 1001 q 614 778 635 886 q 540 566 593 669 q 399 375 488 463 l 361 404 q 499 583 447 485 q 571 785 550 681 q 592 1000 592 889 l 592 1001 l 635 1001 m 610 1001 l 610 960 l 403 960 l 403 1001 l 610 1001 z "},"껝":{"ha":1214,"x_min":0,"x_max":0,"o":""},"껞":{"ha":1214,"x_min":0,"x_max":0,"o":""},"껟":{"ha":1214,"x_min":0,"x_max":0,"o":""},"껠":{"ha":1214,"x_min":0,"x_max":0,"o":""},"껡":{"ha":1214,"x_min":0,"x_max":0,"o":""},"껢":{"ha":1214,"x_min":0,"x_max":0,"o":""},"껣":{"ha":1214,"x_min":0,"x_max":0,"o":""},"껤":{"ha":1214,"x_min":0,"x_max":0,"o":""},"껥":{"ha":1214,"x_min":0,"x_max":0,"o":""},"껦":{"ha":1214,"x_min":0,"x_max":0,"o":""},"껧":{"ha":1214,"x_min":0,"x_max":0,"o":""},"껨":{"ha":1214,"x_min":96,"x_max":1056,"o":"m 1056 1100 l 1056 414 l 1013 414 l 1013 1100 l 1056 1100 m 831 768 l 831 728 l 582 728 l 582 768 l 831 768 m 854 1074 l 854 431 l 811 431 l 811 1074 l 854 1074 m 368 1014 q 344 819 368 908 q 266 651 319 729 q 128 503 213 572 l 96 533 q 230 668 179 596 q 304 824 281 740 q 328 1011 328 908 l 328 1014 l 368 1014 m 350 1014 l 350 975 l 100 975 l 100 1014 l 350 1014 m 632 1014 q 610 800 632 903 q 538 600 589 697 q 400 421 486 503 l 363 447 q 498 615 447 524 q 570 806 549 707 q 592 1013 592 904 l 592 1014 l 632 1014 m 608 1014 l 608 975 l 403 975 l 403 1014 l 608 1014 m 1056 351 l 1056 -68 l 301 -68 l 301 351 l 1056 351 m 344 313 l 344 -28 l 1014 -28 l 1014 313 l 344 313 z "},"껩":{"ha":1214,"x_min":0,"x_max":0,"o":""},"껪":{"ha":1214,"x_min":0,"x_max":0,"o":""},"껫":{"ha":1214,"x_min":94,"x_max":1129,"o":"m 1057 1100 l 1057 290 l 1014 290 l 1014 1100 l 1057 1100 m 832 760 l 832 719 l 583 719 l 583 760 l 832 760 m 856 1072 l 856 399 l 813 399 l 813 1072 l 856 1072 m 371 1001 q 347 801 371 893 q 269 626 322 708 q 129 474 215 544 l 94 503 q 229 644 178 568 q 304 808 281 721 q 328 999 328 894 l 328 1001 l 371 1001 m 351 1001 l 351 961 l 100 961 l 100 1001 l 351 1001 m 635 1001 q 613 782 635 888 q 540 575 592 676 q 401 388 489 474 l 363 415 q 499 590 449 493 q 571 788 550 686 q 592 1000 592 890 l 592 1001 l 635 1001 m 610 1001 l 610 961 l 404 961 l 404 1001 l 610 1001 m 692 364 l 692 307 q 621 125 692 206 q 447 -8 550 44 q 242 -82 343 -60 l 224 -46 q 413 21 313 -28 q 584 144 514 69 q 654 307 654 218 l 654 364 l 692 364 m 699 364 l 699 307 q 769 144 699 218 q 940 21 839 69 q 1129 -46 1040 -28 l 1111 -82 q 906 -8 1010 -60 q 731 125 803 44 q 660 307 660 206 l 660 364 l 699 364 z "},"껬":{"ha":1214,"x_min":0,"x_max":0,"o":""},"껭":{"ha":1214,"x_min":96,"x_max":1067,"o":"m 1056 1100 l 1056 364 l 1013 364 l 1013 1100 l 1056 1100 m 831 758 l 831 718 l 582 718 l 582 758 l 831 758 m 854 1072 l 854 411 l 811 411 l 811 1072 l 854 1072 m 371 1001 q 347 804 371 894 q 269 635 322 714 q 131 488 215 557 l 96 519 q 230 656 179 583 q 304 812 281 728 q 328 999 328 896 l 328 1001 l 371 1001 m 354 1001 l 354 961 l 104 961 l 104 1001 l 354 1001 m 635 1001 q 613 785 635 889 q 540 585 592 682 q 400 404 488 488 l 363 433 q 498 601 447 510 q 570 792 549 693 q 592 1000 592 892 l 592 1001 l 635 1001 m 608 1001 l 608 961 l 403 961 l 403 1001 l 608 1001 m 663 336 q 960 281 854 336 q 1067 126 1067 226 q 960 -28 1067 26 q 663 -83 854 -83 q 366 -28 472 -83 q 260 126 260 26 q 366 281 260 226 q 663 336 472 336 m 663 297 q 401 251 500 297 q 303 126 303 204 q 401 2 303 49 q 663 -44 500 -44 q 924 2 825 -44 q 1022 126 1022 49 q 924 251 1022 204 q 663 297 825 297 z "},"껮":{"ha":1214,"x_min":0,"x_max":0,"o":""},"껯":{"ha":1214,"x_min":0,"x_max":0,"o":""},"껰":{"ha":1214,"x_min":0,"x_max":0,"o":""},"껱":{"ha":1214,"x_min":0,"x_max":0,"o":""},"껲":{"ha":1214,"x_min":0,"x_max":0,"o":""},"껳":{"ha":1214,"x_min":0,"x_max":0,"o":""},"껴":{"ha":1214,"x_min":61,"x_max":1024,"o":"m 1024 1101 l 1024 -89 l 981 -89 l 981 1101 l 1024 1101 m 1004 747 l 1004 707 l 704 707 l 704 747 l 1004 747 m 1013 435 l 1013 394 l 610 394 l 610 435 l 1013 435 m 415 965 q 381 701 415 838 q 276 433 347 565 q 99 192 206 300 l 61 218 q 233 444 163 317 q 340 706 304 572 q 375 963 375 840 l 375 965 l 415 965 m 389 965 l 389 925 l 90 925 l 90 965 l 389 965 m 732 965 q 707 685 732 833 q 619 385 682 538 q 446 110 556 232 l 404 133 q 574 394 510 246 q 665 690 639 543 q 692 964 692 838 l 692 965 l 732 965 m 711 965 l 711 925 l 450 925 l 450 965 l 711 965 m 1024 1101 l 1024 -89 l 981 -89 l 981 1101 l 1024 1101 z "},"껵":{"ha":1214,"x_min":0,"x_max":0,"o":""},"껶":{"ha":1214,"x_min":0,"x_max":0,"o":""},"껷":{"ha":1214,"x_min":0,"x_max":0,"o":""},"껸":{"ha":1214,"x_min":99,"x_max":1057,"o":"m 1001 853 l 1001 814 l 690 814 l 690 853 l 1001 853 m 1001 563 l 1001 522 l 685 522 l 685 563 l 1001 563 m 1026 1100 l 1026 218 l 982 218 l 982 1100 l 1026 1100 m 410 994 q 381 783 410 882 q 291 595 353 683 q 132 432 229 507 l 99 463 q 251 613 192 531 q 339 789 311 694 q 367 992 367 883 l 367 994 l 410 994 m 392 994 l 392 951 l 100 951 l 100 994 l 392 994 m 731 994 q 703 767 731 878 q 615 553 676 656 q 453 365 553 450 l 418 396 q 574 569 514 472 q 661 773 635 667 q 688 992 688 879 l 688 994 l 731 994 m 711 994 l 711 951 l 457 951 l 457 994 l 711 994 m 1057 -15 l 1057 -56 l 292 -56 l 292 -15 l 1057 -15 m 335 279 l 335 -37 l 292 -37 l 292 279 l 335 279 z "},"껹":{"ha":1214,"x_min":0,"x_max":0,"o":""},"껺":{"ha":1214,"x_min":0,"x_max":0,"o":""},"껻":{"ha":1214,"x_min":0,"x_max":0,"o":""},"껼":{"ha":1214,"x_min":90,"x_max":1069,"o":"m 1001 901 l 1001 861 l 701 861 l 701 901 l 1001 901 m 1007 681 l 1007 640 l 696 640 l 696 681 l 1007 681 m 411 1026 q 375 838 411 921 q 276 690 339 754 q 124 565 214 625 l 90 596 q 238 710 178 651 q 333 845 299 768 q 368 1022 368 922 l 368 1026 l 411 1026 m 382 1026 l 382 985 l 108 985 l 108 1026 l 382 1026 m 735 1026 q 705 819 735 915 q 613 641 675 724 q 457 489 551 558 l 422 518 q 575 659 515 582 q 663 826 635 736 q 692 1024 692 917 l 692 1026 l 735 1026 m 708 1026 l 708 985 l 454 985 l 454 1026 l 708 1026 m 1025 1101 l 1025 485 l 982 485 l 982 1101 l 1025 1101 m 1025 418 l 1025 164 l 328 164 l 328 -69 l 286 -69 l 286 203 l 982 203 l 982 378 l 282 378 l 282 418 l 1025 418 m 1069 -37 l 1069 -76 l 286 -76 l 286 -37 l 1069 -37 z "},"껽":{"ha":1214,"x_min":0,"x_max":0,"o":""},"껾":{"ha":1214,"x_min":0,"x_max":0,"o":""},"껿":{"ha":1214,"x_min":0,"x_max":0,"o":""},"꼀":{"ha":1214,"x_min":0,"x_max":0,"o":""},"꼁":{"ha":1214,"x_min":0,"x_max":0,"o":""},"꼂":{"ha":1214,"x_min":0,"x_max":0,"o":""},"꼃":{"ha":1214,"x_min":0,"x_max":0,"o":""},"꼄":{"ha":1214,"x_min":0,"x_max":0,"o":""},"꼅":{"ha":1214,"x_min":0,"x_max":0,"o":""},"꼆":{"ha":1214,"x_min":0,"x_max":0,"o":""},"꼇":{"ha":1214,"x_min":88,"x_max":1101,"o":"m 1007 846 l 1007 804 l 696 804 l 696 846 l 1007 846 m 1010 592 l 1010 551 l 692 551 l 692 592 l 1010 592 m 410 999 q 378 796 410 889 q 282 626 346 703 q 119 483 218 549 l 88 514 q 244 645 182 574 q 336 803 306 717 q 367 994 367 890 l 367 999 l 410 999 m 394 999 l 394 958 l 103 958 l 103 999 l 394 999 m 736 999 q 708 778 736 883 q 619 575 681 672 q 457 397 557 478 l 424 429 q 578 592 518 501 q 666 785 639 683 q 693 996 693 886 l 693 999 l 736 999 m 711 999 l 711 958 l 457 958 l 457 999 l 711 999 m 1026 1100 l 1026 272 l 982 272 l 982 1100 l 1026 1100 m 676 383 l 676 329 q 608 133 676 218 q 440 -4 540 49 q 235 -83 340 -57 l 214 -47 q 407 24 310 -26 q 571 152 504 74 q 638 329 638 231 l 638 383 l 676 383 m 682 383 l 682 329 q 748 155 682 232 q 910 28 814 78 q 1101 -43 1007 -22 l 1079 -79 q 876 -1 975 -54 q 710 135 778 51 q 643 329 643 219 l 643 383 l 682 383 z "},"꼈":{"ha":1214,"x_min":89,"x_max":1140,"o":"m 1013 878 l 1013 838 l 701 838 l 701 878 l 1013 878 m 1011 619 l 1011 579 l 700 579 l 700 619 l 1011 619 m 411 1013 q 379 810 411 903 q 283 639 347 717 q 119 496 218 561 l 89 528 q 245 660 183 588 q 338 818 307 732 q 368 1008 368 904 l 368 1013 l 411 1013 m 393 1013 l 393 974 l 100 974 l 100 1013 l 393 1013 m 736 1013 q 708 797 736 900 q 618 600 679 693 q 458 431 557 507 l 426 461 q 580 619 521 532 q 666 803 639 706 q 693 1010 693 901 l 693 1013 l 736 1013 m 713 1013 l 713 974 l 457 974 l 457 1013 l 713 1013 m 1029 1100 l 1029 408 l 985 408 l 985 1100 l 1029 1100 m 436 374 l 436 268 q 401 137 436 204 q 303 14 365 69 q 165 -74 242 -42 l 142 -37 q 270 40 211 -11 q 364 151 329 90 q 399 268 399 213 l 399 374 l 436 374 m 440 374 l 440 268 q 501 83 440 172 q 663 -47 561 -6 l 640 -83 q 466 62 529 -36 q 403 268 403 160 l 403 374 l 440 374 m 879 374 l 879 268 q 851 141 879 210 q 767 12 822 72 q 640 -83 713 -49 l 619 -47 q 735 39 685 -17 q 814 156 786 94 q 842 268 842 218 l 842 374 l 879 374 m 883 374 l 883 268 q 917 147 883 208 q 1010 37 951 86 q 1140 -37 1069 -12 l 1117 -74 q 922 68 999 -28 q 846 268 846 164 l 846 374 l 883 374 z "},"꼉":{"ha":1214,"x_min":88,"x_max":1031,"o":"m 1026 1100 l 1026 353 l 982 353 l 982 1100 l 1026 1100 m 408 1011 q 376 808 408 901 q 281 638 344 715 q 118 494 217 560 l 88 526 q 243 658 182 586 q 335 817 304 731 q 365 1008 365 904 l 365 1011 l 408 1011 m 392 1011 l 392 972 l 99 972 l 99 1011 l 392 1011 m 735 1011 q 707 792 735 897 q 617 592 679 688 q 457 418 556 497 l 422 449 q 578 609 518 519 q 665 799 638 699 q 692 1008 692 899 l 692 1011 l 735 1011 m 711 1011 l 711 972 l 456 972 l 456 1011 l 711 1011 m 640 349 q 849 323 761 349 q 984 249 938 297 q 1031 132 1031 200 q 984 15 1031 64 q 849 -58 938 -33 q 640 -83 761 -83 q 431 -58 519 -83 q 297 15 343 -33 q 250 132 250 64 q 297 249 250 200 q 431 323 343 297 q 640 349 519 349 m 640 308 q 389 260 483 308 q 294 132 294 213 q 338 40 294 79 q 459 -22 381 0 q 640 -44 538 -44 q 822 -22 744 -44 q 943 40 900 0 q 986 132 986 79 q 892 260 986 213 q 640 308 797 308 m 1006 857 l 1006 817 l 694 817 l 694 857 l 1006 857 m 1008 615 l 1008 575 l 690 575 l 690 615 l 1008 615 z "},"꼊":{"ha":1214,"x_min":0,"x_max":0,"o":""},"꼋":{"ha":1214,"x_min":0,"x_max":0,"o":""},"꼌":{"ha":1214,"x_min":0,"x_max":0,"o":""},"꼍":{"ha":1214,"x_min":89,"x_max":1056,"o":"m 1031 374 l 1031 333 l 328 333 l 328 -46 l 285 -46 l 285 374 l 1031 374 m 1056 -29 l 1056 -69 l 285 -69 l 285 -29 l 1056 -29 m 1013 175 l 1013 135 l 308 135 l 308 175 l 1013 175 m 1026 1101 l 1026 440 l 982 440 l 982 1101 l 1026 1101 m 1001 881 l 1001 842 l 697 842 l 697 881 l 1001 881 m 999 650 l 999 611 l 694 611 l 694 650 l 999 650 m 410 1018 q 378 818 410 908 q 281 652 346 728 q 119 514 217 576 l 89 546 q 244 672 182 603 q 336 826 306 742 q 367 1014 367 911 l 367 1018 l 410 1018 m 392 1018 l 392 978 l 100 978 l 100 1018 l 392 1018 m 722 1018 q 693 802 722 906 q 601 607 664 699 q 438 440 538 515 l 404 471 q 561 626 500 540 q 651 810 622 713 q 681 1015 681 908 l 681 1018 l 722 1018 m 711 1018 l 711 978 l 457 978 l 457 1018 l 711 1018 z "},"꼎":{"ha":1214,"x_min":0,"x_max":0,"o":""},"꼏":{"ha":1214,"x_min":0,"x_max":0,"o":""},"꼐":{"ha":1214,"x_min":89,"x_max":1063,"o":"m 850 756 l 850 715 l 589 715 l 589 756 l 850 756 m 833 450 l 833 410 l 535 410 l 535 450 l 833 450 m 361 950 q 310 568 361 760 q 126 224 258 376 l 89 253 q 229 469 178 347 q 301 713 281 590 q 322 949 322 835 l 322 950 l 361 950 m 336 950 l 336 910 l 100 910 l 100 950 l 336 950 m 619 950 q 605 684 619 818 q 540 399 590 550 q 390 128 489 249 l 351 156 q 499 410 449 264 q 565 690 550 557 q 579 949 579 824 l 579 950 l 619 950 m 597 950 l 597 910 l 403 910 l 403 950 l 597 950 m 1063 1101 l 1063 -89 l 1018 -89 l 1018 1101 l 1063 1101 m 856 1065 l 856 -19 l 813 -19 l 813 1065 l 856 1065 z "},"꼑":{"ha":1214,"x_min":0,"x_max":0,"o":""},"꼒":{"ha":1214,"x_min":0,"x_max":0,"o":""},"꼓":{"ha":1214,"x_min":0,"x_max":0,"o":""},"꼔":{"ha":1214,"x_min":0,"x_max":0,"o":""},"꼕":{"ha":1214,"x_min":0,"x_max":0,"o":""},"꼖":{"ha":1214,"x_min":0,"x_max":0,"o":""},"꼗":{"ha":1214,"x_min":0,"x_max":0,"o":""},"꼘":{"ha":1214,"x_min":0,"x_max":0,"o":""},"꼙":{"ha":1214,"x_min":0,"x_max":0,"o":""},"꼚":{"ha":1214,"x_min":0,"x_max":0,"o":""},"꼛":{"ha":1214,"x_min":0,"x_max":0,"o":""},"꼜":{"ha":1214,"x_min":0,"x_max":0,"o":""},"꼝":{"ha":1214,"x_min":0,"x_max":0,"o":""},"꼞":{"ha":1214,"x_min":0,"x_max":0,"o":""},"꼟":{"ha":1214,"x_min":0,"x_max":0,"o":""},"꼠":{"ha":1214,"x_min":0,"x_max":0,"o":""},"꼡":{"ha":1214,"x_min":0,"x_max":0,"o":""},"꼢":{"ha":1214,"x_min":0,"x_max":0,"o":""},"꼣":{"ha":1214,"x_min":0,"x_max":0,"o":""},"꼤":{"ha":1214,"x_min":0,"x_max":0,"o":""},"꼥":{"ha":1214,"x_min":0,"x_max":0,"o":""},"꼦":{"ha":1214,"x_min":0,"x_max":0,"o":""},"꼧":{"ha":1214,"x_min":0,"x_max":0,"o":""},"꼨":{"ha":1214,"x_min":0,"x_max":0,"o":""},"꼩":{"ha":1214,"x_min":0,"x_max":0,"o":""},"꼪":{"ha":1214,"x_min":0,"x_max":0,"o":""},"꼫":{"ha":1214,"x_min":0,"x_max":0,"o":""},"꼬":{"ha":1214,"x_min":67,"x_max":1140,"o":"m 496 964 l 496 924 l 156 924 l 156 964 l 496 964 m 1140 144 l 1140 104 l 67 104 l 67 144 l 1140 144 m 653 556 l 653 122 l 608 122 l 608 556 l 653 556 m 514 964 l 514 944 l 514 942 q 501 695 514 838 q 442 357 488 553 l 394 364 q 458 692 444 553 q 471 944 471 831 l 471 964 l 514 964 m 979 964 l 979 924 l 619 924 l 619 964 l 979 964 m 1003 964 l 1003 878 l 1003 867 q 993 627 1003 742 q 949 357 983 513 l 903 367 q 950 632 940 517 q 960 878 960 747 l 960 964 l 1003 964 z "}}}
